<?xml version="1.0" encoding="utf-8"?>
<!-- Generator: Adobe Illustrator 16.0.0, SVG Export Plug-In . SVG Version: 6.00 Build 0)  -->
<!DOCTYPE svg PUBLIC "-//W3C//DTD SVG 1.1//EN" "http://www.w3.org/Graphics/SVG/1.1/DTD/svg11.dtd">
<svg version="1.1" id="Layer_1" xmlns="http://www.w3.org/2000/svg" xmlns:xlink="http://www.w3.org/1999/xlink" x="0px" y="0px"
	 width="288.464px" height="254.647px" viewBox="0 0 288.464 254.647" enable-background="new 0 0 288.464 254.647"
	 xml:space="preserve">
<path fill="#FFFFFF" stroke="#74B6D2" stroke-width="5" stroke-miterlimit="10" d="M191.476,144.928
	c0,9.228-7.481,16.709-16.71,16.709H19.209c-9.229,0-16.709-7.481-16.709-16.709V19.209C2.5,9.981,9.981,2.5,19.209,2.5h155.557
	c9.229,0,16.71,7.481,16.71,16.709V144.928z"/>
<path fill="#FFFFFF" stroke="#74B6D2" stroke-width="5" stroke-miterlimit="10" d="M285.964,235.438
	c0,9.228-7.481,16.709-16.709,16.709H113.697c-9.228,0-16.708-7.481-16.708-16.709v-125.72c0-9.228,7.481-16.71,16.708-16.71
	h155.559c9.228,0,16.709,7.482,16.709,16.71V235.438z"/>
</svg>
