<?xml version="1.0" encoding="utf-8"?>
<!-- Generator: Adobe Illustrator 16.0.0, SVG Export Plug-In . SVG Version: 6.00 Build 0)  -->
<!DOCTYPE svg PUBLIC "-//W3C//DTD SVG 1.1//EN" "http://www.w3.org/Graphics/SVG/1.1/DTD/svg11.dtd">
<svg version="1.1"
	 id="svg4" inkscape:version="0.92.2 2405546, 2018-03-11" sodipodi:docname="console-debug-dark.svg" xmlns:cc="http://creativecommons.org/ns#" xmlns:rdf="http://www.w3.org/1999/02/22-rdf-syntax-ns#" xmlns:inkscape="http://www.inkscape.org/namespaces/inkscape" xmlns:dc="http://purl.org/dc/elements/1.1/" xmlns:svg="http://www.w3.org/2000/svg" xmlns:sodipodi="http://sodipodi.sourceforge.net/DTD/sodipodi-0.dtd"
	 xmlns="http://www.w3.org/2000/svg" xmlns:xlink="http://www.w3.org/1999/xlink" x="0px" y="0px" width="1000px" height="800px"
	 viewBox="0 0 1000 800" enable-background="new 0 0 1000 800" xml:space="preserve">
<sodipodi:namedview  id="namedview6" inkscape:pageopacity="0" inkscape:window-x="0" inkscape:window-width="640" inkscape:pageshadow="2" inkscape:window-y="25" inkscape:window-maximized="0" inkscape:current-layer="svg4" inkscape:window-height="480" inkscape:cx="5" gridtolerance="10" showgrid="false" borderopacity="1" inkscape:zoom="23.6" pagecolor="#ffffff" objecttolerance="10" bordercolor="#666666" guidetolerance="10" inkscape:cy="5">
	</sodipodi:namedview>
<g>
	<path fill="#4594AF" d="M575.844,105.41c-106.008,0-192.252,86.245-192.252,192.252c0,50.184,19.335,95.93,50.938,130.204
		l-24.506,24.506c-0.49,0.491-0.894,1.033-1.228,1.604c-5.16-3.201-11.119-4.921-17.346-4.921c-8.819,0-17.106,3.435-23.334,9.668
		L242.393,584.445c-6.235,6.231-9.669,14.521-9.669,23.335s3.434,17.104,9.667,23.333c6.23,6.235,14.517,9.67,23.336,9.67
		c8.818,0,17.106-3.435,23.334-9.668l125.723-125.724c6.234-6.231,9.669-14.52,9.669-23.334c0-6.229-1.72-12.187-4.922-17.347
		c0.572-0.334,1.116-0.736,1.606-1.229l24.507-24.508c34.271,31.604,80.019,50.938,130.201,50.938
		c106.008,0,192.253-86.244,192.253-192.252C768.097,191.655,681.852,105.41,575.844,105.41z M277.945,620.004
		c-3.261,3.268-7.602,5.064-12.219,5.064c-4.618,0-8.958-1.798-12.223-5.066c-3.266-3.263-5.064-7.604-5.064-12.222
		c0-4.615,1.798-8.956,5.064-12.222L365.29,483.772l24.444,24.443L277.945,620.004z M403.672,494.28l-2.826,2.825l-24.444-24.444
		l2.827-2.826c3.262-3.267,7.602-5.065,12.22-5.065c4.618,0,8.957,1.8,12.223,5.066c3.266,3.264,5.063,7.604,5.063,12.223
		C408.736,486.674,406.938,491.015,403.672,494.28z M575.844,474.199c-97.342,0-176.537-79.194-176.537-176.537
		c0-97.343,79.194-176.538,176.537-176.538s176.537,79.195,176.537,176.538C752.381,395.005,673.187,474.199,575.844,474.199z"/>
	<path fill="#4594AF" d="M728.353,253.528c-10.35-35.818-33.191-67.02-64.32-87.857c-3.606-2.416-8.487-1.448-10.9,2.159
		s-1.447,8.487,2.159,10.9c28.057,18.781,48.642,46.895,57.965,79.16c0.994,3.441,4.134,5.679,7.545,5.679
		c0.723,0,1.456-0.1,2.186-0.311C727.153,262.053,729.557,257.697,728.353,253.528z"/>
	<path fill="#4594AF" d="M559.944,439.801c-31.412-3.472-60.126-16.915-83.039-38.875c-3.135-3.003-8.107-2.896-11.11,0.235
		c-3.002,3.133-2.897,8.106,0.236,11.109c25.066,24.024,57.807,39.351,92.186,43.15c0.294,0.031,0.584,0.047,0.872,0.047
		c3.952,0,7.357-2.974,7.8-6.995C567.367,444.16,564.257,440.277,559.944,439.801z"/>
	<path fill="#4594AF" d="M448.728,363.256c-1.992-3.854-6.734-5.364-10.589-3.371c-3.854,1.994-5.363,6.735-3.37,10.59
		c2.726,5.27,5.782,10.444,9.089,15.384c1.517,2.264,4.003,3.487,6.536,3.487c1.504,0,3.022-0.431,4.365-1.33
		c3.606-2.414,4.572-7.295,2.158-10.901C453.938,372.665,451.182,368.003,448.728,363.256z"/>
	<path fill="#4594AF" d="M607.634,158.196c5.166,1.172,10.321,2.65,15.323,4.395c0.854,0.299,1.729,0.44,2.588,0.44
		c3.25,0,6.289-2.03,7.42-5.272c1.429-4.097-0.735-8.579-4.831-10.006c-5.558-1.938-11.284-3.58-17.021-4.882
		c-4.231-0.962-8.441,1.69-9.402,5.923C600.75,153.026,603.403,157.236,607.634,158.196z"/>
	<path fill="#4594AF" stroke="#4594AF" stroke-width="10" stroke-miterlimit="10" d="M667.364,287.74
		c-0.441-2.211-1.813-4.125-3.762-5.256c-1.949-1.131-4.289-1.37-6.429-0.658l-16.516,5.505c-1.225-6.646-3.083-12.988-5.496-18.925
		l11.248-5.625c1.521-0.761,2.753-1.992,3.514-3.514l16.763-33.526c1.941-3.881,0.368-8.601-3.514-10.542
		c-3.882-1.941-8.602-0.368-10.542,3.514l-15.592,31.184l-9.045,4.522c-6.843-10.811-15.769-19.461-26.024-24.967l14.429-28.856
		c1.94-3.882,0.366-8.601-3.515-10.542c-3.88-1.941-8.602-0.368-10.542,3.514l-15.205,30.407c-3.674-0.79-7.44-1.225-11.294-1.225
		c-3.852,0-7.621,0.435-11.294,1.225l-15.204-30.407c-1.939-3.882-6.658-5.456-10.542-3.514c-3.882,1.941-5.455,6.66-3.515,10.542
		l14.43,28.856c-10.258,5.504-19.184,14.156-26.024,24.967l-9.046-4.522l-15.592-31.184c-1.939-3.882-6.66-5.455-10.542-3.514
		c-3.882,1.941-5.454,6.661-3.515,10.542l16.764,33.526c0.762,1.521,1.992,2.753,3.515,3.514l11.248,5.625
		c-2.413,5.937-4.271,12.279-5.497,18.925l-16.517-5.505c-2.139-0.712-4.479-0.473-6.428,0.658
		c-1.948,1.132-3.319,3.045-3.762,5.256l-8.381,41.908c-0.852,4.255,1.908,8.395,6.165,9.245c0.521,0.104,1.039,0.154,1.549,0.154
		c3.67,0,6.95-2.583,7.697-6.319l6.635-33.179l11.383,3.793c-0.023,0.899-0.056,1.795-0.056,2.7c0,9.424,1.274,18.479,3.591,26.931
		c-0.456,0.296-0.89,0.641-1.288,1.04l-16.763,16.764c-2.551,2.55-3.036,6.507-1.183,9.599l25.146,41.908
		c1.472,2.455,4.073,3.815,6.744,3.814c1.375,0,2.771-0.36,4.035-1.121c3.723-2.231,4.929-7.06,2.694-10.78l-21.987-36.647
		l8.561-8.559c11.659,24.159,32.836,40.346,56.979,40.346c24.145,0,45.32-16.187,56.98-40.345l8.56,8.56l-21.987,36.647
		c-2.232,3.722-1.024,8.548,2.694,10.781c1.267,0.759,2.66,1.12,4.036,1.12c2.669,0,5.271-1.359,6.744-3.814l25.146-41.909
		c1.855-3.091,1.368-7.049-1.183-9.599l-16.763-16.765c-0.399-0.397-0.832-0.742-1.287-1.038c2.313-8.454,3.589-17.507,3.589-26.931
		c0-0.906-0.031-1.801-0.055-2.7l11.382-3.794l6.636,33.181c0.746,3.734,4.028,6.317,7.697,6.317c0.511,0,1.028-0.05,1.549-0.153
		c4.256-0.853,7.018-4.991,6.165-9.246L667.364,287.74z M567.986,372.81c-24.302-5.038-42.955-33.057-42.955-66.766
		c0-10.521,1.817-20.488,5.058-29.375c10.984,6.61,24.001,10.662,37.897,11.772V372.81L567.986,372.81z M537.048,262.472
		c9.329-14.667,23.256-24.004,38.796-24.004c15.542,0,29.468,9.337,38.797,24.004c-10.76,6.762-24.533,10.57-38.797,10.57
		C561.582,273.042,547.809,269.234,537.048,262.472z M583.702,372.81v-84.368c13.896-1.111,26.913-5.163,37.896-11.772
		c3.24,8.888,5.06,18.854,5.06,29.375C626.657,339.753,608.002,367.771,583.702,372.81z"/>
</g>
</svg>
