<?xml version="1.0" encoding="utf-8"?>
<!-- Generator: Adobe Illustrator 16.0.0, SVG Export Plug-In . SVG Version: 6.00 Build 0)  -->
<!DOCTYPE svg PUBLIC "-//W3C//DTD SVG 1.1//EN" "http://www.w3.org/Graphics/SVG/1.1/DTD/svg11.dtd">
<svg version="1.1"
	 id="svg4" inkscape:version="0.92.2 2405546, 2018-03-11" sodipodi:docname="console-warn-light.svg" xmlns:cc="http://creativecommons.org/ns#" xmlns:rdf="http://www.w3.org/1999/02/22-rdf-syntax-ns#" xmlns:inkscape="http://www.inkscape.org/namespaces/inkscape" xmlns:dc="http://purl.org/dc/elements/1.1/" xmlns:svg="http://www.w3.org/2000/svg" xmlns:sodipodi="http://sodipodi.sourceforge.net/DTD/sodipodi-0.dtd"
	 xmlns="http://www.w3.org/2000/svg" xmlns:xlink="http://www.w3.org/1999/xlink" x="0px" y="0px" width="1000px" height="800px"
	 viewBox="0 0 1000 800" enable-background="new 0 0 1000 800" xml:space="preserve">
<sodipodi:namedview  id="namedview6" inkscape:pageopacity="0" inkscape:window-x="0" inkscape:window-width="640" inkscape:pageshadow="2" inkscape:window-y="25" inkscape:window-maximized="0" inkscape:current-layer="svg4" inkscape:window-height="480" inkscape:cx="5" gridtolerance="10" showgrid="false" borderopacity="1" inkscape:zoom="23.6" pagecolor="#ffffff" objecttolerance="10" bordercolor="#666666" guidetolerance="10" inkscape:cy="5">
	</sodipodi:namedview>
<g>
	<path fill="#D58500" d="M207.045,698.034h586.172c40.993,0,67.378-43.233,48.85-79.73L548.979,98.949
		c-20.215-40.422-78.042-40.422-98.253,0L157.637,618.304C139.669,654.801,166.06,698.034,207.045,698.034z M546.184,577.318
		c0,26.951-19.652,47.724-47.725,47.724c-28.076,0-47.727-20.772-47.727-47.724v-1.123c0-26.95,19.651-47.726,47.727-47.726
		c28.073,0,47.725,20.775,47.725,47.726V577.318z M472.622,226.4h55.028c15.155,0,24.147,12.915,22.458,29.198L525.961,466.71
		c-1.688,15.159-11.788,24.705-25.824,24.705c-14.04,0-24.146-9.546-25.831-24.705l-24.149-211.112
		C448.478,239.315,457.468,226.4,472.622,226.4z"/>
</g>
</svg>
