<?xml version="1.0" encoding="utf-8"?>
<!-- Generator: Adobe Illustrator 16.0.0, SVG Export Plug-In . SVG Version: 6.00 Build 0)  -->
<!DOCTYPE svg PUBLIC "-//W3C//DTD SVG 1.1//EN" "http://www.w3.org/Graphics/SVG/1.1/DTD/svg11.dtd">
<svg version="1.1" xmlns="http://www.w3.org/2000/svg" xmlns:xlink="http://www.w3.org/1999/xlink" x="0px" y="0px" width="1122px"
	 height="1122px" viewBox="0 0 1122 1122" enable-background="new 0 0 1122 1122" xml:space="preserve">
<g id="Bg">
</g>
<g id="Object">
	<g>
		<path fill="#616E7D" d="M561.569,560.222c0.094,0.061,0.207,0.097,0.327,0.097c0.333,0,0.604-0.271,0.604-0.604
			s-0.271-0.604-0.604-0.604s-0.604,0.271-0.604,0.604c0,0.056,0.008,0.11,0.022,0.162l-0.358,0.254l-0.567,0.403
			c-0.085-0.045-0.181-0.071-0.284-0.071c-0.333,0-0.604,0.271-0.604,0.604c0,0.333,0.271,0.604,0.604,0.604
			c0.144,0,0.276-0.051,0.38-0.135l0.471,0.334l0.358,0.254c-0.014,0.051-0.022,0.104-0.022,0.161c0,0.333,0.271,0.604,0.604,0.604
			s0.604-0.271,0.604-0.604s-0.271-0.604-0.604-0.604c-0.121,0-0.233,0.036-0.327,0.097l-0.513-0.364l-0.355-0.251
			c0.005-0.032,0.008-0.063,0.008-0.097c0-0.073-0.014-0.143-0.038-0.208l0.384-0.272L561.569,560.222z M561.882,559.369
			c0.188,0,0.34,0.152,0.34,0.34s-0.152,0.34-0.34,0.34s-0.34-0.152-0.34-0.34S561.694,559.369,561.882,559.369z M560.098,561.426
			c-0.188,0-0.34-0.152-0.34-0.34s0.152-0.34,0.34-0.34c0.188,0,0.34,0.152,0.34,0.34S560.285,561.426,560.098,561.426z
			 M561.882,561.95c0.188,0,0.34,0.152,0.34,0.34c0,0.188-0.152,0.34-0.34,0.34s-0.34-0.152-0.34-0.34
			C561.542,562.102,561.694,561.95,561.882,561.95z"/>
		<circle fill="#AAD4C8" cx="561.882" cy="562.29" r="0.34"/>
		<circle fill="#AAD4C8" cx="560.098" cy="561.086" r="0.34"/>
		<circle fill="#AAD4C8" cx="561.882" cy="559.709" r="0.34"/>
	</g>
</g>
</svg>
