<?xml version="1.0" encoding="utf-8"?>
<!-- Generator: Adobe Illustrator 16.0.0, SVG Export Plug-In . SVG Version: 6.00 Build 0)  -->
<!DOCTYPE svg PUBLIC "-//W3C//DTD SVG 1.1//EN" "http://www.w3.org/Graphics/SVG/1.1/DTD/svg11.dtd">
<svg version="1.1" xmlns="http://www.w3.org/2000/svg" xmlns:xlink="http://www.w3.org/1999/xlink" x="0px" y="0px" width="270px"
	 height="270px" viewBox="0 0 270 270" enable-background="new 0 0 270 270" xml:space="preserve">
<g id="Bg">
</g>
<g id="Object">
	<g>
		<path fill="#616E7D" d="M173.79,83.392c5.774,3.732,12.637,5.918,20.005,5.918c20.395,0,36.993-16.577,36.993-36.95
			c0-20.372-16.599-36.942-36.993-36.942c-20.396,0-36.988,16.57-36.988,36.942c0,3.426,0.504,6.727,1.386,9.883l-21.922,15.552
			l-34.724,24.631c-5.18-2.754-11.068-4.33-17.347-4.33c-20.393,0-36.987,16.572-36.987,36.942
			c0,20.372,16.595,36.941,36.987,36.941c8.797,0,16.882-3.086,23.231-8.229l28.839,20.456l21.922,15.553
			c-0.882,3.146-1.386,6.445-1.386,9.873c0,20.372,16.592,36.949,36.988,36.949c20.395,0,36.993-16.577,36.993-36.949
			c0-20.364-16.599-36.943-36.993-36.943c-7.377,0-14.253,2.196-20.026,5.924l-31.383-22.268l-21.706-15.398
			c0.309-1.929,0.516-3.891,0.516-5.908c0-4.466-0.842-8.736-2.298-12.703l23.489-16.667L173.79,83.392z M192.978,31.181
			c11.485,0,20.813,9.321,20.813,20.814c0,11.502-9.327,20.824-20.813,20.824c-11.502,0-20.825-9.321-20.825-20.824
			C172.152,40.502,181.476,31.181,192.978,31.181z M83.775,157.068c-11.504,0-20.823-9.32-20.823-20.821
			c0-11.494,9.319-20.815,20.823-20.815c11.493,0,20.811,9.321,20.811,20.815C104.586,147.748,95.269,157.068,83.775,157.068z
			 M192.978,189.104c11.485,0,20.813,9.319,20.813,20.815c0,11.503-9.327,20.822-20.813,20.822
			c-11.502,0-20.825-9.319-20.825-20.822C172.152,198.423,181.476,189.104,192.978,189.104z"/>
		<path fill="#AAD4C8" d="M172.152,209.919c0,11.503,9.323,20.822,20.825,20.822c11.485,0,20.813-9.319,20.813-20.822
			c0-11.496-9.327-20.815-20.813-20.815C181.476,189.104,172.152,198.423,172.152,209.919z"/>
		<path fill="#AAD4C8" d="M62.952,136.247c0,11.501,9.319,20.821,20.823,20.821c11.493,0,20.811-9.32,20.811-20.821
			c0-11.494-9.317-20.815-20.811-20.815C72.271,115.432,62.952,124.753,62.952,136.247z"/>
		<path fill="#AAD4C8" d="M172.152,51.995c0,11.502,9.323,20.824,20.825,20.824c11.485,0,20.813-9.321,20.813-20.824
			c0-11.493-9.327-20.814-20.813-20.814C181.476,31.181,172.152,40.502,172.152,51.995z"/>
	</g>
</g>
</svg>
