<?xml version="1.0" encoding="utf-8"?>
<!-- Generator: Adobe Illustrator 16.0.0, SVG Export Plug-In . SVG Version: 6.00 Build 0)  -->
<!DOCTYPE svg PUBLIC "-//W3C//DTD SVG 1.1//EN" "http://www.w3.org/Graphics/SVG/1.1/DTD/svg11.dtd">
<svg version="1.1" id="Layer_1" xmlns="http://www.w3.org/2000/svg" xmlns:xlink="http://www.w3.org/1999/xlink" x="0px" y="0px"
	 width="11px" height="12px" viewBox="0 0 11 12" enable-background="new 0 0 11 12" xml:space="preserve">
<title>&quot;K&quot; file icon Copy</title>
<desc>Created with Sketch.</desc>
<g>
	<g id="_x31__21_">
		<g>
			<path fill="#D58500" d="M7.094,8.581H2.989c-0.188,0-0.342,0.153-0.342,0.342c0,0.189,0.153,0.342,0.342,0.342h4.105
				c0.188,0,0.342-0.152,0.342-0.342C7.436,8.734,7.281,8.581,7.094,8.581z M6.752,1.058v0.01c-0.045,0-0.227-0.017-0.684-0.01
				H1.963c-0.756,0-1.368,0.613-1.368,1.368v8.207C0.595,11.389,1.208,12,1.963,12h6.156c0.756,0,1.367-0.611,1.367-1.367V3.793
				L6.752,1.058z M8.803,10.633c0,0.378-0.307,0.684-0.684,0.684H1.963c-0.378,0-0.684-0.306-0.684-0.684V2.426
				c0-0.378,0.306-0.685,0.684-0.685h4.093C6.051,2.561,6.068,3.11,6.068,3.11c0,0.755,0.611,1.368,1.367,1.368c0,0,0.57,0,1.367,0
				V10.633L8.803,10.633z M7.436,3.793c-0.379,0-0.684-0.306-0.684-0.684c0,0,0-0.554,0-1.369l2.051,2.052H7.436L7.436,3.793z
				 M7.094,6.529H2.989c-0.188,0-0.342,0.153-0.342,0.342c0,0.189,0.153,0.342,0.342,0.342h4.105c0.188,0,0.342-0.152,0.342-0.342
				C7.436,6.683,7.281,6.529,7.094,6.529z"/>
		</g>
	</g>
</g>
</svg>
