<?xml version="1.0" encoding="utf-8"?>
<!-- Generator: Adobe Illustrator 16.0.0, SVG Export Plug-In . SVG Version: 6.00 Build 0)  -->
<!DOCTYPE svg PUBLIC "-//W3C//DTD SVG 1.1//EN" "http://www.w3.org/Graphics/SVG/1.1/DTD/svg11.dtd">
<svg version="1.1" id="Layer_1" xmlns="http://www.w3.org/2000/svg" xmlns:xlink="http://www.w3.org/1999/xlink" x="0px" y="0px"
	 width="12px" height="11px" viewBox="0 0 12 11" enable-background="new 0 0 12 11" xml:space="preserve">
<path fill="#D58500" d="M10.296,3.007H6.115V2.105c0-0.397-0.286-0.702-0.68-0.702H1.023c-0.394,0-0.756,0.305-0.756,0.702v2.161
	V5.04v4.536c0,0.694,0.602,1.24,1.291,1.24h8.738c0.688,0,1.205-0.546,1.205-1.24v-5.31C11.501,3.572,10.984,3.007,10.296,3.007z
	 M8.008,7.105L5.959,8.816C5.87,8.892,5.756,8.798,5.756,8.648V7.921h-1.72c-0.146,0-0.281-0.176-0.281-0.387V6.309
	c0-0.213,0.136-0.406,0.281-0.406h1.72V5.194c0-0.15,0.114-0.244,0.204-0.169l2.047,1.712C8.104,6.819,8.105,7.023,8.008,7.105z"/>
<title>&quot;.&quot; project folder</title>
<desc>Created with Sketch.</desc>
</svg>
