<?xml version="1.0" encoding="utf-8"?>
<!-- Generator: Adobe Illustrator 16.0.0, SVG Export Plug-In . SVG Version: 6.00 Build 0)  -->
<!DOCTYPE svg PUBLIC "-//W3C//DTD SVG 1.1//EN" "http://www.w3.org/Graphics/SVG/1.1/DTD/svg11.dtd">
<svg version="1.1" id="Layer_1" xmlns="http://www.w3.org/2000/svg" xmlns:xlink="http://www.w3.org/1999/xlink" x="0px" y="0px"
	 width="28px" height="28px" viewBox="0 0 28 28" enable-background="new 0 0 28 28" xml:space="preserve">
<g>
	<path fill="#D58500" d="M28.047,5.104C28.038,2.282,25.749,0,22.928,0H5.12C3.759,0,2.454,0.542,1.494,1.505
		C0.533,2.469-0.005,3.776,0,5.137l0.043,13.588c0.01,2.822,2.299,5.055,5.121,5.055h5.057l2.391,3.479
		c0.323,0.464,0.852,0.764,1.416,0.766c0.564,0.001,1.093-0.311,1.418-0.771l2.42-3.473h5.104c1.36,0,2.665-0.492,3.627-1.455
		c0.96-0.965,1.498-2.246,1.493-3.607L28.047,5.104z M13.66,19.972c-1.064,0-1.789-0.783-1.789-1.829
		c0-1.065,0.744-1.829,1.789-1.829c1.087,0,1.791,0.764,1.81,1.829C15.47,19.188,14.747,19.972,13.66,19.972z M16.251,11.389
		c-0.812,0.9-0.986,1.756-0.986,2.744c0,0.734-0.596,1.33-1.329,1.33H13.39c-0.727,0-1.318-0.584-1.33-1.309l-0.001-0.141
		c-0.065-1.12,0.307-2.286,1.294-3.471c0.703-0.835,1.273-1.551,1.273-2.297c0-0.769-0.504-1.281-1.602-1.324
		c-0.334,0-0.702,0.057-1.058,0.155c-0.651,0.182-1.331-0.188-1.531-0.833c-0.204-0.652,0.153-1.345,0.8-1.56
		c0.709-0.235,1.576-0.4,2.534-0.4c2.898,0,4.282,1.602,4.282,3.423C18.052,9.37,17.086,10.468,16.251,11.389z"/>
</g>
</svg>
