<?xml version="1.0" encoding="utf-8"?>
<!-- Generator: Adobe Illustrator 16.0.0, SVG Export Plug-In . SVG Version: 6.00 Build 0)  -->
<!DOCTYPE svg PUBLIC "-//W3C//DTD SVG 1.1//EN" "http://www.w3.org/Graphics/SVG/1.1/DTD/svg11.dtd">
<svg version="1.1" id="Layer_1" xmlns="http://www.w3.org/2000/svg" xmlns:xlink="http://www.w3.org/1999/xlink" x="0px" y="0px"
	 width="100px" height="100px" viewBox="0 0 100 100" enable-background="new 0 0 100 100" xml:space="preserve">
<path fill="#D58500" d="M71.731,26.108H28.23c-1.852,0-3.322,1.423-3.322,3.273V65.27c0,1.852,1.471,3.303,3.322,3.303h11.35
	c0.926,0,1.609,0.808,1.609,1.732v6.576c0,1.539,0.919,2.228,1.795,2.228c0.514,0,1.057-0.215,1.582-0.641l10.459-8.472
	c0.92-0.744,2.773-1.424,3.957-1.424h12.749c1.851,0,3.362-1.451,3.362-3.303V29.382C75.094,27.531,73.582,26.108,71.731,26.108z
	 M54.2,41.69l-4.385,15.2c-0.238,0.898-0.357,1.495-0.357,1.788c0,0.147,0.063,0.294,0.192,0.44
	c0.129,0.147,0.266,0.221,0.413,0.221c0.257,0,0.504-0.11,0.743-0.33c0.635-0.516,1.373-1.415,2.218-2.701
	c0.058-0.088,0.251-0.266,0.362-0.165l0.45,0.257c0.111,0.097,0.042,0.235-0.004,0.314c-2.198,3.731-4.528,5.597-6.989,5.597
	c-0.954,0-1.716-0.271-2.284-0.812s-0.853-1.225-0.853-2.051c0-0.55,0.127-1.247,0.385-2.091l3.082-10.595
	c0.293-1.009,0.44-1.771,0.44-2.284c0-0.33-0.143-0.623-0.427-0.881c-0.285-0.257-0.665-0.385-1.143-0.385
	c-0.096,0-0.198,0.001-0.305,0.004c-0.154,0.005-0.445-0.118-0.396-0.273c0.042-0.131,0.085-0.271,0.104-0.346
	c0.085-0.348,0.875-0.367,0.875-0.367l6.131-0.988c0,0,0.489-0.094,0.837-0.094c0.266,0,0.52,0.002,0.692,0
	C54.453,41.144,54.2,41.69,54.2,41.69z M55.292,36.513c-0.643,0.633-1.413,0.949-2.312,0.949c-0.881,0-1.637-0.316-2.27-0.949
	c-0.634-0.633-0.95-1.398-0.95-2.298c0-0.898,0.312-1.669,0.936-2.312s1.385-0.963,2.284-0.963c0.917,0,1.692,0.32,2.325,0.963
	s0.949,1.413,0.949,2.312C56.255,35.114,55.934,35.88,55.292,36.513z"/>
</svg>
