<?xml version="1.0" encoding="utf-8"?>
<!-- Generator: Adobe Illustrator 16.0.0, SVG Export Plug-In . SVG Version: 6.00 Build 0)  -->
<!DOCTYPE svg PUBLIC "-//W3C//DTD SVG 1.1//EN" "http://www.w3.org/Graphics/SVG/1.1/DTD/svg11.dtd">
<svg version="1.1" id="Layer_1" xmlns="http://www.w3.org/2000/svg" xmlns:xlink="http://www.w3.org/1999/xlink" x="0px" y="0px"
	 width="100px" height="100px" viewBox="0 0 100 100" enable-background="new 0 0 100 100" xml:space="preserve">
<g>
	<g>
		<path fill="#D58500" d="M27.782,77.974c0.809,0.655,1.805,0.919,2.762,0.817c0.958-0.1,1.878-0.565,2.532-1.374l11.323-13.985
			c3.482,1.868,7.439,2.656,11.457,2.233c5.286-0.558,10.04-3.139,13.388-7.271c6.904-8.529,5.582-21.087-2.946-27.994
			c-4.134-3.344-9.319-4.88-14.608-4.324c-5.287,0.556-10.041,3.139-13.386,7.27c-3.345,4.132-4.881,9.32-4.325,14.607
			c0.423,4.017,2.017,7.723,4.569,10.741L27.226,72.681C25.917,74.296,26.166,76.665,27.782,77.974z M40.766,47.239
			c-0.365-3.474,0.645-6.883,2.843-9.598c2.199-2.715,5.322-4.412,8.796-4.777c3.475-0.366,6.882,0.643,9.599,2.841
			c5.604,4.537,6.474,12.79,1.936,18.394c-2.199,2.716-5.321,4.411-8.797,4.778c-3.475,0.364-6.882-0.645-9.598-2.842
			C42.829,53.837,41.132,50.713,40.766,47.239z"/>
		<path fill="#D58500" d="M45.444,39.459c-1.823,2.371-2.656,5.297-2.346,8.238c0.12,1.141,1.142,1.969,2.283,1.849
			c1.141-0.12,1.968-1.143,1.848-2.284c-0.197-1.877,0.339-3.749,1.509-5.271c0.699-0.91,0.529-2.213-0.38-2.914
			C47.448,38.379,46.145,38.55,45.444,39.459z"/>
		<path fill="#D58500" d="M49.626,38.157c0.333,0.914,1.243,1.451,2.167,1.354c0.165-0.017,0.332-0.056,0.497-0.116
			c0.622-0.228,1.276-0.378,1.943-0.449c1.141-0.12,1.969-1.142,1.848-2.284c-0.119-1.14-1.141-1.967-2.282-1.847
			c-1.007,0.106-1.993,0.333-2.935,0.678C49.788,35.887,49.232,37.079,49.626,38.157z"/>
	</g>
</g>
</svg>
