<?xml version="1.0" encoding="utf-8"?>
<!-- Generator: Adobe Illustrator 16.0.0, SVG Export Plug-In . SVG Version: 6.00 Build 0)  -->
<!DOCTYPE svg PUBLIC "-//W3C//DTD SVG 1.1//EN" "http://www.w3.org/Graphics/SVG/1.1/DTD/svg11.dtd">
<svg version="1.1" id="Layer_1" xmlns="http://www.w3.org/2000/svg" xmlns:xlink="http://www.w3.org/1999/xlink" x="0px" y="0px"
	 width="19.843px" height="11.613px" viewBox="0 0 19.843 11.613" enable-background="new 0 0 19.843 11.613" xml:space="preserve">
<path fill="#009BDB" d="M19.843,1.065c0,0.588-0.477,1.065-1.066,1.065H1.065C0.477,2.131,0,1.654,0,1.065l0,0
	C0,0.478,0.477,0,1.065,0h17.711C19.366,0,19.843,0.478,19.843,1.065L19.843,1.065z"/>
<path fill="#009BDB" d="M19.843,5.899c0,0.589-0.477,1.065-1.066,1.065H1.065C0.477,6.965,0,6.488,0,5.899l0,0
	c0-0.588,0.477-1.065,1.065-1.065h17.711C19.366,4.834,19.843,5.312,19.843,5.899L19.843,5.899z"/>
<path fill="#009BDB" d="M19.843,10.547c0,0.588-0.477,1.065-1.066,1.065H1.065C0.477,11.613,0,11.136,0,10.547l0,0
	c0-0.588,0.477-1.065,1.065-1.065h17.711C19.366,9.482,19.843,9.959,19.843,10.547L19.843,10.547z"/>
</svg>
