<?xml version="1.0" encoding="utf-8"?>
<!-- Generator: Adobe Illustrator 16.0.0, SVG Export Plug-In . SVG Version: 6.00 Build 0)  -->
<!DOCTYPE svg PUBLIC "-//W3C//DTD SVG 1.1//EN" "http://www.w3.org/Graphics/SVG/1.1/DTD/svg11.dtd">
<svg version="1.1" id="Layer_1" xmlns="http://www.w3.org/2000/svg" xmlns:xlink="http://www.w3.org/1999/xlink" x="0px" y="0px"
	 width="28.347px" height="16.589px" viewBox="0 0 28.347 16.589" enable-background="new 0 0 28.347 16.589" xml:space="preserve">
<path fill="#009BDB" d="M28.347,1.522c0,0.84-0.682,1.522-1.522,1.522H1.522C0.682,3.044,0,2.362,0,1.522l0,0
	C0,0.682,0.682,0,1.522,0h25.302C27.665,0,28.347,0.682,28.347,1.522L28.347,1.522z"/>
<path fill="#009BDB" d="M28.347,8.428c0,0.841-0.682,1.522-1.522,1.522H1.522C0.682,9.95,0,9.269,0,8.428l0,0
	c0-0.84,0.682-1.522,1.522-1.522h25.302C27.665,6.906,28.347,7.587,28.347,8.428L28.347,8.428z"/>
<path fill="#009BDB" d="M28.347,15.067c0,0.841-0.682,1.522-1.522,1.522H1.522C0.682,16.589,0,15.908,0,15.067l0,0
	c0-0.84,0.682-1.522,1.522-1.522h25.302C27.665,13.545,28.347,14.227,28.347,15.067L28.347,15.067z"/>
</svg>
