<?xml version="1.0" encoding="utf-8"?>
<!-- Generator: Adobe Illustrator 16.0.0, SVG Export Plug-In . SVG Version: 6.00 Build 0)  -->
<!DOCTYPE svg PUBLIC "-//W3C//DTD SVG 1.1//EN" "http://www.w3.org/Graphics/SVG/1.1/DTD/svg11.dtd">
<svg version="1.1" id="Layer_1" xmlns="http://www.w3.org/2000/svg" xmlns:xlink="http://www.w3.org/1999/xlink" x="0px" y="0px"
	 width="12px" height="12px" viewBox="0 0 12 12" enable-background="new 0 0 12 12" xml:space="preserve">
<g>
	<path d="M11.841,3.062l-1.664,1.924C9.516,4.415,8.691,3.747,8.738,3.344C8.695,3.327,8.655,3.309,8.614,3.289
		C8.598,3.316,8.577,3.343,8.557,3.368L6.036,6.283c0.06,0.324-0.024,0.673-0.256,0.942l-3.639,4.208
		c-0.406,0.473-1.121,0.524-1.592,0.116c-0.472-0.408-0.523-1.12-0.116-1.593l3.639-4.208c0.232-0.269,0.564-0.402,0.894-0.389
		l2.521-2.915c0.037-0.043,0.079-0.078,0.121-0.111L7.602,2.31C7.593,2.286,7.585,2.269,7.575,2.248
		c-0.006-0.015-0.014-0.03-0.021-0.046C7.545,2.185,7.538,2.167,7.528,2.15c-0.013-0.03-0.03-0.062-0.05-0.094L7.426,1.964
		l-0.061-0.09C7.339,1.832,7.311,1.796,7.279,1.755C7.262,1.733,7.244,1.71,7.227,1.687C7.21,1.668,7.194,1.651,7.178,1.632
		c-0.04-0.045-0.077-0.089-0.117-0.126L7.033,1.479C6.98,1.43,6.927,1.377,6.868,1.335c-0.021-0.014-0.036-0.026-0.05-0.038
		C6.797,1.28,6.777,1.264,6.755,1.249L6.638,1.178C6.636,1.175,6.632,1.173,6.63,1.171C6.583,1.139,6.528,1.113,6.469,1.085
		C6.445,1.075,6.42,1.064,6.399,1.052c-0.05-0.027-0.101-0.043-0.153-0.06c-0.027-0.009-0.055-0.017-0.08-0.026
		C6.149,0.962,6.134,0.956,6.119,0.95c-0.017-0.006-0.034-0.012-0.05-0.015L5.944,0.909c-0.022-0.005-0.052-0.011-0.08-0.016
		c-0.04-0.009-0.078-0.017-0.105-0.02L5.432,0.851C5.384,0.847,5.34,0.828,5.306,0.798C5.269,0.766,5.242,0.72,5.233,0.667
		C5.22,0.566,5.277,0.47,5.371,0.434L5.684,0.32c0.055-0.021,0.114-0.034,0.168-0.046C5.877,0.267,5.904,0.262,5.93,0.255
		l0.138-0.032c0.043-0.01,0.085-0.015,0.121-0.017c0.014-0.002,0.029-0.003,0.044-0.005c0.036-0.003,0.063-0.007,0.089-0.01
		c0.083-0.009,0.174-0.02,0.272-0.014h0.063C6.751,0.18,6.859,0.18,6.971,0.198L7.145,0.22c0.055,0.01,0.1,0.021,0.146,0.031
		l0.057,0.013C7.473,0.289,7.594,0.33,7.712,0.369l0.017,0.006C7.829,0.409,7.923,0.45,8.011,0.49l0.075,0.032
		C8.09,0.524,8.094,0.528,8.1,0.53c0.028,0.015,0.058,0.03,0.088,0.044c0.078,0.041,0.157,0.082,0.233,0.129L8.547,0.78
		c0.004,0.002,0.016,0.009,0.018,0.012l0.127,0.085c0.032,0.022,0.063,0.046,0.093,0.068c0.215,0.02,0.428,0.103,0.604,0.256
		L9.66,1.436c0.124,0.108,0.244,0.264,0.348,0.44C10.397,1.771,10.979,2.318,11.841,3.062z"/>
</g>
</svg>
