<?xml version="1.0" encoding="utf-8"?>
<!-- Generator: Adobe Illustrator 16.0.0, SVG Export Plug-In . SVG Version: 6.00 Build 0)  -->
<!DOCTYPE svg PUBLIC "-//W3C//DTD SVG 1.1//EN" "http://www.w3.org/Graphics/SVG/1.1/DTD/svg11.dtd">
<svg version="1.1" id="Layer_1" xmlns="http://www.w3.org/2000/svg" xmlns:xlink="http://www.w3.org/1999/xlink" x="0px" y="0px"
	 width="171.063px" height="171.061px" viewBox="0 0 171.063 171.061" enable-background="new 0 0 171.063 171.061"
	 xml:space="preserve">
<g>
	<path fill="#99989D" d="M94.263,87.142c-1.479,0.056-2.438,0.098-2.885,0.125c-1.492,0.125-2.343,0.3-2.551,0.523
		c-0.308,0.348-0.482,1.889-0.523,4.621l0.396,0.502l5.103,0.271l-0.188,1.401l-5.415,0.377v0.438
		c-0.015,2.3,0.118,3.611,0.397,3.932c0.223,0.265,2.111,0.384,5.666,0.355l-0.293,1.569c-3.135,0.264-5.485,0.396-7.047,0.396
		c-0.864,0-1.338-0.057-1.421-0.167c-0.293-0.363-0.44-3.834-0.44-10.414c0-3.235,0.147-4.998,0.44-5.292
		c0.292-0.292,2.745-0.432,7.36-0.418l1.799,0.021L94.263,87.142z"/>
	<path fill="#99989D" d="M99.806,88.898l-0.357,2.593c0.111,0.167,1.144,0.663,3.097,1.485c1.895,0.794,2.976,1.478,3.24,2.05
		c0.111,0.195,0.167,0.487,0.167,0.878c0,0.376-0.097,1.081-0.291,2.112c-0.211,1.115-0.388,1.788-0.533,2.018
		c-0.147,0.229-0.374,0.576-0.681,1.035c-1.129,0.349-2.53,0.522-4.203,0.522c-1.255,0-2.378-0.075-3.367-0.229l-0.168-2.154
		c0.851,0.293,1.806,0.439,2.865,0.439c0.53,0,1.094-0.063,1.694-0.188c0.725-0.153,1.24-0.354,1.547-0.606
		c0.098-0.083,0.147-0.299,0.147-0.647c0-0.544-0.091-1.249-0.272-2.112c-0.251-0.237-1.234-0.718-2.948-1.442
		c-1.604-0.67-2.51-1.186-2.72-1.548c-0.208-0.363-0.313-1.388-0.313-3.074c0-0.865,0.028-1.401,0.083-1.61
		c0.085-0.293,0.357-0.739,0.816-1.338c0.21-0.279,1.046-0.419,2.51-0.419c1.506,0,3.249,0.112,5.229,0.334l-0.44,1.632h-0.125
		c-0.265,0-0.673-0.014-1.223-0.042c-0.551-0.027-0.966-0.042-1.244-0.042C101.073,88.542,100.238,88.662,99.806,88.898"/>
	<path fill="#99989D" d="M117.183,88.96c-0.963-0.166-1.835-0.25-2.613-0.25c-1.032,0-1.834,0.14-2.405,0.418
		c-0.936,0.46-1.437,1.081-1.507,1.861c-0.041,0.599-0.063,1.24-0.063,1.924c0,2.468,0.202,4.336,0.607,5.604
		c0.152,0.445,0.543,0.802,1.17,1.066c0.503,0.208,1.032,0.313,1.59,0.313c0.432,0,0.983-0.05,1.652-0.146
		c0.906-0.125,1.456-0.201,1.651-0.229l-0.46,1.673l-3.555,0.502c-0.461,0-1.15-0.104-2.07-0.314
		c-1.032-0.25-1.651-0.487-1.861-0.711c-0.543-0.627-1.004-1.923-1.38-3.89c-0.307-1.63-0.46-3.024-0.46-4.182
		c0-0.404,0.119-1.053,0.355-1.944c0.236-0.894,0.445-1.534,0.627-1.925c0.11-0.224,0.439-0.533,0.983-0.931
		c0.543-0.397,0.947-0.638,1.212-0.721c0.571-0.182,1.456-0.272,2.656-0.272c2.049,0,3.549,0.16,4.496,0.48L117.183,88.96z"/>
	<path fill="#99989D" d="M124.752,101.592c-1.798,0-2.9-0.16-3.303-0.481c-1.298-1.006-2.161-2.549-2.595-4.629
		c-0.25-1.242-0.376-3.064-0.376-5.466c0-0.25,0.008-0.391,0.021-0.418c0.376-1.563,1.121-2.66,2.238-3.288
		c0.934-0.545,2.258-0.816,3.973-0.816c1.979,0,3.429,0.335,4.35,1.005c0.626,0.447,1.053,1.075,1.274,1.885
		c0.168,0.559,0.252,1.333,0.252,2.324c0,0.782-0.042,1.731-0.126,2.848c-0.056,0.741-0.37,1.815-0.94,3.226
		c-0.628,1.507-1.193,2.442-1.694,2.806c-0.167,0.125-0.669,0.325-1.506,0.597C125.485,101.455,124.962,101.592,124.752,101.592
		 M123.372,88.772c-0.265,0-0.632,0.231-1.099,0.69c-0.467,0.461-0.713,0.837-0.741,1.13c-0.099,1.06-0.146,2.467-0.146,4.225
		c0,1.771,0.424,3.108,1.274,4.015c0.223,0.237,0.941,0.355,2.153,0.355c0.713,0,1.221-0.063,1.527-0.188
		c0.236-0.097,0.516-0.864,0.836-2.3c0.223-1.046,0.376-1.91,0.461-2.594c0.097-0.738,0.146-1.414,0.146-2.027
		c0-1.646-0.313-2.615-0.941-2.907c-0.153-0.084-0.71-0.175-1.673-0.272C124.292,88.815,123.693,88.772,123.372,88.772"/>
	<path fill="#99989D" d="M133.137,101.738c0.085-0.863,0.127-2.739,0.127-5.625c0-1.143-0.029-2.669-0.084-4.579
		c-0.057-2.272-0.091-3.807-0.105-4.602l3.765-0.292c-0.39,2.384-0.738,6.545-1.046,12.484l5.271,0.355l-0.293,1.692
		L133.137,101.738z"/>
	<path fill="#99989D" d="M143.97,101.319l-2.384,0.272c0.529-3.462,0.983-5.981,1.359-7.56c0.655-2.791,1.513-5.193,2.572-7.203
		l5.019-0.314c1.087,3.78,1.839,6.748,2.259,8.904c0.098,0.462,0.216,1.147,0.355,2.058l0.377,4.115l-2.907-0.297l-0.293-4.303
		l-3.849,0.48l-1.547-0.398L143.97,101.319z M149.972,94.377c0-0.404-0.202-1.35-0.606-2.834s-0.711-2.394-0.921-2.729l-1.65,0.146
		c-0.544,1.632-0.921,3.032-1.13,4.204c-0.028,0.236-0.07,0.6-0.126,1.087c-0.056,0.293-0.124,0.726-0.209,1.297l4.581-0.418
		C149.951,95.13,149.972,94.879,149.972,94.377"/>
	<path fill="#99989D" d="M158.461,101.532c-0.376,0-1.091-0.014-2.143-0.043c-0.043-0.967-0.095-2.421-0.16-4.361
		c-0.007-0.675-0.03-1.684-0.074-3.028l2.73-0.159c0.191-0.008,0.595,0.067,1.21,0.224c0.614,0.156,0.972,0.292,1.071,0.405
		c0.036,0.049,0.086,0.121,0.149,0.213c0.319,0.483,0.479,0.985,0.479,1.504c0,2.41-0.405,3.98-1.215,4.713
		c-0.193,0.17-0.517,0.306-0.971,0.405C159.162,101.49,158.803,101.532,158.461,101.532 M160.147,95.615l-0.971-0.565l-1.386-0.011
		c-0.064,1.422-0.096,2.58-0.096,3.477l0.011,2.164c0.143,0.015,0.288,0.021,0.437,0.021c0.384,0,0.917-0.163,1.6-0.49
		c0.292-0.811,0.466-2.101,0.521-3.871C160.242,96.168,160.203,95.928,160.147,95.615"/>
	<path fill="#99989D" d="M167.174,98.355l-2.441,0.171v0.288c-0.008,0.966,0.049,1.521,0.17,1.662c0.12,0.143,0.983,0.2,2.591,0.171
		l-0.149,0.758c-1.351,0.121-2.406,0.181-3.166,0.181c-0.463,0-0.715-0.031-0.757-0.096c-0.143-0.185-0.214-1.787-0.214-4.809
		c0-1.479,0.069-2.289,0.207-2.432c0.14-0.142,1.265-0.214,3.376-0.214c0.34,0,0.636,0.004,0.885,0.012l-0.203,0.917
		c-1.479,0-2.303,0.093-2.474,0.276c-0.135,0.15-0.209,0.836-0.224,2.059l0.16,0.203l2.346,0.116L167.174,98.355z"/>
	<path fill="#80BAD4" d="M156.707,130.385l-5.205,0.566c0.307-3.872,0.459-7.933,0.459-12.181l-0.176-12.5l6.339-0.391
		c0.92-0.07,2.054-0.022,3.4,0.143c1.154,0.143,2.3,0.295,3.434,0.46l2.337,2.054c0.235,1.368,0.483,2.727,0.743,4.072
		c0.309,1.749,0.426,3.068,0.354,3.967v0.176c-0.685,0.779-1.37,1.57-2.054,2.374c-0.945,1.062-1.713,1.675-2.301,1.84
		c1.179,2.078,3.682,5.537,7.507,10.375l-3.329,0.959c-0.637-0.616-2.455-2.563-5.454-5.844c-3.092-3.376-4.698-5.205-4.815-5.49
		l-0.566-1.628c1.911-0.52,3.058-0.872,3.435-1.063c0.71-0.354,1.629-1.156,2.764-2.407l-0.744-6.657l-6.445,0.39
		c-0.07,3.14-0.106,5.902-0.106,8.286C156.282,122.606,156.424,126.774,156.707,130.385"/>
	<path fill="#99989D" d="M168.216,132.749c-0.115,0-0.229-0.043-0.314-0.127c-0.651-0.628-2.492-2.602-5.474-5.863
		c-4.694-5.125-4.827-5.447-4.898-5.621l-0.576-1.652c-0.042-0.117-0.031-0.248,0.027-0.358c0.058-0.111,0.16-0.192,0.281-0.226
		c2.34-0.638,3.114-0.912,3.35-1.032c0.628-0.311,1.465-1.036,2.494-2.156l-0.674-6.028l-5.601,0.34
		c-0.064,2.974-0.098,5.617-0.098,7.86c0,4.683,0.143,8.876,0.424,12.465c0.019,0.243-0.159,0.458-0.401,0.483l-5.205,0.568
		c-0.133,0.014-0.268-0.032-0.363-0.125c-0.098-0.095-0.147-0.226-0.137-0.361c0.306-3.843,0.459-7.929,0.459-12.145l-0.177-12.494
		c-0.004-0.241,0.184-0.442,0.424-0.456l6.339-0.392c0.926-0.07,2.113-0.023,3.482,0.145c1.166,0.145,2.326,0.299,3.446,0.462
		c0.085,0.013,0.166,0.051,0.231,0.107l2.337,2.055c0.078,0.068,0.13,0.161,0.147,0.263c0.232,1.35,0.482,2.716,0.742,4.063
		c0.315,1.798,0.435,3.128,0.362,4.069v0.158c0,0.111-0.04,0.218-0.113,0.3c-0.681,0.774-1.37,1.57-2.049,2.368
		c-0.77,0.864-1.429,1.445-1.996,1.76c1.253,2.087,3.677,5.406,7.212,9.881c0.094,0.119,0.122,0.276,0.076,0.418
		c-0.046,0.144-0.161,0.256-0.306,0.297l-3.329,0.957C168.299,132.744,168.258,132.749,168.216,132.749 M158.365,120.788
		c0.12,0.208,0.91,1.189,4.731,5.362c2.72,2.978,4.482,4.87,5.249,5.64l2.429-0.698c-3.591-4.563-5.988-7.893-7.128-9.903
		c-0.069-0.121-0.078-0.267-0.025-0.396c0.054-0.128,0.162-0.225,0.297-0.263c0.344-0.095,0.985-0.469,2.084-1.705
		c0.639-0.749,1.293-1.505,1.94-2.242v-0.007c0-0.014,0-0.024,0.001-0.036c0.067-0.854-0.05-2.148-0.35-3.852
		c-0.249-1.294-0.49-2.611-0.716-3.916l-2.116-1.86c-1.071-0.155-2.179-0.304-3.293-0.44c-1.307-0.161-2.424-0.208-3.311-0.139
		l-5.915,0.362l0.172,12.069c0,4.048-0.141,7.973-0.42,11.68l4.228-0.462c-0.259-3.513-0.393-7.58-0.393-12.097
		c0-2.354,0.036-5.146,0.106-8.296c0.005-0.234,0.19-0.428,0.425-0.441l6.446-0.39c0.24-0.016,0.45,0.161,0.477,0.4l0.743,6.658
		c0.015,0.129-0.028,0.259-0.113,0.354c-1.186,1.307-2.132,2.126-2.896,2.508c-0.24,0.12-0.821,0.352-3.05,0.967L158.365,120.788z"
		/>
	<path fill="#D58400" d="M95.469,86.84c-1.479,0.057-2.439,0.098-2.886,0.126c-1.493,0.125-2.343,0.3-2.552,0.522
		c-0.307,0.349-0.48,1.889-0.522,4.622l0.397,0.501l5.103,0.272l-0.188,1.4l-5.416,0.377V95.1c-0.015,2.301,0.118,3.611,0.396,3.932
		c0.223,0.266,2.113,0.384,5.668,0.355l-0.293,1.568c-3.137,0.266-5.485,0.398-7.047,0.398c-0.866,0-1.339-0.057-1.423-0.168
		c-0.292-0.362-0.439-3.834-0.439-10.414c0-3.234,0.147-4.998,0.439-5.291c0.293-0.293,2.746-0.433,7.361-0.418l1.798,0.021
		L95.469,86.84z"/>
	<path fill="#D58400" d="M101.01,88.597l-0.355,2.593c0.111,0.167,1.142,0.663,3.095,1.485c1.896,0.793,2.976,1.477,3.24,2.049
		c0.113,0.196,0.168,0.487,0.168,0.878c0,0.377-0.098,1.081-0.292,2.113c-0.209,1.114-0.387,1.788-0.533,2.017
		c-0.146,0.23-0.373,0.576-0.68,1.035c-1.13,0.349-2.531,0.523-4.204,0.523c-1.254,0-2.376-0.076-3.365-0.23l-0.168-2.153
		c0.851,0.292,1.805,0.439,2.864,0.439c0.53,0,1.094-0.063,1.694-0.188c0.725-0.153,1.241-0.355,1.548-0.607
		c0.098-0.083,0.146-0.298,0.146-0.647c0-0.543-0.091-1.248-0.272-2.112c-0.249-0.237-1.233-0.718-2.947-1.442
		c-1.604-0.669-2.511-1.186-2.719-1.548s-0.313-1.387-0.313-3.074c0-0.864,0.027-1.4,0.083-1.609
		c0.085-0.294,0.355-0.739,0.814-1.339c0.211-0.278,1.048-0.419,2.511-0.419c1.507,0,3.248,0.113,5.228,0.335l-0.438,1.632h-0.125
		c-0.267,0-0.673-0.014-1.225-0.043c-0.551-0.027-0.965-0.041-1.244-0.041C102.279,88.241,101.443,88.361,101.01,88.597"/>
	<path fill="#D58400" d="M118.388,88.659c-0.962-0.167-1.834-0.251-2.614-0.251c-1.032,0-1.834,0.139-2.405,0.419
		c-0.934,0.459-1.437,1.081-1.505,1.861c-0.042,0.599-0.063,1.24-0.063,1.923c0,2.468,0.202,4.337,0.605,5.605
		c0.153,0.445,0.544,0.802,1.172,1.065c0.501,0.209,1.032,0.313,1.588,0.313c0.433,0,0.983-0.049,1.652-0.146
		c0.906-0.126,1.457-0.202,1.653-0.23l-0.461,1.673l-3.556,0.502c-0.459,0-1.149-0.104-2.07-0.313
		c-1.03-0.252-1.65-0.487-1.86-0.711c-0.544-0.628-1.004-1.924-1.38-3.89c-0.307-1.631-0.461-3.025-0.461-4.182
		c0-0.405,0.119-1.054,0.357-1.946c0.235-0.892,0.444-1.533,0.626-1.924c0.111-0.223,0.439-0.533,0.983-0.931
		s0.946-0.638,1.213-0.721c0.571-0.182,1.456-0.272,2.656-0.272c2.048,0,3.547,0.161,4.494,0.481L118.388,88.659z"/>
	<path fill="#D58400" d="M125.958,101.29c-1.799,0-2.9-0.16-3.305-0.48c-1.297-1.006-2.161-2.549-2.593-4.63
		c-0.251-1.241-0.376-3.063-0.376-5.465c0-0.251,0.006-0.392,0.021-0.419c0.376-1.563,1.121-2.659,2.237-3.288
		c0.934-0.544,2.259-0.816,3.974-0.816c1.979,0,3.43,0.335,4.349,1.005c0.628,0.447,1.053,1.076,1.276,1.885
		c0.168,0.559,0.251,1.333,0.251,2.325c0,0.782-0.042,1.731-0.125,2.848c-0.056,0.74-0.37,1.815-0.941,3.226
		c-0.627,1.507-1.192,2.442-1.694,2.806c-0.168,0.125-0.669,0.325-1.506,0.597C126.69,101.155,126.166,101.29,125.958,101.29
		 M124.577,88.471c-0.265,0-0.631,0.23-1.099,0.69c-0.466,0.46-0.714,0.837-0.742,1.13c-0.097,1.06-0.146,2.467-0.146,4.224
		c0,1.771,0.425,3.109,1.275,4.015c0.224,0.237,0.94,0.355,2.153,0.355c0.712,0,1.22-0.063,1.528-0.188
		c0.235-0.098,0.514-0.864,0.835-2.301c0.224-1.045,0.377-1.91,0.462-2.593c0.096-0.739,0.146-1.415,0.146-2.028
		c0-1.645-0.313-2.614-0.941-2.907c-0.153-0.083-0.711-0.175-1.674-0.271C125.498,88.514,124.898,88.471,124.577,88.471"/>
	<path fill="#D58400" d="M134.343,101.437c0.083-0.864,0.126-2.74,0.126-5.626c0-1.143-0.028-2.669-0.085-4.579
		c-0.056-2.272-0.089-3.807-0.104-4.601l3.765-0.293c-0.391,2.385-0.74,6.546-1.047,12.484l5.271,0.355l-0.293,1.693
		L134.343,101.437z"/>
	<path fill="#D58400" d="M145.175,101.017l-2.384,0.273c0.53-3.463,0.983-5.981,1.359-7.56c0.656-2.792,1.513-5.193,2.573-7.204
		l5.018-0.314c1.088,3.78,1.84,6.749,2.259,8.904c0.097,0.463,0.216,1.147,0.355,2.058l0.377,4.116l-2.907-0.297l-0.294-4.304
		l-3.848,0.48l-1.548-0.397L145.175,101.017z M151.177,94.075c0-0.404-0.203-1.349-0.607-2.833
		c-0.403-1.485-0.711-2.395-0.919-2.729l-1.652,0.146c-0.543,1.632-0.919,3.031-1.129,4.203c-0.028,0.237-0.069,0.6-0.126,1.088
		c-0.056,0.293-0.125,0.725-0.209,1.296l4.58-0.417C151.157,94.829,151.177,94.577,151.177,94.075"/>
	<path fill="#D58400" d="M159.667,101.231c-0.377,0-1.091-0.014-2.144-0.042c-0.042-0.967-0.096-2.421-0.159-4.361
		c-0.008-0.676-0.032-1.685-0.075-3.028l2.729-0.16c0.192-0.007,0.595,0.068,1.21,0.225s0.972,0.292,1.071,0.404
		c0.036,0.05,0.086,0.121,0.15,0.214c0.319,0.482,0.48,0.984,0.48,1.503c0,2.41-0.406,3.981-1.216,4.714
		c-0.192,0.17-0.516,0.305-0.971,0.405C160.367,101.189,160.009,101.231,159.667,101.231 M161.352,95.313l-0.97-0.564l-1.386-0.012
		c-0.064,1.423-0.096,2.581-0.096,3.477l0.01,2.165c0.142,0.015,0.288,0.021,0.438,0.021c0.384,0,0.917-0.164,1.599-0.491
		c0.291-0.811,0.465-2.101,0.522-3.87C161.448,95.867,161.409,95.626,161.352,95.313"/>
	<path fill="#D58400" d="M168.378,98.053l-2.44,0.171v0.289c-0.008,0.966,0.05,1.521,0.17,1.662c0.12,0.143,0.984,0.199,2.591,0.171
		l-0.148,0.758c-1.352,0.12-2.407,0.181-3.168,0.181c-0.461,0-0.713-0.032-0.757-0.096c-0.142-0.186-0.214-1.788-0.214-4.81
		c0-1.479,0.07-2.289,0.209-2.432c0.14-0.142,1.264-0.213,3.375-0.213c0.341,0,0.635,0.004,0.885,0.011l-0.202,0.917
		c-1.479,0-2.305,0.093-2.475,0.277c-0.134,0.149-0.21,0.836-0.224,2.058l0.16,0.203l2.346,0.117L168.378,98.053z"/>
	<path fill="#80BAD4" d="M13.131,131.035l-3.59,0.254L8.63,113.126c-0.022-1.216-0.084-3.169-0.189-5.855l5.98-0.504
		c-0.271,4.05-0.545,8.101-0.817,12.151C13.309,123.639,13.152,127.68,13.131,131.035"/>
	<path fill="#99989D" d="M9.541,131.741c-0.11,0-0.217-0.041-0.299-0.115c-0.091-0.079-0.146-0.192-0.152-0.314l-0.912-18.164
		c-0.023-1.244-0.087-3.21-0.189-5.859c-0.009-0.24,0.172-0.447,0.414-0.468l5.98-0.504c0.129-0.011,0.261,0.036,0.354,0.128
		c0.095,0.092,0.143,0.221,0.134,0.353l-0.818,12.151c-0.292,4.685-0.45,8.752-0.471,12.091c-0.001,0.237-0.184,0.432-0.419,0.449
		l-3.589,0.252C9.563,131.741,9.552,131.741,9.541,131.741 M8.908,107.685c0.093,2.438,0.152,4.265,0.172,5.433l0.889,17.688
		l2.712-0.19c0.031-3.275,0.188-7.217,0.47-11.726l0.782-11.628L8.908,107.685z"/>
	<path fill="#80BAD4" d="M39.71,130.101l-3.753,0.958c-2.549-7.995-5.371-14.321-8.463-18.98l-1.169,0.565
		c-0.402,5.052-0.65,11.107-0.743,18.166l-3.719,0.39c0-1.913-0.06-5.182-0.176-9.809c-0.096-4.319-0.142-7.601-0.142-9.844
		l0.496-4.711l6.728-0.708c2.383,4.109,3.871,6.692,4.461,7.756c1.582,3.021,2.751,5.772,3.507,8.251l-0.212-13.811l0.353-2.338
		l5.135-0.141C40.666,116.531,39.899,124.616,39.71,130.101"/>
	<path fill="#99989D" d="M21.863,131.652c-0.111,0-0.22-0.04-0.303-0.116c-0.094-0.085-0.149-0.208-0.149-0.336
		c0-1.885-0.059-5.181-0.176-9.797c-0.094-4.286-0.142-7.603-0.142-9.855c0-0.016,0.001-0.032,0.002-0.048l0.496-4.71
		c0.023-0.212,0.191-0.381,0.403-0.402l6.728-0.707c0.174-0.019,0.348,0.067,0.437,0.223c2.369,4.079,3.871,6.69,4.467,7.762
		c1.048,2.003,1.923,3.903,2.616,5.681l-0.17-11.013c0-0.026,0.001-0.052,0.005-0.076l0.353-2.337
		c0.033-0.217,0.216-0.378,0.435-0.384L42,105.393c0.134-0.01,0.258,0.052,0.347,0.148c0.089,0.099,0.13,0.23,0.114,0.361
		c-1.337,10.617-2.111,18.765-2.299,24.214c-0.006,0.2-0.145,0.372-0.339,0.422l-3.753,0.958c-0.231,0.059-0.47-0.073-0.542-0.301
		c-2.464-7.727-5.22-13.961-8.193-18.539l-0.578,0.281c-0.387,4.975-0.63,10.986-0.722,17.878c-0.003,0.229-0.177,0.42-0.404,0.443
		l-3.719,0.391C21.893,131.651,21.878,131.652,21.863,131.652 M21.996,111.57c0,2.247,0.048,5.548,0.142,9.812
		c0.109,4.302,0.167,7.36,0.175,9.317l2.822-0.297c0.097-6.862,0.345-12.847,0.739-17.793c0.013-0.159,0.108-0.3,0.253-0.371
		l1.168-0.566c0.205-0.099,0.449-0.032,0.574,0.157c3.051,4.596,5.872,10.881,8.387,18.686l3.014-0.768
		c0.205-5.381,0.954-13.26,2.228-23.435l-4.232,0.117l-0.29,1.926l0.211,13.772c0.004,0.226-0.16,0.42-0.381,0.453
		c-0.223,0.036-0.438-0.099-0.503-0.313c-0.744-2.442-1.914-5.193-3.476-8.174c-0.574-1.035-2.024-3.556-4.305-7.485l-6.073,0.64
		L21.996,111.57z"/>
	<path fill="#80BAD4" d="M56.991,130.49l-6.87,0.85c-1.205-4.201-3.082-12.404-5.63-24.609l4.638-0.603
		c0.401,0.851,0.944,2.16,1.629,3.932c0.07,0.968,0.176,2.219,0.319,3.753c0.329,3.235,0.554,5.276,0.673,6.126
		c0.306,2.337,0.72,4.332,1.238,5.984l1.701-0.957c0.59-2.642,1.475-6.597,2.656-11.861c0.235-1.205,0.684-2.88,1.345-5.028
		c0.33-0.448,0.792-1.145,1.381-2.09l4.568-0.425c-1.322,4.131-2.656,8.274-4.001,12.431
		C59.032,122.948,57.817,127.116,56.991,130.49"/>
	<path fill="#99989D" d="M50.12,131.793c-0.198,0-0.377-0.134-0.434-0.328c-1.203-4.2-3.101-12.491-5.638-24.643
		c-0.026-0.122,0.001-0.252,0.074-0.355c0.073-0.102,0.186-0.168,0.31-0.186l4.639-0.602c0.196-0.025,0.382,0.079,0.467,0.256
		c0.405,0.859,0.942,2.154,1.642,3.961c0.015,0.041,0.025,0.085,0.029,0.13c0.069,0.955,0.177,2.215,0.317,3.745
		c0.326,3.197,0.552,5.254,0.671,6.105c0.269,2.054,0.625,3.856,1.061,5.376l1.034-0.581c0.588-2.642,1.459-6.53,2.611-11.668
		c0.235-1.199,0.691-2.907,1.354-5.061c0.015-0.049,0.037-0.095,0.068-0.136c0.322-0.436,0.78-1.128,1.363-2.061
		c0.074-0.119,0.201-0.198,0.341-0.211l4.566-0.425c0.151-0.015,0.299,0.049,0.394,0.167c0.095,0.12,0.124,0.275,0.078,0.422
		c-1.34,4.189-2.687,8.371-4.001,12.43c-1.593,4.921-2.817,9.115-3.638,12.468c-0.045,0.182-0.197,0.319-0.384,0.341l-6.87,0.851
		C50.158,131.791,50.139,131.793,50.12,131.793 M45.033,107.115c2.411,11.523,4.232,19.499,5.417,23.729l6.176-0.764
		c0.825-3.323,2.03-7.434,3.581-12.229c1.247-3.846,2.522-7.806,3.793-11.774l-3.664,0.34c-0.519,0.825-0.925,1.438-1.237,1.866
		c-0.642,2.088-1.083,3.74-1.312,4.909c-1.182,5.276-2.068,9.23-2.657,11.873c-0.028,0.126-0.107,0.233-0.219,0.296l-1.701,0.956
		c-0.119,0.066-0.261,0.077-0.389,0.027c-0.127-0.05-0.224-0.155-0.265-0.285c-0.526-1.673-0.948-3.711-1.256-6.062
		c-0.119-0.859-0.347-2.926-0.674-6.139c-0.14-1.504-0.246-2.747-0.315-3.698c-0.595-1.533-1.082-2.721-1.454-3.542L45.033,107.115z
		"/>
	<path fill="#80BAD4" d="M80.149,120.399l-8.109,0.567v0.957c-0.024,3.21,0.165,5.051,0.566,5.521
		c0.401,0.474,3.269,0.663,8.605,0.568l-0.496,2.514c-4.486,0.401-7.991,0.602-10.517,0.602c-1.536,0-2.373-0.105-2.514-0.318
		c-0.473-0.614-0.708-5.938-0.708-15.972c0-4.908,0.23-7.599,0.69-8.073c0.46-0.472,4.197-0.707,11.208-0.707
		c1.133,0,2.112,0.011,2.94,0.035l-0.674,3.046c-4.91,0-7.648,0.308-8.215,0.922c-0.447,0.494-0.696,2.772-0.743,6.831l0.53,0.674
		l7.791,0.391L80.149,120.399z"/>
	<path fill="#99989D" d="M70.198,131.58c-2.307,0-2.694-0.237-2.879-0.505c-0.264-0.344-0.794-1.19-0.794-16.235
		c0-6.651,0.413-7.974,0.817-8.39c0.289-0.295,0.826-0.844,11.532-0.844c1.161,0,2.126,0.012,2.953,0.034
		c0.134,0.004,0.26,0.067,0.343,0.175c0.083,0.105,0.114,0.242,0.085,0.374l-0.672,3.045c-0.046,0.209-0.23,0.355-0.441,0.355
		c-6.469,0-7.667,0.542-7.884,0.776c-0.126,0.14-0.552,1.021-0.622,6.372l0.305,0.387l7.585,0.378
		c0.127,0.007,0.246,0.066,0.326,0.165s0.117,0.227,0.099,0.352l-0.354,2.445c-0.03,0.21-0.205,0.371-0.416,0.385l-7.689,0.537
		v0.536c-0.032,4.314,0.344,5.094,0.459,5.23c0.117,0.089,0.923,0.431,5.789,0.431c0.748,0,1.577-0.008,2.463-0.024
		c0.139-0.002,0.267,0.058,0.355,0.162c0.087,0.105,0.123,0.243,0.096,0.378l-0.495,2.514c-0.039,0.197-0.202,0.346-0.403,0.363
		C76.282,131.377,72.729,131.58,70.198,131.58 M68.031,130.509c0.119,0.049,0.574,0.167,2.167,0.167
		c2.441,0,5.852-0.191,10.14-0.568l0.321-1.635c-0.682,0.011-1.326,0.016-1.919,0.016c-5.842,0-6.255-0.488-6.479-0.751
		c-0.33-0.389-0.706-1.402-0.674-5.818v-0.954c0-0.236,0.184-0.434,0.42-0.451l7.746-0.54l0.231-1.592l-7.296-0.364
		c-0.13-0.007-0.25-0.069-0.331-0.172l-0.532-0.673c-0.064-0.081-0.098-0.182-0.097-0.286c0.064-5.547,0.494-6.726,0.861-7.131
		c0.454-0.49,1.797-1.048,8.188-1.068l0.476-2.156c-0.691-0.015-1.475-0.021-2.38-0.021c-9.092,0-10.651,0.409-10.899,0.583
		c-0.115,0.14-0.547,1.154-0.547,7.746C67.427,127.304,67.799,130.031,68.031,130.509"/>
	<path fill="#80BAD4" d="M104.051,130.101l-3.753,0.958c-2.549-7.995-5.371-14.321-8.465-18.98l-1.167,0.565
		c-0.402,5.052-0.651,11.107-0.744,18.166l-3.719,0.39c0-1.913-0.06-5.182-0.177-9.809c-0.095-4.319-0.142-7.601-0.142-9.844
		l0.497-4.711l6.728-0.708c2.385,4.109,3.872,6.692,4.462,7.756c1.583,3.021,2.75,5.772,3.506,8.251l-0.212-13.811l0.353-2.338
		l5.136-0.141C105.006,116.531,104.24,124.616,104.051,130.101"/>
	<path fill="#99989D" d="M86.203,131.652c-0.111,0-0.219-0.04-0.302-0.116c-0.096-0.085-0.149-0.208-0.149-0.336
		c0-1.903-0.058-5.107-0.177-9.797c-0.095-4.277-0.142-7.594-0.142-9.855c0-0.016,0.001-0.032,0.001-0.048l0.496-4.71
		c0.023-0.212,0.191-0.381,0.403-0.402l6.728-0.707c0.18-0.019,0.35,0.067,0.438,0.223c2.369,4.079,3.871,6.69,4.466,7.762
		c1.05,2.003,1.925,3.903,2.616,5.681l-0.168-11.013c-0.002-0.026,0.001-0.052,0.004-0.076l0.354-2.337
		c0.032-0.217,0.217-0.378,0.434-0.384l5.137-0.143c0.134-0.01,0.259,0.052,0.347,0.148c0.089,0.099,0.13,0.23,0.114,0.361
		c-1.338,10.615-2.111,18.762-2.3,24.214c-0.006,0.2-0.146,0.372-0.34,0.422l-3.753,0.958c-0.233,0.06-0.47-0.073-0.543-0.301
		c-2.463-7.727-5.219-13.961-8.192-18.539l-0.578,0.281c-0.388,4.977-0.631,10.989-0.722,17.878
		c-0.004,0.229-0.178,0.42-0.405,0.443l-3.719,0.391C86.235,131.651,86.218,131.652,86.203,131.652 M86.337,111.57
		c0,2.256,0.047,5.557,0.142,9.812c0.107,4.307,0.167,7.365,0.176,9.317l2.821-0.297c0.097-6.859,0.346-12.845,0.738-17.793
		c0.013-0.159,0.11-0.3,0.254-0.371l1.169-0.566c0.203-0.099,0.448-0.032,0.574,0.157c3.05,4.596,5.87,10.883,8.387,18.686
		l3.014-0.768c0.205-5.384,0.954-13.264,2.228-23.435l-4.231,0.117l-0.291,1.926l0.211,13.772c0.004,0.226-0.158,0.42-0.381,0.453
		c-0.223,0.036-0.438-0.099-0.502-0.313c-0.745-2.442-1.913-5.193-3.475-8.174c-0.574-1.035-2.024-3.556-4.306-7.485l-6.072,0.64
		L86.337,111.57z"/>
	<path fill="#80BAD4" d="M126.254,109.032l-5.844,1.133l-0.637,0.921c-0.142,4.343-0.39,10.859-0.743,19.547l-3.967,0.814
		c0.07-0.967,0.106-2.018,0.106-3.151c0-1.322-0.047-3.33-0.142-6.021s-0.141-4.703-0.141-6.037s-0.144-3.121-0.426-5.364
		l-0.956-0.568l-5.488-0.637l0.459-3.01c5.76-0.213,11.557-0.461,17.387-0.743L126.254,109.032z"/>
	<path fill="#99989D" d="M115.064,131.899c-0.108,0-0.215-0.039-0.299-0.112c-0.106-0.094-0.162-0.231-0.152-0.372
		c0.07-0.942,0.105-1.992,0.105-3.118c0-1.31-0.047-3.328-0.14-6.005c-0.095-2.67-0.144-4.706-0.144-6.053
		c0-1.262-0.132-2.973-0.394-5.088l-0.682-0.407l-5.395-0.624c-0.121-0.015-0.232-0.079-0.307-0.176
		c-0.074-0.098-0.106-0.221-0.088-0.342l0.46-3.011c0.032-0.215,0.214-0.376,0.43-0.383c5.717-0.212,11.564-0.461,17.382-0.743
		c0.229-0.015,0.441,0.161,0.471,0.395l0.39,3.117c0.029,0.235-0.128,0.453-0.361,0.498l-5.663,1.1l-0.456,0.66
		c-0.143,4.322-0.384,10.677-0.739,19.417c-0.009,0.208-0.157,0.383-0.361,0.424l-3.967,0.814
		C115.124,131.895,115.094,131.899,115.064,131.899 M108.535,109.275l5.022,0.583c0.063,0.008,0.125,0.028,0.179,0.06l0.957,0.568
		c0.118,0.071,0.199,0.193,0.217,0.332c0.284,2.255,0.429,4.078,0.429,5.421c0,1.337,0.047,3.362,0.142,6.021
		c0.094,2.688,0.141,4.718,0.141,6.037c0,0.919-0.022,1.785-0.067,2.589l3.04-0.624c0.352-8.645,0.589-14.924,0.729-19.189
		c0.003-0.088,0.03-0.172,0.081-0.242l0.637-0.921c0.067-0.096,0.17-0.163,0.285-0.186l5.428-1.054l-0.285-2.281
		c-5.556,0.269-11.137,0.507-16.601,0.709L108.535,109.275z"/>
	<path fill="#80BAD4" d="M137.763,131.059c-3.045,0-4.911-0.272-5.595-0.816c-2.194-1.7-3.66-4.314-4.392-7.837
		c-0.425-2.104-0.637-5.188-0.637-9.255c0-0.426,0.012-0.663,0.036-0.71c0.638-2.648,1.898-4.503,3.787-5.568
		c1.582-0.92,3.825-1.381,6.729-1.381c3.352,0,5.807,0.566,7.364,1.702c1.063,0.757,1.783,1.82,2.161,3.19
		c0.283,0.946,0.425,2.258,0.425,3.937c0,1.323-0.07,2.933-0.212,4.822c-0.095,1.253-0.627,3.073-1.594,5.462
		c-1.063,2.554-2.02,4.137-2.868,4.752c-0.283,0.211-1.133,0.549-2.55,1.009C139.002,130.828,138.117,131.059,137.763,131.059
		 M135.425,109.35c-0.447,0-1.067,0.39-1.858,1.169c-0.791,0.78-1.209,1.417-1.257,1.913c-0.166,1.793-0.248,4.179-0.248,7.153
		c0,2.998,0.72,5.264,2.16,6.798c0.377,0.402,1.594,0.603,3.647,0.603c1.203,0,2.066-0.106,2.585-0.318
		c0.4-0.166,0.872-1.463,1.416-3.896c0.377-1.771,0.637-3.233,0.778-4.391c0.167-1.251,0.25-2.396,0.25-3.436
		c0-2.785-0.532-4.427-1.594-4.921c-0.261-0.143-1.204-0.296-2.834-0.461C136.984,109.421,135.969,109.35,135.425,109.35"/>
	<path fill="#99989D" d="M137.763,131.509c-4.236,0-5.383-0.521-5.876-0.912c-2.269-1.761-3.804-4.486-4.553-8.1
		c-0.429-2.126-0.646-5.271-0.646-9.347c0-0.556,0.017-0.736,0.056-0.85c0.668-2.744,2.012-4.703,3.998-5.821
		c1.64-0.956,3.979-1.44,6.95-1.44c3.434,0,6.001,0.602,7.632,1.789c1.14,0.813,1.925,1.969,2.33,3.436
		c0.291,0.976,0.441,2.345,0.441,4.057c0,1.336-0.073,2.971-0.214,4.855c-0.1,1.313-0.632,3.144-1.625,5.599
		c-1.106,2.658-2.095,4.276-3.023,4.947c-0.203,0.152-0.707,0.434-2.674,1.073C138.597,131.435,138.024,131.509,137.763,131.509
		 M127.607,112.575c-0.004,0.042-0.016,0.176-0.016,0.575c0,4.018,0.213,7.101,0.629,9.166c0.705,3.395,2.126,5.941,4.225,7.568
		c0.341,0.271,1.48,0.721,5.318,0.721c0.173,0,0.73-0.087,2.517-0.67c1.852-0.601,2.307-0.859,2.418-0.941
		c0.541-0.393,1.446-1.497,2.723-4.563c0.944-2.33,1.468-4.123,1.559-5.322c0.141-1.864,0.213-3.476,0.213-4.789
		c0-1.625-0.137-2.905-0.407-3.807c-0.355-1.289-1.005-2.251-1.989-2.952c-1.475-1.075-3.863-1.619-7.103-1.619
		c-2.809,0-4.996,0.445-6.502,1.32c-1.771,1-2.973,2.774-3.575,5.284C127.613,112.557,127.611,112.566,127.607,112.575
		 M137.869,127.437c-2.906,0-3.651-0.397-3.978-0.744c-1.514-1.613-2.282-4.005-2.282-7.107c0-2.977,0.084-5.396,0.25-7.194
		c0.058-0.612,0.513-1.33,1.391-2.194c0.898-0.885,1.591-1.297,2.175-1.297c0.562,0,1.6,0.071,3.09,0.214
		c2.235,0.228,2.773,0.387,3.007,0.514c1.221,0.569,1.828,2.313,1.828,5.318c0,1.054-0.086,2.23-0.252,3.494
		c-0.144,1.163-0.408,2.653-0.785,4.427c-0.801,3.581-1.29,4.056-1.686,4.219C140.045,127.323,139.144,127.437,137.869,127.437
		 M135.425,109.803c-0.146,0-0.591,0.102-1.541,1.038c-0.931,0.915-1.104,1.417-1.124,1.634c-0.163,1.769-0.247,4.161-0.247,7.11
		c0,2.864,0.686,5.049,2.037,6.488c0.103,0.107,0.642,0.461,3.319,0.461c1.139,0,1.951-0.098,2.414-0.286
		c0.05-0.041,0.452-0.474,1.146-3.574c0.372-1.743,0.632-3.209,0.772-4.35c0.162-1.228,0.244-2.363,0.244-3.379
		c0-2.545-0.46-4.105-1.332-4.512c-0.102-0.054-0.519-0.2-2.688-0.422C136.967,109.874,135.957,109.803,135.425,109.803"/>
	<g>
		<path fill="#FFFFFF" d="M30.537,45.951c0,0,5.106-5.146,12.198-4.084c7.445,1.724,9.97,8.751,9.97,8.751
			s-3.409-5.255-10.448-6.099C35.628,43.724,30.537,45.951,30.537,45.951"/>
		<path fill="#211915" d="M65.145,95.377c0.106-0.722-0.075-1.528-0.269-2.382c-0.207-0.924-0.423-1.877-0.311-2.794
			c0.289-2.354,0.18-4.899,0.042-8.121c-0.034-0.798-0.07-1.64-0.104-2.533c-0.295-8.134-3.742-12.258-10.242-12.258
			c-1.081,0-2.264,0.116-3.617,0.354c-3.521,0.619-6.638,1.701-7.574,2.043c-1.324-0.462-6.915-2.312-11.539-2.312
			c-1.492,0-2.761,0.198-3.77,0.588c-4.675,1.806-5.821,6.219-6.223,13.233l-0.048,0.821c-0.322,5.39-0.545,10.619-0.003,12.436
			c-0.846-0.427-2.05-0.979-3.583-1.544c-2.765-1.019-10.369-4.801-12.335-10.01c-1.935-5.124-1.622-7.847-1.618-7.874l0.041-0.323
			l-0.197-0.265c-0.039-0.051-3.904-5.277-2.793-10.723c0.362-1.773,0.652-2.953,0.874-3.736c0.767,1.49,2.055,3.594,3.73,4.877
			c2.418,1.852,3.721,2.052,4.17,2.052c0.075,0,0.112-0.006,0.112-0.006l1.325-0.18l-0.754-1.087
			c-0.04-0.055-3.976-5.553-4.341-10.512c-0.179-2.435-0.215-3.917-0.204-4.793c0.812,0.355,2.078,0.741,4.014,0.99
			c0.883,0.114,1.706,0.168,2.516,0.168c1.622,0,2.94-0.223,4.338-0.459c0.778-0.131,1.584-0.268,2.491-0.373
			c0.834-0.098,1.724-0.147,2.646-0.147c2.979,0,5.382,0.517,5.405,0.522l3.739,0.816l-3.096-2.248
			c-0.146-0.105-3.606-2.596-7.696-3.675c-2.476-0.653-4.388-0.912-5.523-1.014c0.939-1.994,3.636-6.387,9.517-7.515
			c0.783-0.161,1.599-0.24,2.434-0.24c7.151,0,14.147,5.823,14.218,5.882l2.36,1.989l-1.095-2.886
			c-0.055-0.146-1.393-3.603-4.337-5.437c-1.062-0.661-2.047-1.092-2.892-1.373c1.665-0.578,3.981-1.193,6.298-1.193
			c1.023,0,1.976,0.121,2.829,0.359c6.973,1.948,8.473,7.197,8.535,7.419l0.344,1.269l0.97-0.884
			c0.027-0.024,2.939-2.593,8.307-2.593c0.957,0,1.948,0.081,2.945,0.242c3.515,0.566,5.134,2.489,6.563,4.186
			c1.081,1.286,2.104,2.5,3.723,2.588c0.191,0.011,0.38,0.015,0.565,0.015h0.008c-0.785,0.714-1.802,1.506-2.834,1.938
			c-3.009,1.204-4.752,1.934-4.769,1.941l-2.476,1.039l2.64,0.489c0.054,0.01,1.34,0.244,3.186,0.244c1.208,0,2.378-0.1,3.479-0.298
			c2.175-0.393,4.133-1.192,5.325-1.753c-0.027,1.985-0.196,5.815-1.064,8.233c-1.228,3.413-3.824,7.328-3.849,7.367l-1.23,1.846
			l2.125-0.633c0.169-0.05,4.167-1.265,6.282-3.992c0.945-1.219,1.544-2.348,1.923-3.25c0.871,2.06,1.98,5.642,1.153,9.173
			c-0.764,3.262-3.382,5.602-3.409,5.625l-0.293,0.259l0.024,0.391c0.003,0.078,0.416,7.819-3.786,11.611
			c-2.919,2.635-6.262,4.424-8.948,5.863c-1.378,0.738-2.57,1.376-3.358,1.962c-0.372,0.276-0.728,0.563-1.056,0.839
			C65.119,95.548,65.132,95.464,65.145,95.377"/>
		<path fill="#211915" d="M41.253,34.938c0.951,0,1.83,0.111,2.612,0.33c6.498,1.816,7.92,6.655,7.975,6.85l0.667,2.57l1.957-1.789
			c0.11-0.097,2.751-2.391,7.774-2.391c0.913,0,1.862,0.078,2.819,0.232c3.221,0.519,4.671,2.242,6.075,3.909
			c0.87,1.033,1.761,2.093,3.001,2.589c-0.403,0.278-0.818,0.521-1.224,0.692c-3.021,1.208-4.764,1.938-4.782,1.946l-4.951,2.077
			l5.28,0.978c0.057,0.011,1.413,0.257,3.33,0.257c1.257,0,2.476-0.104,3.623-0.312c1.641-0.295,3.164-0.815,4.349-1.301
			c-0.085,2.143-0.343,4.929-0.987,6.722c-1.192,3.317-3.735,7.155-3.761,7.193l-2.462,3.693l4.253-1.267
			c0.179-0.053,4.416-1.341,6.687-4.269c0.468-0.604,0.855-1.187,1.178-1.735c0.615,1.94,1.07,4.484,0.484,6.984
			c-0.699,2.984-3.138,5.188-3.159,5.207l-0.585,0.519l0.045,0.78c0.005,0.073,0.387,7.44-3.521,10.967
			c-2.846,2.569-6.141,4.334-8.788,5.751c-1.293,0.692-2.423,1.298-3.246,1.873c-0.062-0.386-0.15-0.775-0.239-1.176
			c-0.193-0.856-0.394-1.741-0.298-2.519c0.298-2.423,0.188-4.997,0.047-8.257c-0.035-0.795-0.07-1.634-0.103-2.524
			c-0.393-10.77-6.221-13.031-11.043-13.031c-1.128,0-2.355,0.12-3.756,0.366c-3.294,0.578-6.243,1.557-7.441,1.983
			c-1.729-0.588-7.055-2.264-11.531-2.264c-1.592,0-2.958,0.216-4.061,0.642c-3.748,1.447-6.182,4.284-6.734,13.934
			c-0.013,0.236-0.03,0.514-0.049,0.828c-0.293,4.907-0.442,8.767-0.236,11.099c-0.655-0.291-1.415-0.604-2.271-0.92
			c-2.67-0.983-10.002-4.615-11.862-9.542c-1.793-4.745-1.59-7.321-1.574-7.486l0.098-0.628l-0.407-0.543
			c-0.037-0.049-3.685-5.004-2.649-10.083c0.139-0.679,0.266-1.267,0.382-1.776c0.772,1.213,1.767,2.489,2.949,3.394
			c2.52,1.929,3.999,2.217,4.656,2.217c0.129,0,0.193-0.009,0.193-0.009l2.694-0.382l-1.554-2.153
			c-0.039-0.053-3.844-5.375-4.192-10.102c-0.115-1.572-0.17-2.735-0.191-3.588c0.799,0.246,1.816,0.475,3.1,0.64
			c0.917,0.118,1.773,0.175,2.618,0.175c1.688,0,3.04-0.229,4.471-0.471c0.77-0.13,1.564-0.264,2.451-0.368
			c0.802-0.094,1.662-0.142,2.553-0.142c2.885,0,5.212,0.499,5.234,0.503l7.494,1.643l-6.208-4.507
			c-0.15-0.108-3.729-2.684-7.962-3.8c-1.799-0.475-3.315-0.746-4.463-0.901c1.211-2.059,3.759-5.175,8.403-6.065l0.01-0.002
			l0.009-0.002c0.721-0.147,1.482-0.223,2.262-0.223c6.851,0,13.635,5.638,13.701,5.694l4.728,3.991l-2.194-5.785
			c-0.059-0.157-1.491-3.857-4.664-5.833c-0.33-0.206-0.654-0.391-0.971-0.556C38.523,35.163,39.89,34.938,41.253,34.938
			 M41.253,33.335c-4.604,0-9.098,2.274-9.098,2.274h0.022c0.246,0,2.475,0.049,5.246,1.775c2.748,1.711,4.012,5.04,4.012,5.04
			s-7.193-6.072-14.736-6.072c-0.859,0-1.725,0.08-2.583,0.255c-8.095,1.552-10.535,9.038-10.535,9.038s2.495,0,6.486,1.053
			c3.994,1.054,7.43,3.549,7.43,3.549s-2.464-0.541-5.577-0.541c-0.875,0-1.802,0.043-2.739,0.152
			c-2.556,0.298-4.298,0.827-6.735,0.827c-0.729,0-1.519-0.047-2.413-0.162c-3.881-0.5-4.824-1.552-4.824-1.552
			S4.931,49.913,5.32,55.18c0.386,5.254,4.491,10.923,4.491,10.923S9.8,66.105,9.777,66.105c-0.202,0-1.335-0.09-3.68-1.886
			c-2.606-1.996-4.269-6.265-4.269-6.265s-0.5,0.166-1.609,5.6c-1.201,5.881,2.938,11.366,2.938,11.366s-0.389,2.828,1.664,8.261
			c2.051,5.434,9.647,9.315,12.807,10.479c3.16,1.164,4.886,2.276,4.886,2.276s0.002,0.001,0.009,0.001
			c0.046,0,0.253-0.081-0.254-1.674c-0.652-2.046-0.082-10.334,0.072-13.023c0.443-7.762,1.927-11.069,5.711-12.53
			c0.987-0.382,2.19-0.534,3.482-0.534c5.088,0,11.543,2.363,11.543,2.363s3.604-1.386,7.708-2.107
			c1.058-0.186,2.252-0.341,3.477-0.341c4.357,0,9.095,1.964,9.441,11.486c0.162,4.476,0.418,7.666,0.066,10.528
			c-0.238,1.935,0.767,3.894,0.582,5.156c-0.288,1.96-0.732,2.863-0.732,2.863s1.348-1.445,3.021-2.69
			c2.163-1.608,7.819-3.77,12.365-7.873c4.546-4.103,4.047-12.253,4.047-12.253s2.828-2.495,3.66-6.043
			c1.354-5.78-2.107-11.533-2.107-11.533s-0.277,2.218-2.384,4.935c-1.981,2.555-5.877,3.715-5.877,3.715s2.661-3.992,3.937-7.541
			c1.275-3.548,1.11-9.813,1.11-9.813s-2.884,1.663-6.266,2.273c-1.2,0.216-2.352,0.286-3.338,0.286
			c-1.792,0-3.038-0.231-3.038-0.231s1.718-0.72,4.769-1.94c2.384-0.999,4.601-3.66,4.601-3.66s-0.96,0.18-2.084,0.18
			c-0.171,0-0.345-0.004-0.521-0.014c-3.05-0.166-3.66-5.71-10.202-6.764c-1.097-0.176-2.122-0.252-3.073-0.252
			c-5.784,0-8.848,2.803-8.848,2.803s-1.553-5.877-9.092-7.984C43.309,33.448,42.279,33.335,41.253,33.335"/>
		<path fill="#FFFFFF" d="M52.614,60.171c0,0,1.73-6.927,9.338-6.856c2.779,0.051,7.145,0.591,10.576,0.443
			c2.988-0.128,5.562-0.672,5.562-0.672s-1.97,3.336-5.736,3.536c-4.513,0.239-9.083-1.093-12.531-0.443
			C55.982,56.903,52.614,60.171,52.614,60.171"/>
		<path fill="#FFFFFF" d="M37.367,35.609c0,0,5.193,2.055,7.983,10.202c2.052,5.988,0.334,14.471,0.334,14.471
			s4.142-7.063,1.703-15.768c-1.11-3.715-1.836-4.433-2.757-5.799c3.706,1.24,7.596,9.259,7.596,9.259s-1.608-7.928-5.488-10.535
			C42.855,34.833,37.367,35.609,37.367,35.609"/>
		<path fill="#010300" d="M28.934,93.573c-0.001-0.025-0.004-0.05-0.004-0.075c0-0.822,0.64-1.489,1.427-1.489
			c0.789,0,1.428,0.667,1.428,1.489c0,0.025-0.002,0.05-0.002,0.075h2.104c0-0.025,0.004-0.05,0.004-0.075
			c0-2.034-1.582-3.683-3.533-3.683c-1.95,0-3.531,1.648-3.531,3.683c0,0.025,0.002,0.05,0.004,0.075H28.934z"/>
		<path fill="#010300" d="M54.337,93.573c-0.001-0.025-0.004-0.05-0.004-0.075c0-0.822,0.639-1.489,1.427-1.489
			c0.789,0,1.428,0.667,1.428,1.489c0,0.025-0.002,0.05-0.004,0.075h2.104c0.001-0.025,0.005-0.05,0.005-0.075
			c0-2.034-1.582-3.683-3.533-3.683c-1.95,0-3.532,1.648-3.532,3.683c0,0.025,0.004,0.05,0.004,0.075H54.337z"/>
		<path fill="#211915" d="M30.37,102.682c-5.417,0-9.824-4.406-9.824-9.823c0-5.416,4.407-9.823,9.824-9.823
			c5.416,0,9.823,4.407,9.823,9.823C40.193,98.276,35.786,102.682,30.37,102.682 M30.37,85.365c-4.133,0-7.495,3.362-7.495,7.494
			c0,4.133,3.362,7.494,7.495,7.494c4.132,0,7.494-3.361,7.494-7.494C37.864,88.727,34.502,85.365,30.37,85.365"/>
		<path fill="#211915" d="M55.825,102.682c-5.417,0-9.824-4.406-9.824-9.823c0-5.416,4.407-9.823,9.824-9.823
			c5.416,0,9.823,4.407,9.823,9.823C65.648,98.276,61.24,102.682,55.825,102.682 M55.825,85.365c-4.133,0-7.495,3.362-7.495,7.494
			c0,4.133,3.362,7.494,7.495,7.494c4.132,0,7.494-3.361,7.494-7.494C63.319,88.727,59.957,85.365,55.825,85.365"/>
		<path fill="#211915" d="M46.803,94.169c-1.023-0.896-2.347-1.389-3.727-1.389c-1.22,0-2.377,0.376-3.348,1.087l-1.376-1.879
			c1.372-1.006,3.006-1.537,4.724-1.537c1.944,0,3.813,0.698,5.26,1.965L46.803,94.169z"/>
	</g>
</g>
</svg>
