<?xml version="1.0" encoding="utf-8"?>
<!-- Generator: Adobe Illustrator 16.0.0, SVG Export Plug-In . SVG Version: 6.00 Build 0)  -->
<!DOCTYPE svg PUBLIC "-//W3C//DTD SVG 1.1//EN" "http://www.w3.org/Graphics/SVG/1.1/DTD/svg11.dtd">
<svg version="1.1" id="Layer_1" xmlns="http://www.w3.org/2000/svg" xmlns:xlink="http://www.w3.org/1999/xlink" x="0px" y="0px"
	 width="76px" height="35px" viewBox="0 0 76 35" enable-background="new 0 0 76 35" xml:space="preserve">
<title>p5js-rect</title>
<g>
	<path fill="#99989D" d="M40.944,18.961c-0.526,0.02-0.869,0.033-1.027,0.045c-0.532,0.045-0.835,0.107-0.909,0.188
		c-0.11,0.123-0.172,0.67-0.187,1.646l0.141,0.178l1.819,0.098l-0.066,0.498l-1.931,0.135v0.156c-0.006,0.82,0.042,1.287,0.142,1.4
		c0.079,0.096,0.752,0.137,2.019,0.127l-0.104,0.559c-1.117,0.096-1.955,0.143-2.512,0.143c-0.307,0-0.477-0.02-0.506-0.061
		c-0.104-0.129-0.158-1.365-0.158-3.711c0-1.152,0.054-1.781,0.158-1.885c0.104-0.104,0.979-0.154,2.623-0.148l0.642,0.006
		L40.944,18.961z"/>
	<path fill="#99989D" d="M42.92,19.588l-0.127,0.924c0.039,0.059,0.407,0.234,1.104,0.529c0.676,0.281,1.061,0.525,1.154,0.729
		c0.04,0.072,0.061,0.174,0.061,0.314c0,0.133-0.034,0.385-0.104,0.752c-0.075,0.398-0.139,0.637-0.19,0.719
		c-0.053,0.082-0.133,0.205-0.241,0.371c-0.403,0.123-0.902,0.186-1.499,0.186c-0.446,0-0.847-0.027-1.199-0.082l-0.061-0.768
		c0.303,0.104,0.645,0.156,1.021,0.156c0.189,0,0.39-0.021,0.604-0.068c0.259-0.055,0.442-0.127,0.552-0.215
		c0.035-0.029,0.053-0.107,0.053-0.23c0-0.193-0.033-0.447-0.098-0.754c-0.089-0.084-0.439-0.256-1.05-0.516
		c-0.572-0.236-0.896-0.422-0.97-0.551c-0.073-0.129-0.112-0.494-0.112-1.094c0-0.311,0.011-0.5,0.03-0.576
		c0.03-0.104,0.128-0.264,0.291-0.477c0.075-0.1,0.373-0.148,0.894-0.148c0.537,0,1.158,0.041,1.863,0.119l-0.156,0.582h-0.044
		c-0.095,0-0.24-0.004-0.437-0.016c-0.195-0.01-0.344-0.014-0.443-0.014C43.373,19.461,43.074,19.502,42.92,19.588"/>
	<path fill="#99989D" d="M49.113,19.609c-0.343-0.061-0.653-0.09-0.932-0.09c-0.367,0-0.654,0.051-0.856,0.15
		c-0.334,0.162-0.514,0.383-0.538,0.662c-0.015,0.213-0.021,0.443-0.021,0.686c0,0.879,0.071,1.545,0.217,1.996
		c0.053,0.16,0.193,0.285,0.416,0.383c0.179,0.072,0.368,0.109,0.566,0.109c0.153,0,0.351-0.018,0.589-0.051
		c0.323-0.045,0.519-0.072,0.59-0.082l-0.165,0.596l-1.268,0.178c-0.163,0-0.409-0.035-0.737-0.111
		c-0.367-0.088-0.588-0.174-0.663-0.252c-0.193-0.225-0.358-0.686-0.491-1.387c-0.109-0.582-0.164-1.08-0.164-1.49
		c0-0.145,0.042-0.375,0.126-0.693c0.085-0.318,0.159-0.547,0.224-0.686c0.039-0.08,0.157-0.189,0.351-0.332
		c0.193-0.141,0.337-0.229,0.432-0.256c0.204-0.064,0.52-0.098,0.947-0.098c0.729,0,1.264,0.057,1.601,0.172L49.113,19.609z"/>
	<path fill="#99989D" d="M51.812,24.111c-0.642,0-1.034-0.059-1.18-0.172c-0.46-0.359-0.771-0.908-0.924-1.65
		c-0.088-0.443-0.135-1.092-0.135-1.947c0-0.088,0.003-0.141,0.009-0.148c0.134-0.559,0.4-0.949,0.798-1.172
		c0.332-0.193,0.804-0.293,1.415-0.293c0.707,0,1.223,0.121,1.552,0.359c0.222,0.16,0.375,0.385,0.455,0.672
		c0.058,0.199,0.088,0.475,0.088,0.828c0,0.279-0.014,0.617-0.044,1.014c-0.02,0.266-0.132,0.648-0.335,1.15
		c-0.225,0.537-0.425,0.871-0.605,1c-0.058,0.045-0.238,0.115-0.535,0.213C52.071,24.063,51.885,24.111,51.812,24.111
		 M51.317,19.541c-0.093,0-0.225,0.084-0.389,0.246c-0.168,0.164-0.256,0.299-0.267,0.402c-0.032,0.379-0.052,0.881-0.052,1.506
		c0,0.631,0.15,1.107,0.455,1.432c0.079,0.086,0.334,0.127,0.768,0.127c0.252,0,0.434-0.023,0.543-0.066
		c0.085-0.035,0.184-0.311,0.299-0.82c0.079-0.373,0.135-0.682,0.164-0.926c0.033-0.262,0.053-0.502,0.053-0.723
		c0-0.586-0.112-0.932-0.335-1.035c-0.055-0.031-0.255-0.063-0.598-0.096C51.646,19.557,51.433,19.541,51.317,19.541"/>
	<path fill="#99989D" d="M54.8,24.164c0.03-0.309,0.044-0.979,0.044-2.006c0-0.408-0.011-0.951-0.03-1.633
		c-0.02-0.809-0.033-1.355-0.036-1.641l1.341-0.104c-0.14,0.85-0.263,2.334-0.372,4.449l1.878,0.127l-0.104,0.604L54.8,24.164z"/>
	<path fill="#99989D" d="M58.66,24.012l-0.85,0.1c0.188-1.234,0.351-2.133,0.482-2.695c0.235-0.996,0.54-1.852,0.918-2.566
		L61,18.736c0.387,1.348,0.655,2.406,0.806,3.174c0.033,0.164,0.077,0.41,0.126,0.734l0.135,1.467l-1.036-0.107l-0.104-1.533
		l-1.372,0.172L59.003,22.5L58.66,24.012z M60.8,21.539c0-0.145-0.074-0.479-0.217-1.008c-0.146-0.529-0.256-0.855-0.33-0.975
		l-0.586,0.053c-0.195,0.58-0.329,1.08-0.403,1.496c-0.011,0.086-0.024,0.215-0.047,0.391c-0.02,0.104-0.044,0.258-0.074,0.461
		l1.635-0.148C60.791,21.809,60.8,21.717,60.8,21.539"/>
	<path fill="#99989D" d="M63.824,24.09c-0.135,0-0.39-0.006-0.763-0.016c-0.017-0.344-0.035-0.861-0.058-1.555
		c-0.003-0.24-0.011-0.6-0.027-1.078l0.974-0.059c0.068-0.002,0.211,0.025,0.43,0.08c0.22,0.057,0.349,0.104,0.382,0.145
		c0.014,0.018,0.032,0.045,0.055,0.078c0.115,0.17,0.17,0.35,0.17,0.533c0,0.859-0.143,1.42-0.434,1.682
		c-0.068,0.061-0.184,0.107-0.345,0.145C64.073,24.074,63.947,24.09,63.824,24.09 M64.424,21.98l-0.345-0.203l-0.494-0.002
		c-0.021,0.508-0.035,0.918-0.035,1.238l0.005,0.771c0.05,0.006,0.102,0.008,0.156,0.008c0.138,0,0.327-0.057,0.57-0.176
		c0.102-0.287,0.165-0.748,0.185-1.379C64.46,22.178,64.446,22.092,64.424,21.98"/>
	<path fill="#99989D" d="M66.928,22.957l-0.869,0.061v0.104c-0.003,0.344,0.019,0.541,0.061,0.592
		c0.044,0.051,0.351,0.072,0.924,0.061l-0.053,0.271c-0.482,0.041-0.857,0.064-1.129,0.064c-0.165,0-0.255-0.012-0.269-0.035
		c-0.053-0.066-0.077-0.637-0.077-1.713c0-0.529,0.024-0.816,0.074-0.867c0.049-0.051,0.449-0.076,1.203-0.076
		c0.121,0,0.226,0,0.315,0.004l-0.074,0.326c-0.526,0-0.819,0.033-0.88,0.098c-0.05,0.055-0.074,0.299-0.079,0.736l0.055,0.07
		l0.836,0.041L66.928,22.957z"/>
	<path fill="#80BAD4" d="M63.198,34.371l-1.854,0.203c0.107-1.381,0.162-2.826,0.162-4.342l-0.063-4.455l2.259-0.139
		c0.329-0.025,0.732-0.008,1.212,0.051c0.411,0.051,0.82,0.105,1.226,0.164l0.831,0.732c0.085,0.486,0.173,0.973,0.266,1.451
		c0.109,0.623,0.15,1.094,0.126,1.412v0.063c-0.244,0.277-0.487,0.561-0.731,0.848c-0.338,0.379-0.609,0.598-0.82,0.656
		c0.42,0.74,1.311,1.973,2.676,3.695l-1.187,0.344c-0.228-0.221-0.875-0.914-1.944-2.084c-1.103-1.203-1.675-1.854-1.717-1.955
		l-0.199-0.582c0.68-0.184,1.088-0.309,1.223-0.379c0.252-0.125,0.581-0.41,0.984-0.857l-0.267-2.371l-2.295,0.139
		c-0.024,1.117-0.038,2.104-0.038,2.953C63.048,31.6,63.098,33.086,63.198,34.371"/>
	<path fill="#99989D" d="M67.301,35.215c-0.041,0-0.083-0.016-0.112-0.045c-0.23-0.227-0.889-0.928-1.95-2.09
		c-1.672-1.826-1.722-1.941-1.746-2.004l-0.206-0.588c-0.014-0.043-0.011-0.09,0.012-0.129c0.019-0.039,0.055-0.068,0.099-0.08
		c0.833-0.227,1.11-0.324,1.195-0.367c0.222-0.111,0.521-0.369,0.888-0.77l-0.241-2.146l-1.996,0.121
		c-0.021,1.057-0.032,2-0.032,2.801c0,1.668,0.049,3.162,0.15,4.441c0.006,0.086-0.058,0.162-0.146,0.172l-1.854,0.201
		c-0.046,0.006-0.096-0.01-0.129-0.043c-0.035-0.033-0.052-0.08-0.049-0.129c0.109-1.369,0.164-2.826,0.164-4.328l-0.063-4.451
		c-0.003-0.088,0.063-0.16,0.15-0.164l2.26-0.139c0.329-0.027,0.751-0.008,1.239,0.051c0.416,0.051,0.828,0.105,1.229,0.164
		c0.029,0.006,0.06,0.02,0.082,0.039l0.833,0.73c0.027,0.025,0.047,0.059,0.053,0.096c0.082,0.48,0.173,0.967,0.266,1.447
		c0.112,0.641,0.153,1.115,0.129,1.451v0.055c0,0.041-0.014,0.078-0.041,0.107c-0.241,0.277-0.488,0.561-0.729,0.846
		c-0.274,0.307-0.51,0.516-0.713,0.625c0.447,0.746,1.311,1.928,2.572,3.523c0.032,0.041,0.043,0.098,0.024,0.146
		c-0.014,0.053-0.055,0.092-0.107,0.107l-1.187,0.34C67.331,35.213,67.314,35.215,67.301,35.215 M63.791,30.953
		c0.041,0.072,0.323,0.422,1.684,1.91c0.971,1.061,1.599,1.736,1.872,2.01l0.864-0.25c-1.278-1.625-2.134-2.813-2.539-3.527
		c-0.024-0.045-0.027-0.098-0.009-0.143c0.02-0.045,0.058-0.08,0.104-0.094c0.124-0.033,0.352-0.168,0.743-0.607
		c0.228-0.268,0.461-0.537,0.691-0.799v-0.004c0-0.004,0-0.008,0-0.012c0.024-0.303-0.017-0.766-0.124-1.373
		c-0.088-0.461-0.175-0.932-0.255-1.395l-0.754-0.664c-0.381-0.055-0.776-0.107-1.174-0.156c-0.466-0.057-0.863-0.074-1.179-0.049
		l-2.108,0.129l0.061,4.301c0,1.443-0.05,2.842-0.148,4.162l1.506-0.164c-0.094-1.252-0.141-2.701-0.141-4.311
		c0-0.84,0.014-1.836,0.039-2.957c0.002-0.084,0.068-0.152,0.15-0.156l2.298-0.141c0.085-0.006,0.159,0.057,0.17,0.143l0.263,2.375
		c0.006,0.043-0.008,0.09-0.038,0.125c-0.422,0.465-0.759,0.758-1.033,0.893c-0.085,0.043-0.294,0.125-1.086,0.344L63.791,30.953z"
		/>
	<path fill="#D58400" d="M41.375,18.854c-0.526,0.021-0.869,0.035-1.028,0.045c-0.531,0.045-0.835,0.107-0.91,0.188
		c-0.108,0.123-0.171,0.672-0.187,1.645l0.143,0.18l1.818,0.098l-0.067,0.498l-1.931,0.135v0.156c-0.004,0.82,0.043,1.287,0.143,1.4
		c0.078,0.096,0.753,0.139,2.02,0.127l-0.104,0.559c-1.118,0.096-1.954,0.143-2.511,0.143c-0.309,0-0.478-0.02-0.508-0.059
		c-0.104-0.129-0.156-1.367-0.156-3.713c0-1.152,0.052-1.779,0.156-1.885c0.104-0.104,0.979-0.154,2.624-0.15l0.641,0.008
		L41.375,18.854z"/>
	<path fill="#D58400" d="M43.35,19.48l-0.126,0.924c0.039,0.059,0.406,0.236,1.102,0.529c0.676,0.283,1.062,0.525,1.155,0.729
		c0.04,0.07,0.06,0.174,0.06,0.313c0,0.135-0.034,0.387-0.104,0.754c-0.074,0.398-0.137,0.637-0.189,0.719
		c-0.052,0.082-0.133,0.207-0.242,0.369c-0.403,0.125-0.902,0.188-1.498,0.188c-0.447,0-0.848-0.027-1.2-0.084l-0.059-0.766
		c0.303,0.104,0.643,0.156,1.02,0.156c0.189,0,0.392-0.023,0.605-0.068c0.257-0.055,0.441-0.127,0.551-0.215
		c0.034-0.029,0.052-0.107,0.052-0.232c0-0.193-0.032-0.443-0.097-0.752c-0.09-0.084-0.439-0.256-1.051-0.514
		c-0.571-0.24-0.894-0.424-0.969-0.553c-0.074-0.129-0.111-0.492-0.111-1.094c0-0.309,0.01-0.502,0.028-0.576
		c0.03-0.104,0.128-0.262,0.291-0.477c0.075-0.098,0.373-0.148,0.896-0.148c0.536,0,1.157,0.041,1.862,0.119l-0.157,0.58h-0.044
		c-0.095,0-0.239-0.004-0.436-0.014s-0.345-0.014-0.444-0.014C43.802,19.354,43.504,19.395,43.35,19.48"/>
	<path fill="#D58400" d="M49.544,19.502c-0.346-0.061-0.655-0.09-0.933-0.09c-0.368,0-0.654,0.049-0.857,0.148
		c-0.333,0.166-0.513,0.387-0.537,0.664c-0.014,0.215-0.022,0.443-0.022,0.686c0,0.879,0.073,1.545,0.217,1.998
		c0.055,0.158,0.193,0.285,0.417,0.379c0.18,0.076,0.367,0.111,0.566,0.111c0.153,0,0.352-0.016,0.59-0.053
		c0.32-0.043,0.519-0.07,0.587-0.08l-0.162,0.596l-1.269,0.178c-0.163,0-0.409-0.035-0.737-0.111
		c-0.368-0.088-0.589-0.174-0.662-0.252c-0.195-0.225-0.358-0.686-0.492-1.389c-0.11-0.578-0.165-1.076-0.165-1.488
		c0-0.145,0.043-0.375,0.128-0.693c0.083-0.318,0.157-0.545,0.223-0.686c0.04-0.08,0.156-0.189,0.35-0.332
		c0.195-0.143,0.338-0.227,0.433-0.258c0.204-0.063,0.52-0.096,0.947-0.096c0.729,0,1.265,0.059,1.602,0.17L49.544,19.502z"/>
	<path fill="#D58400" d="M52.239,24.004c-0.64,0-1.031-0.057-1.177-0.172c-0.463-0.359-0.771-0.908-0.924-1.65
		c-0.091-0.441-0.135-1.092-0.135-1.947c0-0.09,0.003-0.141,0.009-0.15c0.134-0.557,0.4-0.947,0.798-1.172
		c0.331-0.193,0.803-0.289,1.415-0.289c0.704,0,1.223,0.119,1.549,0.357c0.225,0.16,0.375,0.383,0.455,0.672
		c0.061,0.197,0.091,0.475,0.091,0.828c0,0.279-0.017,0.617-0.047,1.016c-0.02,0.262-0.132,0.646-0.335,1.148
		c-0.222,0.537-0.425,0.871-0.603,1c-0.061,0.045-0.239,0.115-0.538,0.213C52.502,23.955,52.315,24.004,52.239,24.004
		 M51.748,19.434c-0.093,0-0.225,0.082-0.392,0.246c-0.165,0.166-0.253,0.299-0.264,0.404c-0.036,0.377-0.052,0.879-0.052,1.504
		c0,0.631,0.15,1.109,0.455,1.432c0.079,0.084,0.334,0.127,0.768,0.127c0.252,0,0.433-0.021,0.543-0.068
		c0.085-0.033,0.184-0.309,0.299-0.818c0.079-0.373,0.134-0.682,0.164-0.924c0.033-0.264,0.053-0.504,0.053-0.723
		c0-0.588-0.113-0.934-0.338-1.037c-0.055-0.029-0.252-0.063-0.595-0.096C52.077,19.449,51.863,19.434,51.748,19.434"/>
	<path fill="#D58400" d="M55.228,24.055c0.03-0.309,0.047-0.977,0.047-2.006c0-0.404-0.012-0.949-0.03-1.631
		c-0.022-0.809-0.033-1.355-0.039-1.639l1.341-0.105c-0.137,0.85-0.263,2.334-0.372,4.451l1.878,0.125l-0.104,0.604L55.228,24.055z"
		/>
	<path fill="#D58400" d="M59.088,23.906l-0.85,0.098c0.188-1.234,0.351-2.133,0.485-2.695c0.232-0.994,0.54-1.85,0.915-2.566
		l1.792-0.111c0.386,1.346,0.654,2.404,0.803,3.172c0.036,0.164,0.077,0.408,0.126,0.732l0.135,1.469l-1.034-0.107l-0.106-1.531
		l-1.372,0.17l-0.551-0.143L59.088,23.906z M61.228,21.432c0-0.145-0.071-0.48-0.217-1.01c-0.143-0.529-0.252-0.854-0.326-0.973
		l-0.591,0.053c-0.191,0.582-0.326,1.08-0.402,1.498c-0.009,0.084-0.024,0.213-0.044,0.387c-0.02,0.105-0.044,0.26-0.074,0.463
		l1.632-0.148C61.222,21.701,61.228,21.611,61.228,21.432"/>
	<path fill="#D58400" d="M64.254,23.982c-0.134,0-0.389-0.006-0.765-0.016c-0.014-0.344-0.033-0.861-0.058-1.555
		c0-0.24-0.011-0.6-0.024-1.078l0.973-0.059c0.069-0.002,0.212,0.025,0.431,0.08c0.22,0.057,0.346,0.104,0.382,0.146
		c0.014,0.016,0.029,0.041,0.055,0.074c0.112,0.172,0.17,0.352,0.17,0.537c0,0.857-0.146,1.418-0.434,1.678
		c-0.068,0.063-0.184,0.109-0.346,0.145C64.504,23.967,64.375,23.982,64.254,23.982 M64.854,21.873l-0.346-0.201l-0.493-0.004
		c-0.024,0.508-0.035,0.918-0.035,1.238l0.005,0.771c0.05,0.006,0.102,0.008,0.153,0.008c0.138,0,0.327-0.059,0.57-0.174
		c0.104-0.289,0.168-0.75,0.187-1.381C64.888,22.072,64.874,21.984,64.854,21.873"/>
	<path fill="#D58400" d="M67.358,22.85l-0.869,0.061v0.104c-0.003,0.344,0.016,0.541,0.06,0.594
		c0.044,0.049,0.352,0.068,0.925,0.061l-0.056,0.268c-0.479,0.045-0.855,0.066-1.127,0.066c-0.164,0-0.255-0.012-0.271-0.035
		c-0.05-0.066-0.074-0.637-0.074-1.715c0-0.525,0.024-0.814,0.074-0.865c0.049-0.051,0.449-0.076,1.2-0.076
		c0.124,0,0.228,0.002,0.315,0.004l-0.071,0.326c-0.526,0-0.819,0.033-0.883,0.1c-0.047,0.053-0.074,0.299-0.079,0.732l0.058,0.072
		l0.836,0.041L67.358,22.85z"/>
	<path fill="#80BAD4" d="M12.032,34.604l-1.279,0.092l-0.325-6.475c-0.008-0.434-0.03-1.129-0.067-2.086l2.131-0.182
		c-0.098,1.445-0.195,2.889-0.291,4.332C12.095,31.967,12.039,33.408,12.032,34.604"/>
	<path fill="#99989D" d="M10.753,34.855c-0.04,0-0.078-0.016-0.107-0.041c-0.033-0.029-0.052-0.07-0.053-0.111l-0.326-6.473
		c-0.008-0.445-0.03-1.146-0.067-2.09c-0.002-0.086,0.062-0.16,0.148-0.168l2.131-0.178c0.046-0.004,0.093,0.012,0.127,0.045
		c0.033,0.033,0.05,0.078,0.046,0.125l-0.291,4.332c-0.104,1.668-0.161,3.117-0.168,4.307c0,0.086-0.066,0.154-0.149,0.162
		l-1.279,0.088C10.76,34.855,10.757,34.855,10.753,34.855 M10.526,26.283c0.034,0.869,0.055,1.52,0.062,1.936l0.316,6.303
		l0.967-0.068c0.011-1.166,0.067-2.572,0.167-4.178l0.28-4.143L10.526,26.283z"/>
	<path fill="#80BAD4" d="M21.503,34.27l-1.336,0.342c-0.909-2.85-1.916-5.104-3.018-6.764l-0.416,0.201
		c-0.144,1.801-0.231,3.959-0.266,6.473l-1.325,0.141c0-0.682-0.021-1.848-0.063-3.496c-0.034-1.539-0.051-2.709-0.051-3.506
		l0.177-1.682l2.397-0.252c0.85,1.463,1.379,2.385,1.59,2.764c0.563,1.078,0.98,2.059,1.249,2.941l-0.076-4.922l0.126-0.832
		l1.83-0.051C21.845,29.434,21.571,32.314,21.503,34.27"/>
	<path fill="#99989D" d="M15.144,34.824c-0.04,0-0.078-0.016-0.108-0.041c-0.035-0.031-0.054-0.074-0.054-0.121
		c0-0.672-0.021-1.846-0.063-3.49c-0.033-1.529-0.051-2.711-0.051-3.512c0-0.008,0.001-0.014,0.001-0.02l0.177-1.678
		c0.008-0.074,0.067-0.135,0.144-0.143l2.396-0.254c0.063-0.004,0.125,0.025,0.156,0.08c0.844,1.453,1.38,2.385,1.591,2.768
		c0.375,0.713,0.687,1.389,0.934,2.023l-0.06-3.924c-0.001-0.01,0-0.02,0.001-0.027l0.126-0.834
		c0.011-0.076,0.077-0.135,0.155-0.137l1.829-0.051c0.048-0.004,0.093,0.02,0.125,0.053c0.032,0.035,0.045,0.082,0.04,0.129
		c-0.477,3.783-0.752,6.688-0.818,8.629c-0.002,0.07-0.052,0.135-0.122,0.15l-1.336,0.342c-0.083,0.02-0.168-0.025-0.193-0.107
		c-0.878-2.754-1.86-4.975-2.92-6.605l-0.206,0.1c-0.139,1.771-0.225,3.916-0.258,6.371c-0.001,0.082-0.063,0.15-0.144,0.158
		l-1.326,0.139C15.155,34.824,15.149,34.824,15.144,34.824 M15.19,27.668c0,0.801,0.018,1.977,0.051,3.496
		c0.04,1.531,0.06,2.621,0.063,3.32l1.005-0.107c0.036-2.445,0.124-4.578,0.265-6.34c0.004-0.057,0.038-0.107,0.089-0.133
		l0.417-0.201c0.073-0.035,0.16-0.012,0.204,0.055c1.087,1.641,2.093,3.879,2.99,6.66l1.073-0.273
		c0.073-1.918,0.34-4.725,0.794-8.352l-1.508,0.041l-0.103,0.688l0.075,4.908c0,0.078-0.058,0.148-0.137,0.162
		c-0.08,0.01-0.155-0.037-0.178-0.113c-0.266-0.871-0.683-1.852-1.239-2.914c-0.204-0.367-0.721-1.266-1.534-2.666l-2.163,0.229
		L15.19,27.668z"/>
	<path fill="#80BAD4" d="M27.662,34.41l-2.447,0.301c-0.429-1.496-1.098-4.42-2.007-8.77l1.653-0.215
		c0.143,0.305,0.336,0.77,0.58,1.4c0.026,0.346,0.063,0.793,0.114,1.338c0.118,1.154,0.197,1.881,0.24,2.184
		c0.11,0.832,0.256,1.545,0.441,2.133l0.606-0.34c0.21-0.943,0.526-2.354,0.946-4.229c0.085-0.43,0.244-1.025,0.48-1.791
		c0.118-0.16,0.282-0.408,0.492-0.744l1.629-0.152c-0.472,1.473-0.948,2.947-1.427,4.43C28.39,31.721,27.957,33.205,27.662,34.41"/>
	<path fill="#99989D" d="M25.214,34.873c-0.071,0-0.136-0.047-0.155-0.117c-0.429-1.496-1.105-4.451-2.01-8.781
		c-0.01-0.045,0-0.09,0.026-0.127c0.026-0.037,0.065-0.061,0.111-0.066l1.653-0.215c0.07-0.008,0.136,0.027,0.166,0.092
		c0.145,0.307,0.335,0.768,0.585,1.412c0.005,0.016,0.009,0.029,0.009,0.047c0.026,0.34,0.063,0.789,0.114,1.334
		c0.117,1.141,0.197,1.873,0.239,2.174c0.097,0.732,0.223,1.377,0.378,1.918l0.369-0.207c0.209-0.941,0.52-2.326,0.931-4.158
		c0.083-0.428,0.247-1.037,0.483-1.805c0.005-0.016,0.014-0.033,0.024-0.047c0.114-0.156,0.277-0.402,0.485-0.734
		c0.026-0.043,0.071-0.07,0.122-0.076l1.627-0.15c0.053-0.006,0.105,0.018,0.14,0.059s0.045,0.1,0.029,0.15
		c-0.479,1.492-0.958,2.984-1.427,4.43c-0.567,1.754-1.003,3.248-1.297,4.443c-0.015,0.064-0.07,0.113-0.136,0.121l-2.448,0.305
		C25.227,34.873,25.22,34.873,25.214,34.873 M23.401,26.08c0.859,4.104,1.508,6.947,1.93,8.455l2.202-0.271
		c0.293-1.184,0.723-2.65,1.276-4.359c0.444-1.371,0.898-2.781,1.352-4.195l-1.306,0.121c-0.185,0.293-0.329,0.514-0.44,0.664
		c-0.229,0.746-0.386,1.334-0.467,1.75c-0.422,1.881-0.738,3.289-0.947,4.232c-0.01,0.043-0.039,0.082-0.078,0.104l-0.606,0.342
		c-0.042,0.023-0.093,0.027-0.139,0.01c-0.045-0.018-0.079-0.055-0.094-0.102c-0.188-0.596-0.337-1.324-0.447-2.16
		c-0.042-0.307-0.125-1.043-0.241-2.188c-0.049-0.535-0.086-0.98-0.112-1.32c-0.211-0.545-0.385-0.967-0.517-1.26L23.401,26.08z"/>
	<path fill="#80BAD4" d="M35.915,30.813l-2.89,0.203v0.34c-0.008,1.145,0.059,1.801,0.203,1.969
		c0.143,0.168,1.166,0.236,3.067,0.203l-0.177,0.895c-1.599,0.145-2.849,0.215-3.749,0.215c-0.547,0-0.846-0.037-0.896-0.115
		c-0.168-0.217-0.252-2.113-0.252-5.689c0-1.75,0.082-2.709,0.245-2.879c0.165-0.166,1.496-0.252,3.995-0.252
		c0.403,0,0.752,0.006,1.047,0.014l-0.24,1.086c-1.75,0-2.726,0.109-2.927,0.326c-0.16,0.178-0.25,0.99-0.266,2.436l0.189,0.24
		l2.776,0.139L35.915,30.813z"/>
	<path fill="#99989D" d="M32.369,34.797c-0.822,0-0.961-0.082-1.026-0.18c-0.093-0.123-0.283-0.424-0.283-5.785
		c0-2.371,0.147-2.842,0.291-2.99c0.103-0.105,0.295-0.301,4.11-0.301c0.414,0,0.758,0.004,1.053,0.012
		c0.047,0.002,0.092,0.025,0.122,0.064c0.029,0.037,0.04,0.084,0.03,0.131l-0.24,1.086c-0.016,0.074-0.082,0.127-0.157,0.127
		c-2.305,0-2.732,0.193-2.809,0.275c-0.045,0.051-0.198,0.365-0.222,2.271l0.109,0.139l2.702,0.135
		c0.045,0.002,0.088,0.023,0.117,0.059s0.042,0.08,0.036,0.125l-0.126,0.873c-0.011,0.072-0.073,0.131-0.148,0.137l-2.74,0.191
		v0.189c-0.011,1.537,0.122,1.814,0.163,1.863c0.042,0.033,0.329,0.154,2.063,0.154c0.267,0,0.562-0.002,0.877-0.008
		c0.051,0,0.096,0.02,0.128,0.057c0.03,0.039,0.043,0.088,0.034,0.135l-0.177,0.896c-0.014,0.07-0.073,0.123-0.144,0.129
		C34.537,34.725,33.271,34.797,32.369,34.797 M31.596,34.416c0.042,0.018,0.206,0.059,0.773,0.059c0.869,0,2.085-0.068,3.614-0.201
		l0.113-0.582c-0.242,0.002-0.473,0.004-0.684,0.004c-2.081,0-2.229-0.174-2.309-0.268c-0.118-0.139-0.252-0.498-0.24-2.072v-0.34
		c0-0.086,0.066-0.156,0.149-0.162l2.761-0.191l0.082-0.568l-2.601-0.129c-0.046-0.002-0.089-0.025-0.118-0.061l-0.189-0.24
		c-0.023-0.031-0.036-0.066-0.034-0.102c0.022-1.977,0.175-2.396,0.306-2.543c0.162-0.174,0.642-0.371,2.919-0.381l0.17-0.768
		c-0.247-0.006-0.526-0.008-0.849-0.008c-3.241,0-3.796,0.145-3.884,0.209c-0.041,0.049-0.195,0.41-0.195,2.76
		C31.382,33.275,31.514,34.244,31.596,34.416"/>
	<path fill="#80BAD4" d="M44.434,34.27l-1.338,0.342c-0.909-2.85-1.914-5.104-3.016-6.764l-0.417,0.201
		c-0.143,1.801-0.231,3.959-0.265,6.473l-1.326,0.141c0-0.682-0.021-1.848-0.063-3.496c-0.033-1.539-0.051-2.709-0.051-3.506
		l0.177-1.682l2.397-0.252c0.851,1.463,1.381,2.385,1.591,2.764c0.563,1.078,0.979,2.059,1.25,2.941l-0.077-4.922l0.126-0.832
		l1.83-0.051C44.773,29.434,44.501,32.314,44.434,34.27"/>
	<path fill="#99989D" d="M38.072,34.824c-0.04,0-0.078-0.016-0.107-0.041c-0.034-0.031-0.053-0.074-0.053-0.121
		c0-0.678-0.021-1.82-0.063-3.49c-0.035-1.525-0.051-2.707-0.051-3.512c0-0.008,0-0.014,0-0.02l0.177-1.678
		c0.008-0.074,0.068-0.135,0.144-0.143l2.397-0.254c0.063-0.004,0.125,0.025,0.156,0.08c0.845,1.453,1.38,2.385,1.592,2.768
		c0.375,0.713,0.686,1.389,0.933,2.023l-0.061-3.924c0-0.01,0-0.02,0.001-0.027l0.127-0.834c0.011-0.076,0.076-0.135,0.154-0.137
		l1.83-0.051c0.048-0.004,0.092,0.02,0.123,0.053c0.032,0.035,0.047,0.082,0.042,0.129c-0.478,3.783-0.753,6.686-0.82,8.629
		c-0.002,0.07-0.052,0.135-0.12,0.15l-1.338,0.342c-0.083,0.02-0.168-0.025-0.193-0.107c-0.878-2.754-1.86-4.975-2.92-6.605
		l-0.206,0.1c-0.139,1.771-0.225,3.916-0.258,6.371c-0.001,0.082-0.063,0.15-0.144,0.158l-1.326,0.139
		C38.083,34.824,38.078,34.824,38.072,34.824 M38.121,27.668c0,0.803,0.016,1.979,0.05,3.496c0.039,1.535,0.059,2.623,0.062,3.32
		l1.006-0.107c0.034-2.443,0.123-4.576,0.264-6.34c0.004-0.057,0.038-0.107,0.09-0.133l0.416-0.201
		c0.072-0.035,0.16-0.012,0.205,0.055c1.087,1.641,2.092,3.879,2.988,6.66l1.074-0.273c0.073-1.918,0.34-4.729,0.793-8.352
		l-1.506,0.041l-0.104,0.688l0.075,4.908c0.002,0.078-0.056,0.148-0.136,0.162c-0.079,0.01-0.156-0.037-0.18-0.113
		c-0.265-0.871-0.681-1.852-1.237-2.914c-0.204-0.367-0.722-1.266-1.534-2.666l-2.165,0.229L38.121,27.668z"/>
	<path fill="#80BAD4" d="M52.346,26.762l-2.081,0.404l-0.228,0.328c-0.052,1.547-0.14,3.869-0.266,6.965l-1.414,0.291
		c0.025-0.344,0.038-0.719,0.038-1.121c0-0.473-0.017-1.188-0.051-2.148c-0.033-0.959-0.05-1.674-0.05-2.15
		c0-0.475-0.05-1.111-0.151-1.912l-0.34-0.201l-1.957-0.227l0.163-1.074c2.054-0.074,4.118-0.164,6.196-0.264L52.346,26.762z"/>
	<path fill="#99989D" d="M48.357,34.912c-0.039,0-0.076-0.014-0.105-0.041c-0.039-0.033-0.058-0.084-0.056-0.133
		c0.025-0.336,0.039-0.709,0.039-1.109c0-0.469-0.019-1.188-0.051-2.143c-0.034-0.951-0.051-1.676-0.051-2.156
		c0-0.449-0.047-1.059-0.14-1.813l-0.244-0.146l-1.922-0.223c-0.043-0.004-0.083-0.027-0.11-0.063
		c-0.025-0.033-0.037-0.078-0.03-0.121l0.163-1.072c0.013-0.076,0.077-0.133,0.154-0.137c2.037-0.076,4.12-0.164,6.192-0.266
		c0.083-0.006,0.159,0.059,0.171,0.141l0.137,1.111c0.011,0.084-0.044,0.162-0.129,0.178l-2.018,0.391l-0.162,0.236
		c-0.053,1.541-0.137,3.805-0.264,6.92c-0.002,0.074-0.058,0.137-0.129,0.15l-1.414,0.291C48.379,34.91,48.368,34.912,48.357,34.912
		 M46.03,26.848l1.791,0.209c0.023,0.002,0.044,0.01,0.064,0.021l0.34,0.203c0.042,0.023,0.071,0.068,0.078,0.117
		c0.102,0.803,0.152,1.453,0.152,1.932c0,0.477,0.017,1.197,0.051,2.146c0.033,0.957,0.05,1.68,0.05,2.152
		c0,0.326-0.009,0.635-0.024,0.92l1.083-0.221c0.126-3.082,0.211-5.32,0.26-6.84c0-0.031,0.012-0.061,0.027-0.086l0.228-0.328
		c0.025-0.035,0.061-0.059,0.102-0.066l1.937-0.375l-0.102-0.813c-1.979,0.096-3.97,0.18-5.917,0.252L46.03,26.848z"/>
	<path fill="#80BAD4" d="M56.447,34.611c-1.086,0-1.749-0.098-1.993-0.289c-0.784-0.607-1.305-1.539-1.565-2.795
		c-0.15-0.75-0.228-1.85-0.228-3.297c0-0.152,0.006-0.236,0.014-0.254c0.228-0.943,0.677-1.605,1.349-1.984
		c0.565-0.328,1.363-0.492,2.399-0.492c1.192,0,2.067,0.201,2.624,0.607c0.378,0.27,0.636,0.646,0.771,1.137
		c0.102,0.338,0.15,0.805,0.15,1.402c0,0.471-0.024,1.045-0.076,1.719c-0.033,0.447-0.223,1.094-0.568,1.947
		c-0.378,0.91-0.718,1.473-1.022,1.693c-0.099,0.074-0.402,0.195-0.907,0.359S56.573,34.611,56.447,34.611 M55.614,26.875
		c-0.159,0-0.381,0.141-0.664,0.416c-0.279,0.277-0.43,0.506-0.446,0.684c-0.058,0.639-0.088,1.488-0.088,2.547
		c0,1.07,0.255,1.879,0.771,2.424c0.134,0.143,0.567,0.215,1.3,0.215c0.428,0,0.734-0.037,0.921-0.113
		c0.143-0.059,0.31-0.521,0.505-1.387c0.134-0.633,0.228-1.154,0.276-1.566c0.061-0.447,0.088-0.854,0.088-1.225
		c0-0.992-0.189-1.578-0.567-1.752c-0.094-0.053-0.428-0.107-1.009-0.166C56.171,26.9,55.809,26.875,55.614,26.875"/>
	<path fill="#99989D" d="M56.447,34.771c-1.511,0-1.919-0.186-2.095-0.324c-0.809-0.627-1.354-1.598-1.623-2.887
		c-0.15-0.756-0.23-1.877-0.23-3.33c0-0.199,0.009-0.264,0.022-0.303c0.235-0.979,0.716-1.676,1.423-2.076
		c0.584-0.34,1.42-0.512,2.479-0.512c1.223,0,2.139,0.213,2.72,0.637c0.406,0.289,0.686,0.701,0.828,1.225
		c0.104,0.348,0.159,0.836,0.159,1.445c0,0.477-0.027,1.059-0.077,1.73c-0.035,0.469-0.225,1.121-0.578,1.996
		c-0.395,0.947-0.746,1.523-1.077,1.762c-0.071,0.055-0.253,0.156-0.955,0.383C56.743,34.746,56.541,34.771,56.447,34.771
		 M52.828,28.023c-0.003,0.018-0.005,0.064-0.005,0.207c0,1.43,0.073,2.529,0.222,3.264c0.252,1.211,0.76,2.121,1.508,2.699
		c0.121,0.098,0.526,0.258,1.895,0.258c0.061,0,0.261-0.031,0.896-0.238c0.661-0.217,0.823-0.309,0.861-0.336
		c0.194-0.141,0.516-0.533,0.971-1.627c0.337-0.83,0.523-1.469,0.557-1.896c0.049-0.666,0.074-1.238,0.074-1.707
		c0-0.578-0.047-1.035-0.146-1.355c-0.126-0.459-0.356-0.803-0.707-1.053c-0.527-0.383-1.377-0.578-2.531-0.578
		c-1.001,0-1.782,0.16-2.316,0.473c-0.634,0.355-1.062,0.988-1.275,1.883C52.831,28.018,52.828,28.021,52.828,28.023 M56.486,33.32
		c-1.037,0-1.303-0.143-1.418-0.266c-0.54-0.574-0.814-1.426-0.814-2.533c0-1.059,0.03-1.922,0.091-2.563
		c0.02-0.217,0.181-0.475,0.493-0.783c0.321-0.314,0.567-0.461,0.776-0.461c0.2,0,0.57,0.025,1.102,0.076
		c0.796,0.082,0.987,0.139,1.069,0.184c0.437,0.201,0.653,0.824,0.653,1.895c0,0.377-0.03,0.795-0.091,1.246
		c-0.05,0.414-0.146,0.945-0.279,1.578c-0.285,1.273-0.458,1.443-0.601,1.502C57.262,33.279,56.938,33.32,56.486,33.32
		 M55.614,27.037c-0.053,0-0.211,0.035-0.549,0.369c-0.332,0.326-0.395,0.506-0.4,0.582c-0.06,0.631-0.088,1.482-0.088,2.533
		c0,1.023,0.244,1.801,0.725,2.314c0.038,0.039,0.23,0.162,1.185,0.162c0.405,0,0.693-0.033,0.857-0.1
		c0.02-0.016,0.162-0.17,0.409-1.275c0.134-0.621,0.225-1.143,0.276-1.549c0.058-0.438,0.085-0.844,0.085-1.205
		c0-0.906-0.161-1.463-0.474-1.607c-0.036-0.02-0.185-0.072-0.957-0.15C56.162,27.061,55.804,27.037,55.614,27.037"/>
	<g>
		<path fill="#FFFFFF" d="M18.235,4.282c0,0,1.819-1.834,4.347-1.456c2.653,0.614,3.552,3.119,3.552,3.119s-1.214-1.873-3.723-2.173
			C20.049,3.487,18.235,4.282,18.235,4.282"/>
		<path fill="#211915" d="M30.568,21.896c0.039-0.258-0.027-0.547-0.096-0.852c-0.074-0.326-0.151-0.666-0.111-0.994
			c0.104-0.84,0.064-1.746,0.015-2.893c-0.012-0.285-0.024-0.584-0.037-0.903c-0.104-2.899-1.333-4.369-3.649-4.369
			c-0.385,0-0.806,0.042-1.289,0.126c-1.254,0.221-2.366,0.606-2.699,0.729c-0.472-0.165-2.463-0.825-4.111-0.825
			c-0.532,0-0.984,0.071-1.344,0.211c-1.667,0.643-2.075,2.216-2.218,4.715l-0.017,0.293c-0.115,1.92-0.195,3.783-0.001,4.432
			c-0.302-0.152-0.73-0.35-1.278-0.551c-0.984-0.361-3.694-1.711-4.395-3.567c-0.689-1.826-0.579-2.797-0.577-2.807l0.015-0.115
			l-0.07-0.095c-0.014-0.018-1.392-1.881-0.996-3.821C7.839,9.98,7.942,9.559,8.022,9.281c0.272,0.53,0.732,1.28,1.328,1.738
			c0.862,0.659,1.327,0.73,1.486,0.73c0.027,0,0.041-0.001,0.041-0.001l0.472-0.064l-0.269-0.388
			c-0.014-0.019-1.417-1.978-1.547-3.746C9.47,6.681,9.457,6.155,9.46,5.842c0.291,0.126,0.742,0.263,1.431,0.353
			c0.314,0.04,0.607,0.06,0.896,0.06c0.577,0,1.047-0.08,1.545-0.163c0.278-0.046,0.564-0.096,0.888-0.134
			c0.297-0.034,0.614-0.052,0.943-0.052c1.062,0,1.918,0.184,1.926,0.187l1.333,0.291l-1.104-0.8
			c-0.052-0.039-1.285-0.927-2.743-1.311c-0.881-0.233-1.563-0.324-1.967-0.362c0.334-0.71,1.295-2.276,3.392-2.676
			c0.278-0.058,0.569-0.088,0.867-0.088c2.548,0,5.042,2.076,5.067,2.098l0.842,0.708l-0.391-1.029
			c-0.019-0.052-0.496-1.283-1.545-1.936c-0.378-0.236-0.729-0.39-1.031-0.491c0.593-0.206,1.419-0.425,2.244-0.425
			c0.365,0,0.705,0.044,1.009,0.129c2.484,0.694,3.019,2.563,3.041,2.643l0.123,0.453l0.346-0.315
			c0.01-0.008,1.047-0.924,2.961-0.924c0.34,0,0.693,0.03,1.048,0.087c1.253,0.2,1.831,0.886,2.339,1.492
			c0.385,0.458,0.75,0.89,1.327,0.921c0.067,0.004,0.136,0.005,0.202,0.005h0.002c-0.28,0.255-0.643,0.537-1.01,0.691
			c-1.072,0.428-1.693,0.688-1.7,0.691l-0.882,0.37L31.8,6.49c0.02,0.002,0.477,0.086,1.135,0.086c0.431,0,0.847-0.037,1.239-0.107
			c0.776-0.14,1.473-0.423,1.897-0.624c-0.008,0.708-0.068,2.071-0.378,2.934c-0.438,1.215-1.363,2.61-1.372,2.624l-0.439,0.658
			l0.758-0.225c0.06-0.018,1.485-0.45,2.239-1.423c0.336-0.433,0.55-0.836,0.686-1.157c0.31,0.733,0.706,2.01,0.411,3.269
			c-0.273,1.163-1.207,1.996-1.216,2.004l-0.104,0.093l0.008,0.14c0.002,0.027,0.149,2.786-1.348,4.137
			c-1.041,0.938-2.232,1.576-3.189,2.09c-0.492,0.264-0.917,0.49-1.197,0.699c-0.133,0.1-0.259,0.199-0.377,0.299
			C30.559,21.957,30.564,21.926,30.568,21.896"/>
		<path fill="#211915" d="M22.053,0.357c0.34,0,0.652,0.04,0.932,0.117c2.314,0.647,2.821,2.372,2.841,2.441l0.238,0.916
			l0.696-0.637c0.04-0.034,0.982-0.853,2.771-0.853c0.326,0,0.664,0.028,1.005,0.083c1.147,0.185,1.666,0.799,2.165,1.394
			c0.31,0.368,0.628,0.746,1.071,0.921c-0.144,0.099-0.292,0.187-0.438,0.247c-1.076,0.431-1.697,0.691-1.703,0.694l-1.766,0.74
			l1.882,0.348c0.021,0.004,0.503,0.093,1.187,0.093c0.447,0,0.881-0.039,1.29-0.112c0.585-0.104,1.128-0.291,1.551-0.463
			c-0.03,0.764-0.122,1.756-0.353,2.396c-0.424,1.182-1.331,2.55-1.339,2.562l-0.877,1.316l1.515-0.451
			c0.064-0.019,1.574-0.477,2.384-1.522c0.166-0.215,0.304-0.422,0.419-0.618c0.219,0.692,0.381,1.599,0.173,2.488
			c-0.25,1.064-1.119,1.851-1.125,1.856l-0.21,0.185l0.017,0.278c0.001,0.026,0.138,2.651-1.254,3.908
			c-1.015,0.916-2.188,1.545-3.133,2.051c-0.46,0.246-0.863,0.461-1.155,0.666c-0.022-0.137-0.054-0.275-0.085-0.418
			c-0.07-0.307-0.142-0.621-0.107-0.898c0.107-0.863,0.067-1.779,0.017-2.942c-0.011-0.284-0.024-0.583-0.036-0.899
			c-0.14-3.839-2.217-4.645-3.936-4.645c-0.401,0-0.839,0.042-1.338,0.13c-1.173,0.207-2.225,0.555-2.653,0.706
			c-0.615-0.208-2.514-0.806-4.108-0.806c-0.568,0-1.054,0.077-1.446,0.229c-1.337,0.517-2.205,1.526-2.4,4.967
			c-0.004,0.083-0.011,0.182-0.018,0.293c-0.104,1.75-0.158,3.126-0.083,3.957c-0.233-0.104-0.504-0.217-0.81-0.33
			c-0.952-0.35-3.564-1.643-4.227-3.399c-0.639-1.692-0.566-2.609-0.561-2.668l0.034-0.223l-0.144-0.193
			c-0.014-0.019-1.315-1.785-0.945-3.595c0.049-0.241,0.095-0.45,0.136-0.632c0.275,0.432,0.631,0.887,1.052,1.209
			c0.896,0.687,1.424,0.791,1.659,0.791c0.046,0,0.068-0.004,0.068-0.004l0.961-0.136l-0.554-0.768
			c-0.014-0.019-1.37-1.917-1.494-3.6c-0.042-0.56-0.061-0.975-0.069-1.278c0.285,0.088,0.648,0.167,1.105,0.228
			c0.328,0.041,0.632,0.062,0.934,0.062c0.602,0,1.083-0.081,1.593-0.167c0.274-0.047,0.558-0.095,0.873-0.13
			c0.287-0.034,0.592-0.052,0.91-0.052c1.028,0,1.858,0.178,1.865,0.181l2.67,0.584L17.487,5.35
			c-0.054-0.04-1.329-0.957-2.836-1.355c-0.642-0.167-1.182-0.265-1.59-0.321c0.43-0.732,1.339-1.842,2.994-2.16h0.004l0.003-0.001
			c0.256-0.054,0.528-0.08,0.806-0.08c2.441,0,4.858,2.008,4.883,2.029l1.685,1.422l-0.783-2.062
			c-0.021-0.055-0.531-1.374-1.662-2.078c-0.118-0.073-0.233-0.139-0.345-0.197C21.08,0.438,21.568,0.357,22.053,0.357
			 M22.053-0.214c-1.64,0-3.242,0.81-3.242,0.81h0.008c0.087,0,0.881,0.018,1.87,0.632c0.979,0.611,1.429,1.796,1.429,1.796
			s-2.563-2.164-5.25-2.164c-0.306,0-0.614,0.027-0.92,0.09c-2.886,0.554-3.755,3.222-3.755,3.222s0.89,0,2.311,0.376
			c1.423,0.375,2.649,1.264,2.649,1.264S16.273,5.62,15.164,5.62c-0.313,0-0.643,0.015-0.976,0.055
			c-0.912,0.105-1.532,0.293-2.401,0.293c-0.26,0-0.542-0.016-0.859-0.057C9.545,5.733,9.209,5.357,9.209,5.357
			S9.11,5.694,9.248,7.571c0.138,1.871,1.601,3.892,1.601,3.892s-0.004,0-0.012,0c-0.073,0-0.476-0.032-1.312-0.672
			C8.596,10.082,8.004,8.56,8.004,8.56S7.826,8.617,7.43,10.556c-0.428,2.095,1.047,4.05,1.047,4.05S8.338,15.613,9.07,17.55
			c0.731,1.936,3.438,3.319,4.564,3.735c1.127,0.414,1.741,0.809,1.741,0.809s0.001,0.002,0.004,0.002
			c0.017,0,0.091-0.029-0.09-0.598c-0.233-0.729-0.03-3.682,0.025-4.64c0.159-2.767,0.687-3.944,2.036-4.465
			c0.353-0.137,0.78-0.19,1.241-0.19c1.813,0,4.114,0.843,4.114,0.843s1.284-0.495,2.746-0.751c0.377-0.066,0.804-0.122,1.239-0.122
			c1.554,0,3.241,0.701,3.364,4.092c0.059,1.596,0.149,2.734,0.025,3.753c-0.085,0.688,0.273,1.387,0.207,1.838
			c-0.103,0.697-0.262,1.02-0.262,1.02s0.481-0.516,1.077-0.959c0.771-0.574,2.786-1.344,4.406-2.807
			c1.621-1.46,1.442-4.366,1.442-4.366s1.007-0.89,1.305-2.153c0.482-2.061-0.751-4.11-0.751-4.11s-0.099,0.79-0.85,1.758
			c-0.706,0.91-2.095,1.324-2.095,1.324s0.949-1.423,1.404-2.687c0.454-1.264,0.395-3.498,0.395-3.498s-1.027,0.594-2.233,0.811
			c-0.428,0.077-0.837,0.102-1.188,0.102c-0.639,0-1.083-0.083-1.083-0.083s0.613-0.256,1.699-0.691
			c0.85-0.356,1.641-1.305,1.641-1.305s-0.343,0.066-0.743,0.066c-0.062,0-0.124-0.003-0.187-0.005
			c-1.086-0.061-1.304-2.035-3.636-2.41c-0.391-0.063-0.755-0.09-1.095-0.09c-2.061,0-3.152,0.998-3.152,0.998
			s-0.554-2.095-3.241-2.845C22.787-0.173,22.419-0.214,22.053-0.214"/>
		<path fill="#FFFFFF" d="M26.103,9.349c0,0,0.615-2.468,3.327-2.443c0.99,0.019,2.546,0.211,3.769,0.158
			c1.065-0.045,1.982-0.24,1.982-0.24s-0.702,1.19-2.044,1.262c-1.608,0.085-3.237-0.39-4.466-0.159
			C27.302,8.184,26.103,9.349,26.103,9.349"/>
		<path fill="#FFFFFF" d="M20.668,0.596c0,0,1.851,0.734,2.846,3.636c0.73,2.135,0.118,5.158,0.118,5.158s1.477-2.519,0.607-5.62
			c-0.395-1.324-0.654-1.579-0.983-2.067c1.322,0.441,2.708,3.301,2.708,3.301s-0.573-2.827-1.956-3.755S20.668,0.596,20.668,0.596"
			/>
		<path fill="#010300" d="M17.664,21.252c0-0.008-0.001-0.018-0.001-0.025c0-0.293,0.228-0.531,0.509-0.531
			c0.281,0,0.51,0.238,0.51,0.531c0,0.008-0.001,0.018-0.001,0.025h0.75c0-0.008,0.001-0.018,0.001-0.025
			c0-0.725-0.565-1.313-1.26-1.313c-0.695,0-1.259,0.588-1.259,1.313c0,0.008,0.001,0.018,0.001,0.025H17.664z"/>
		<path fill="#010300" d="M26.716,21.252c0-0.008-0.001-0.018-0.001-0.025c0-0.293,0.228-0.531,0.51-0.531
			c0.28,0,0.509,0.238,0.509,0.531c0,0.008-0.001,0.018-0.001,0.025h0.75c0-0.008,0.001-0.018,0.001-0.025
			c0-0.725-0.563-1.313-1.259-1.313c-0.696,0-1.26,0.588-1.26,1.313c0,0.008,0.001,0.018,0.001,0.025H26.716z"/>
		<path fill="#211915" d="M18.175,24.498c-1.93,0-3.5-1.568-3.5-3.498c0-1.932,1.57-3.502,3.5-3.502s3.501,1.57,3.501,3.502
			C21.676,22.93,20.105,24.498,18.175,24.498 M18.175,18.328c-1.472,0-2.67,1.197-2.67,2.672c0,1.471,1.198,2.67,2.67,2.67
			c1.473,0,2.67-1.199,2.67-2.67C20.845,19.525,19.647,18.328,18.175,18.328"/>
		<path fill="#211915" d="M27.246,24.498c-1.93,0-3.5-1.568-3.5-3.498c0-1.932,1.57-3.502,3.5-3.502c1.931,0,3.501,1.57,3.501,3.502
			C30.748,22.93,29.177,24.498,27.246,24.498 M27.246,18.328c-1.472,0-2.67,1.197-2.67,2.672c0,1.471,1.198,2.67,2.67,2.67
			c1.473,0,2.671-1.199,2.671-2.67C29.917,19.525,28.719,18.328,27.246,18.328"/>
		<path fill="#211915" d="M24.031,21.465c-0.364-0.318-0.836-0.494-1.328-0.494c-0.435,0-0.847,0.133-1.193,0.389l-0.491-0.672
			c0.489-0.357,1.072-0.547,1.684-0.547c0.693,0,1.358,0.248,1.875,0.699L24.031,21.465z"/>
	</g>
</g>
</svg>
