<?xml version="1.0" encoding="utf-8"?>
<!-- Generator: Adobe Illustrator 16.0.0, SVG Export Plug-In . SVG Version: 6.00 Build 0)  -->
<!DOCTYPE svg PUBLIC "-//W3C//DTD SVG 1.1//EN" "http://www.w3.org/Graphics/SVG/1.1/DTD/svg11.dtd">
<svg version="1.1" id="Layer_1" xmlns="http://www.w3.org/2000/svg" xmlns:xlink="http://www.w3.org/1999/xlink" x="0px" y="0px"
	 width="100px" height="100px" viewBox="0 0 100 100" enable-background="new 0 0 100 100" xml:space="preserve">
<g>
	<path fill="#D58500" d="M77.188,40.843l-2.396,2.465L60.409,28.529l2.396-2.465c2.648-2.722,6.942-2.722,9.59,0l4.794,4.927
		C79.833,33.711,79.833,38.122,77.188,40.843z M43.63,70.398c-0.662,0.679-0.662,1.778,0,2.462c0.662,0.683,1.735,0.683,2.397,0
		L72.395,45.77l-2.399-2.464L43.63,70.398z M31.646,58.084c-0.663,0.68-0.663,1.78,0,2.462c0.662,0.68,1.732,0.68,2.396,0
		l26.367-27.092l-2.396-2.463L31.646,58.084z M62.803,35.915L36.438,63.008c-1.324,1.358-1.321,3.566,0,4.927
		c1.324,1.361,3.469,1.368,4.796-0.004L67.6,40.843L62.803,35.915z M41.228,75.316c-0.811-0.835-1.202-1.892-1.347-2.979
		c-0.345,0.054-0.692,0.105-1.047,0.105c-1.81,0-3.511-0.729-4.792-2.044c-1.281-1.321-1.986-3.067-1.986-4.929
		c0-0.338,0.049-0.669,0.096-0.997c-1.096-0.155-2.109-0.646-2.902-1.465c-0.077-0.076-0.104-0.183-0.173-0.268l-4.138,17.015
		l16.514-4.248C41.38,75.438,41.298,75.387,41.228,75.316z"/>
</g>
</svg>
