<?xml version="1.0" encoding="utf-8"?>
<!-- Generator: Adobe Illustrator 16.0.0, SVG Export Plug-In . SVG Version: 6.00 Build 0)  -->
<!DOCTYPE svg PUBLIC "-//W3C//DTD SVG 1.1//EN" "http://www.w3.org/Graphics/SVG/1.1/DTD/svg11.dtd">
<svg version="1.1" id="Layer_1" xmlns="http://www.w3.org/2000/svg" xmlns:xlink="http://www.w3.org/1999/xlink" x="0px" y="0px"
	 width="20px" height="20px" viewBox="0 0 20 20" enable-background="new 0 0 20 20" xml:space="preserve">
<g>
	<path id="path-1" fill="#FFFFFF" d="M14.682,16.212l0.438,2.81c-0.734,0.418-1.526,0.75-2.359,0.979l-1.678-2.297
		c-0.354,0.05-0.715,0.075-1.082,0.075s-0.729-0.025-1.082-0.075L7.241,20c-0.833-0.229-1.625-0.561-2.36-0.979l0.438-2.811
		c-0.578-0.438-1.093-0.952-1.53-1.529l-2.81,0.438C0.561,14.385,0.229,13.593,0,12.76l2.296-1.678
		C2.247,10.729,2.222,10.367,2.222,10s0.025-0.729,0.075-1.082L0,7.241c0.229-0.833,0.561-1.625,0.979-2.36l2.81,0.438
		c0.437-0.578,0.952-1.093,1.53-1.53L4.88,0.979C5.616,0.561,6.407,0.229,7.241,0l1.677,2.296C9.271,2.247,9.633,2.222,10,2.222
		s0.729,0.025,1.082,0.075L12.76,0c0.833,0.229,1.625,0.561,2.359,0.979l-0.438,2.81c0.577,0.437,1.094,0.952,1.529,1.53
		l2.811-0.438C19.439,5.616,19.77,6.408,20,7.241l-2.297,1.677c0.05,0.354,0.074,0.715,0.074,1.082s-0.024,0.729-0.074,1.082
		L20,12.76c-0.229,0.833-0.561,1.625-0.979,2.359l-2.811-0.438C15.775,15.26,15.26,15.775,14.682,16.212L14.682,16.212z M10,13.889
		c2.148,0,3.889-1.74,3.889-3.889c0-2.148-1.74-3.889-3.889-3.889c-2.148,0-3.889,1.741-3.889,3.889
		C6.111,12.148,7.852,13.889,10,13.889z"/>
</g>
<title>preferences</title>
<g id="IDEs">
	<g id="Desktop-IDE-light">
		<g id="preferences">
			<g id="Combined-Shape">
				<path id="path-1_1_" fill="#7FBBD4" d="M14.682,16.212l0.438,2.81c-0.734,0.418-1.526,0.75-2.359,0.979l-1.678-2.297
					c-0.354,0.05-0.715,0.075-1.082,0.075s-0.729-0.025-1.082-0.075L7.241,20c-0.833-0.229-1.625-0.561-2.36-0.979l0.438-2.811
					c-0.578-0.438-1.093-0.952-1.53-1.529l-2.81,0.438C0.561,14.385,0.229,13.593,0,12.76l2.296-1.678
					C2.247,10.729,2.222,10.367,2.222,10s0.025-0.729,0.075-1.082L0,7.241c0.229-0.833,0.561-1.625,0.979-2.36l2.81,0.438
					c0.437-0.578,0.952-1.093,1.53-1.53L4.88,0.979C5.616,0.561,6.407,0.229,7.241,0l1.677,2.296C9.271,2.247,9.633,2.222,10,2.222
					s0.729,0.025,1.082,0.075L12.76,0c0.833,0.229,1.625,0.561,2.359,0.979l-0.438,2.81c0.577,0.437,1.094,0.952,1.529,1.53
					l2.811-0.438C19.439,5.616,19.77,6.408,20,7.241l-2.297,1.677c0.05,0.354,0.074,0.715,0.074,1.082s-0.024,0.729-0.074,1.082
					L20,12.76c-0.229,0.833-0.561,1.625-0.979,2.359l-2.811-0.438C15.775,15.26,15.26,15.775,14.682,16.212L14.682,16.212z
					 M10,13.889c2.148,0,3.889-1.74,3.889-3.889c0-2.148-1.74-3.889-3.889-3.889c-2.148,0-3.889,1.741-3.889,3.889
					C6.111,12.148,7.852,13.889,10,13.889z"/>
			</g>
		</g>
	</g>
</g>
</svg>
