<?xml version="1.0" encoding="utf-8"?>
<!-- Generator: Adobe Illustrator 16.0.0, SVG Export Plug-In . SVG Version: 6.00 Build 0)  -->
<!DOCTYPE svg PUBLIC "-//W3C//DTD SVG 1.1//EN" "http://www.w3.org/Graphics/SVG/1.1/DTD/svg11.dtd">
<svg version="1.1" id="Layer_1" xmlns="http://www.w3.org/2000/svg" xmlns:xlink="http://www.w3.org/1999/xlink" x="0px" y="0px"
	 width="14.999px" height="18.89px" viewBox="553.5 551.555 14.999 18.89" enable-background="new 553.5 551.555 14.999 18.89"
	 xml:space="preserve">
<g id="Bg">
</g>
<g id="Object">
	<g>
		<path fill="#616E7D" d="M563.845,557.111c0.47,0.305,1.032,0.482,1.634,0.482c1.664,0,3.021-1.354,3.021-3.021
			c0-1.665-1.356-3.019-3.021-3.019c-1.666,0-3.023,1.354-3.023,3.019c0,0.281,0.041,0.549,0.112,0.809l-1.79,1.27l-2.837,2.015
			c-0.425-0.225-0.906-0.354-1.418-0.354c-1.667,0-3.022,1.355-3.022,3.019c0,1.666,1.355,3.02,3.022,3.02
			c0.718,0,1.38-0.254,1.9-0.674l2.354,1.672l1.79,1.273c-0.071,0.253-0.112,0.521-0.112,0.805c0,1.664,1.357,3.019,3.023,3.019
			c1.664,0,3.021-1.354,3.021-3.019c0-1.665-1.356-3.018-3.021-3.018c-0.604,0-1.165,0.178-1.637,0.483l-2.563-1.821l-1.774-1.257
			c0.024-0.159,0.041-0.318,0.041-0.483c0-0.364-0.067-0.713-0.188-1.038l1.922-1.362L563.845,557.111z M565.411,552.843
			c0.939,0,1.701,0.763,1.701,1.702c0,0.94-0.762,1.702-1.701,1.702s-1.702-0.762-1.702-1.702
			C563.71,553.604,564.472,552.843,565.411,552.843z M556.488,563.129c-0.939,0-1.702-0.76-1.702-1.7
			c0-0.939,0.763-1.702,1.702-1.702c0.938,0,1.699,0.763,1.699,1.702C558.187,562.369,557.426,563.129,556.488,563.129z
			 M565.411,565.749c0.939,0,1.701,0.759,1.701,1.7c0,0.938-0.762,1.699-1.701,1.699s-1.702-0.763-1.702-1.699
			C563.71,566.508,564.472,565.749,565.411,565.749z"/>
		<path fill="#AAD4C8" d="M563.71,567.449c0,0.938,0.762,1.698,1.701,1.698s1.701-0.762,1.701-1.698c0-0.941-0.762-1.7-1.701-1.7
			S563.71,566.508,563.71,567.449z"/>
		<circle fill="#AAD4C8" cx="556.487" cy="561.429" r="1.701"/>
		<circle fill="#AAD4C8" cx="565.411" cy="554.544" r="1.702"/>
	</g>
</g>
</svg>
