<?xml version="1.0" encoding="utf-8"?>
<!-- Generator: Adobe Illustrator 16.0.0, SVG Export Plug-In . SVG Version: 6.00 Build 0)  -->
<!DOCTYPE svg PUBLIC "-//W3C//DTD SVG 1.1//EN" "http://www.w3.org/Graphics/SVG/1.1/DTD/svg11.dtd">
<svg version="1.1" xmlns="http://www.w3.org/2000/svg" xmlns:xlink="http://www.w3.org/1999/xlink" x="0px" y="0px" width="1122px"
	 height="1122px" viewBox="0 0 1122 1122" enable-background="new 0 0 1122 1122" xml:space="preserve">
<g id="Bg">
</g>
<g id="Object">
	<g>
		<path fill="#616E7D" d="M565.738,554.517c0.786,0.508,1.721,0.806,2.724,0.806c2.777,0,5.038-2.258,5.038-5.032
			s-2.261-5.031-5.038-5.031s-5.037,2.256-5.037,5.031c0,0.466,0.068,0.916,0.188,1.346l-2.985,2.118l-4.729,3.354
			c-0.706-0.375-1.507-0.59-2.362-0.59c-2.777,0-5.037,2.257-5.037,5.031c0,2.774,2.26,5.031,5.037,5.031
			c1.198,0,2.299-0.421,3.164-1.121l3.928,2.786l2.985,2.118c-0.12,0.428-0.188,0.877-0.188,1.345c0,2.773,2.26,5.031,5.037,5.031
			s5.038-2.258,5.038-5.031s-2.261-5.031-5.038-5.031c-1.005,0-1.94,0.299-2.728,0.807l-4.273-3.032l-2.956-2.098
			c0.042-0.263,0.07-0.53,0.07-0.805c0-0.608-0.115-1.189-0.313-1.729l3.199-2.27L565.738,554.517z M568.351,547.406
			c1.564,0,2.835,1.27,2.835,2.834c0,1.566-1.271,2.836-2.835,2.836c-1.566,0-2.836-1.27-2.836-2.836
			C565.515,548.676,566.784,547.406,568.351,547.406z M553.479,564.55c-1.567,0-2.836-1.269-2.836-2.835
			c0-1.565,1.269-2.834,2.836-2.834c1.565,0,2.834,1.27,2.834,2.834C556.313,563.281,555.044,564.55,553.479,564.55z
			 M568.351,568.913c1.564,0,2.835,1.269,2.835,2.834c0,1.566-1.271,2.836-2.835,2.836c-1.566,0-2.836-1.27-2.836-2.836
			C565.515,570.182,566.784,568.913,568.351,568.913z"/>
		<circle fill="#AAD4C8" cx="568.35" cy="571.747" r="2.835"/>
		<circle fill="#AAD4C8" cx="553.479" cy="561.714" r="2.835"/>
		<circle fill="#AAD4C8" cx="568.35" cy="550.241" r="2.835"/>
	</g>
</g>
</svg>
