<?xml version="1.0" encoding="utf-8"?>
<!-- Generator: Adobe Illustrator 16.0.0, SVG Export Plug-In . SVG Version: 6.00 Build 0)  -->
<!DOCTYPE svg PUBLIC "-//W3C//DTD SVG 1.1//EN" "http://www.w3.org/Graphics/SVG/1.1/DTD/svg11.dtd">
<svg version="1.1" xmlns="http://www.w3.org/2000/svg" xmlns:xlink="http://www.w3.org/1999/xlink" x="0px" y="0px" width="1122px"
	 height="1122px" viewBox="0 0 1122 1122" enable-background="new 0 0 1122 1122" xml:space="preserve">
<g id="Bg">
</g>
<g id="Object">
	<g>
		<path fill="#616E7D" d="M562.896,558.407c0.314,0.203,0.688,0.322,1.089,0.322c1.111,0,2.016-0.903,2.016-2.013
			s-0.904-2.012-2.016-2.012c-1.11,0-2.015,0.902-2.015,2.012c0,0.187,0.027,0.366,0.075,0.538l-1.193,0.847l-1.892,1.342
			c-0.282-0.15-0.603-0.236-0.945-0.236c-1.111,0-2.015,0.903-2.015,2.012c0,1.11,0.904,2.013,2.015,2.013
			c0.479,0,0.92-0.168,1.266-0.448l1.571,1.114l1.193,0.848c-0.048,0.171-0.075,0.351-0.075,0.537c0,1.109,0.904,2.013,2.015,2.013
			c1.111,0,2.016-0.903,2.016-2.013s-0.904-2.012-2.016-2.012c-0.401,0-0.775,0.119-1.091,0.322l-1.709-1.213l-1.183-0.839
			c0.017-0.105,0.028-0.212,0.028-0.322c0-0.243-0.046-0.476-0.125-0.691l1.28-0.908L562.896,558.407z M563.94,555.563
			c0.626,0,1.134,0.508,1.134,1.134c0,0.626-0.508,1.134-1.134,1.134c-0.627,0-1.135-0.508-1.135-1.134
			C562.806,556.07,563.313,555.563,563.94,555.563z M557.992,562.42c-0.626,0-1.134-0.507-1.134-1.134
			c0-0.626,0.508-1.134,1.134-1.134c0.626,0,1.134,0.508,1.134,1.134C559.125,561.913,558.618,562.42,557.992,562.42z
			 M563.94,564.165c0.626,0,1.134,0.508,1.134,1.134c0,0.627-0.508,1.135-1.134,1.135c-0.627,0-1.135-0.508-1.135-1.135
			C562.806,564.673,563.313,564.165,563.94,564.165z"/>
		<circle fill="#AAD4C8" cx="563.94" cy="565.299" r="1.134"/>
		<circle fill="#AAD4C8" cx="557.991" cy="561.286" r="1.134"/>
		<circle fill="#AAD4C8" cx="563.94" cy="556.696" r="1.134"/>
	</g>
</g>
</svg>
