<?xml version="1.0" encoding="utf-8"?>
<!-- Generator: Adobe Illustrator 16.0.0, SVG Export Plug-In . SVG Version: 6.00 Build 0)  -->
<!DOCTYPE svg PUBLIC "-//W3C//DTD SVG 1.1//EN" "http://www.w3.org/Graphics/SVG/1.1/DTD/svg11.dtd">
<svg version="1.1" id="Layer_1" xmlns="http://www.w3.org/2000/svg" xmlns:xlink="http://www.w3.org/1999/xlink" x="0px" y="0px"
	 width="15px" height="17px" viewBox="0 0 15 17" enable-background="new 0 0 15 17" xml:space="preserve">
<g>
	<g id="_x34__19_">
		<g>
			<path fill="#FFFFFF" d="M11.052,14.927c0.228,0,0.411-0.185,0.411-0.411V9.59c0-0.227-0.184-0.41-0.411-0.41
				c-0.227,0-0.41,0.184-0.41,0.41v4.926C10.642,14.742,10.825,14.927,11.052,14.927z M13.516,5.073h-2.464V4.252
				c0-0.454-0.367-0.821-0.82-0.821H7.768c-0.453,0-0.821,0.367-0.821,0.821v0.821H4.483c-0.454,0-0.821,0.368-0.821,0.821v0.821
				c0,0.453,0.367,0.821,0.821,0.821v7.39c0,0.907,0.735,1.642,1.643,1.642h5.747c0.907,0,1.643-0.734,1.643-1.642v-7.39
				c0.453,0,0.821-0.368,0.821-0.821V5.895C14.337,5.441,13.969,5.073,13.516,5.073z M7.768,4.663c0-0.227,0.185-0.41,0.411-0.41
				H9.82c0.228,0,0.411,0.184,0.411,0.41v0.411c-0.398,0-2.464,0-2.464,0V4.663z M12.694,14.927c0,0.453-0.367,0.821-0.821,0.821
				H6.126c-0.454,0-0.821-0.368-0.821-0.821v-7.39h7.39V14.927z M13.104,6.716H4.894c-0.227,0-0.41-0.184-0.41-0.411
				c0-0.227,0.184-0.411,0.41-0.411h8.211c0.228,0,0.411,0.184,0.411,0.411C13.516,6.532,13.332,6.716,13.104,6.716z M6.946,14.927
				c0.227,0,0.411-0.185,0.411-0.411V9.59c0-0.227-0.185-0.41-0.411-0.41s-0.41,0.184-0.41,0.41v4.926
				C6.536,14.742,6.72,14.927,6.946,14.927z M8.999,14.927c0.227,0,0.411-0.185,0.411-0.411V9.59c0-0.227-0.185-0.41-0.411-0.41
				s-0.41,0.184-0.41,0.41v4.926C8.589,14.742,8.772,14.927,8.999,14.927z"/>
		</g>
	</g>
</g>
</svg>
