<?xml version="1.0" encoding="utf-8"?>
<!-- Generator: Adobe Illustrator 16.0.0, SVG Export Plug-In . SVG Version: 6.00 Build 0)  -->
<!DOCTYPE svg PUBLIC "-//W3C//DTD SVG 1.1//EN" "http://www.w3.org/Graphics/SVG/1.1/DTD/svg11.dtd">
<svg version="1.1" id="Layer_1" xmlns="http://www.w3.org/2000/svg" xmlns:xlink="http://www.w3.org/1999/xlink" x="0px" y="0px"
	 width="9.2px" height="11px" viewBox="0 0 9.2 11" enable-background="new 0 0 9.2 11" xml:space="preserve">
<circle fill="#D58500" cx="3" cy="3" r="2.8"/>
<g>
	<g>
		<path fill="#FFFFFF" d="M2.283,2.284c0.056-0.056,0.063-0.131,0.011-0.192L2.04,1.808c-0.05-0.056-0.136-0.061-0.192-0.01
			C1.791,1.848,1.786,1.934,1.837,1.99l0.254,0.285C2.162,2.35,2.254,2.314,2.283,2.284z"/>
		<path fill="#FFFFFF" d="M4.152,1.797C4.097,1.747,4.01,1.751,3.96,1.808L3.707,2.091c-0.052,0.062-0.045,0.137,0.01,0.192
			c0.03,0.03,0.122,0.065,0.193-0.01l0.253-0.285C4.214,1.933,4.209,1.847,4.152,1.797z"/>
		<path fill="#FFFFFF" d="M1.857,2.95H1.498c-0.075,0-0.136,0.061-0.136,0.136s0.061,0.136,0.136,0.136h0.359
			c0.076,0,0.136-0.06,0.136-0.136C1.994,3.011,1.933,2.95,1.857,2.95z"/>
		<path fill="#FFFFFF" d="M4.501,2.95H4.142c-0.076,0-0.137,0.061-0.137,0.136s0.061,0.136,0.137,0.136h0.359
			c0.076,0,0.136-0.06,0.136-0.136C4.637,3.011,4.577,2.95,4.501,2.95z"/>
		<path fill="#FFFFFF" d="M3,2.131c0.076,0,0.136-0.061,0.136-0.137V1.593c0-0.077-0.06-0.137-0.136-0.137
			c-0.075,0-0.136,0.061-0.136,0.137v0.401C2.863,2.069,2.924,2.131,3,2.131z"/>
		<path fill="#FFFFFF" d="M3,2.305c-0.487,0-0.884,0.396-0.884,0.884v1.219c0,0.075,0.062,0.136,0.136,0.136h1.495
			c0.075,0,0.136-0.061,0.136-0.136V3.188C3.883,2.701,3.486,2.305,3,2.305L3,2.305z M3.61,4.271H3.136v-0.71h0.047
			c0.075,0,0.136-0.061,0.136-0.136c0-0.075-0.062-0.137-0.136-0.137H2.816c-0.076,0-0.137,0.062-0.137,0.137
			c0,0.076,0.061,0.136,0.137,0.136h0.047v0.71H2.389V3.188c0-0.336,0.273-0.61,0.611-0.61c0.335,0,0.61,0.274,0.61,0.61L3.61,4.271
			L3.61,4.271z"/>
	</g>
</g>
</svg>
