<svg xmlns="http://www.w3.org/2000/svg" viewBox="0 0 30.25 30.25"><defs><style>.cls-1{fill:#fff;}.cls-2{fill:#42bcd6;}</style></defs><title>Ativo 5</title><g id="Camada_2" data-name="Camada 2"><g id="Camada_1-2" data-name="Camada 1"><circle class="cls-1" cx="15.13" cy="15.13" r="15.13"/><path id="Icon_awesome-cog" data-name="Icon awesome-cog" class="cls-2" d="M21.41,16.74l-1.16-.66a5.11,5.11,0,0,0,0-1.91l1.16-.67a.34.34,0,0,0,.15-.38,6.78,6.78,0,0,0-1.49-2.57.32.32,0,0,0-.4-.06l-1.16.67a4.94,4.94,0,0,0-1.65-.95V8.87a.33.33,0,0,0-.25-.32,7.08,7.08,0,0,0-3,0,.33.33,0,0,0-.25.32v1.34a5.12,5.12,0,0,0-1.65.95l-1.16-.67a.32.32,0,0,0-.4.07,6.74,6.74,0,0,0-1.49,2.56.35.35,0,0,0,.15.39l1.16.66a5.11,5.11,0,0,0,0,1.91l-1.16.67a.33.33,0,0,0-.15.38,6.86,6.86,0,0,0,1.49,2.57.33.33,0,0,0,.4.06l1.16-.67a4.94,4.94,0,0,0,1.65.95v1.34a.34.34,0,0,0,.25.32,7.08,7.08,0,0,0,3,0,.33.33,0,0,0,.25-.32V20a5.12,5.12,0,0,0,1.65-.95l1.16.67a.32.32,0,0,0,.4-.07,6.74,6.74,0,0,0,1.49-2.56A.35.35,0,0,0,21.41,16.74Zm-6.28.56a2.18,2.18,0,1,1,2.17-2.18,2.19,2.19,0,0,1-2.17,2.18Z"/></g></g></svg>