<?xml version="1.0" encoding="utf-8"?>
<!-- Generator: Adobe Illustrator 24.1.2, SVG Export Plug-In . SVG Version: 6.00 Build 0)  -->
<svg version="1.1" id="Camada_1" xmlns="http://www.w3.org/2000/svg" xmlns:xlink="http://www.w3.org/1999/xlink" x="0px" y="0px"
	 viewBox="0 0 29.4 29.4" style="enable-background:new 0 0 29.4 29.4;" xml:space="preserve">
<style type="text/css">
	.st0{fill:#FFFFFF;}
</style>
<g id="Camada_2_1_">
	<g id="Camada_1-2">
		<circle id="Ellipse_1" class="st0" cx="14.7" cy="21.1" r="1.3"/>
		<g id="Component_1_1">
			<path id="Path_32" class="st0" d="M14.7,1.5C7.4,1.5,1.5,7.4,1.5,14.7S7.4,28,14.7,28S28,22,28,14.7l0,0C28,7.4,22,1.5,14.7,1.5
				C14.7,1.5,14.7,1.5,14.7,1.5L14.7,1.5z M14.7,25.9c-6.2,0-11.2-5-11.2-11.2s5-11.2,11.2-11.2s11.2,5,11.2,11.2c0,0,0,0,0,0l0,0
				C25.9,20.9,20.9,25.9,14.7,25.9C14.8,25.9,14.7,25.9,14.7,25.9L14.7,25.9z"/>
			<path id="Path_33" class="st0" d="M14.7,8.1c-2.3,0-4.1,1.9-4.1,4.1c0,0.6,0.5,1,1,1c0.6,0,1-0.5,1-1c0-1.1,0.9-2.1,2.1-2.1
				s2.1,0.9,2.1,2.1s-0.9,2.1-2.1,2.1l0,0c-0.6,0-1,0.5-1,1l0,0V18c0,0.6,0.5,1,1,1c0.6,0,1-0.5,1-1l0,0v-1.7c2.2-0.6,3.6-2.8,3-5
				C18.3,9.4,16.6,8.1,14.7,8.1z"/>
		</g>
	</g>
</g>
</svg>
