<?xml version="1.0" encoding="utf-8"?>
<!-- Generator: Adobe Illustrator 24.1.2, SVG Export Plug-In . SVG Version: 6.00 Build 0)  -->
<svg version="1.1" id="Camada_1" xmlns="http://www.w3.org/2000/svg" xmlns:xlink="http://www.w3.org/1999/xlink" x="0px" y="0px"
	 viewBox="0 0 25.7 29.3" style="enable-background:new 0 0 25.7 29.3;" xml:space="preserve">
<style type="text/css">
	.st0{fill:#FFFFFF;}
</style>
<g id="Camada_2_1_">
	<g id="Camada_1-2">
		<path id="Icon_awesome-share-alt" class="st0" d="M19.4,17.9c-1.1,0-2.2,0.4-3.1,1.1l-5.3-3.3c0.2-0.7,0.2-1.4,0-2.2l5.3-3.3
			c2.1,1.7,5.2,1.3,6.9-0.8s1.3-5.2-0.8-6.9s-5.2-1.3-6.9,0.8c-0.9,1.2-1.3,2.7-0.9,4.1l-5.3,3.3c-2.1-1.7-5.3-1.4-7,0.8
			s-1.4,5.3,0.8,7c1.8,1.4,4.4,1.4,6.2,0l5.3,3.3c-0.6,2.7,1.1,5.3,3.8,5.9s5.3-1.1,5.9-3.8c0.6-2.7-1.1-5.3-3.7-5.9
			C20.2,18,19.8,17.9,19.4,17.9z"/>
	</g>
</g>
</svg>
