<svg xmlns="http://www.w3.org/2000/svg" viewBox="0 0 24.67 28.39"><defs><style>.cls-1{fill:#fff;}</style></defs><title>Ativo 6</title><g id="Camada_2" data-name="Camada 2"><g id="Camada_1-2" data-name="Camada 1"><path id="Path_25" data-name="Path 25" class="cls-1" d="M13.54,3.89l-11,11a1.11,1.11,0,0,0,0,1.56,1.09,1.09,0,0,0,1.55,0l0,0,11-11Z"/><path id="Path_26" data-name="Path 26" class="cls-1" d="M3.3,18.41a2.69,2.69,0,0,1-1.92-.81,2.67,2.67,0,0,1-.31-.36L0,21.71l4.47-1.07A2.75,2.75,0,0,1,3.3,18.41Z"/><path id="Path_27" data-name="Path 27" class="cls-1" d="M21.71,4.28V2.79L18.92,0H17.43L14.72,2.71,19,7Z"/><path id="Path_28" data-name="Path 28" class="cls-1" d="M6.84,19.16l11-11L16.27,6.62l-11,11h0a1.1,1.1,0,1,0,1.56,1.56Z"/><path id="Path_29" data-name="Path 29" class="cls-1" d="M22.2,20.16H7.51L5.85,21.82H22.2a.81.81,0,0,1,0,1.62H15.64a2.48,2.48,0,0,0,0,4.95h3.95V26.73H15.64a.81.81,0,0,1,0-1.62H22.2a2.48,2.48,0,0,0,0-4.95Z"/></g></g></svg>