<svg xmlns="http://www.w3.org/2000/svg" viewBox="0 0 42.75 27.82"><defs><style>.cls-1{fill:#42bcd6;}.cls-2{fill:#1f94a3;}.cls-3{fill:#fff;}.cls-4{fill:#f2f2f2;}</style></defs><title>Ativo 2</title><g id="Camada_2" data-name="Camada 2"><g id="Camada_1-2" data-name="Camada 1"><path id="Path_36" data-name="Path 36" class="cls-1" d="M27,.39a5.66,5.66,0,0,0-5.66,5.66h0A5.67,5.67,0,0,0,15.72.39H0V26H15.71a5.59,5.59,0,0,1,4.15,1.81h3A5.59,5.59,0,0,1,27,26H42.75V.39Z"/><path id="Path_37" data-name="Path 37" class="cls-2" d="M27,26H42.75V.39H27a5.66,5.66,0,0,0-5.66,5.66V27.81h1.51A5.62,5.62,0,0,1,27,26Z"/><path id="Path_38" data-name="Path 38" class="cls-3" d="M26.4,0a5,5,0,0,0-5,5h0a5,5,0,0,0-5-5h-14V22.76h14a5,5,0,0,1,4,2h2a5,5,0,0,1,4-2h14V0Z"/><path id="Path_39" data-name="Path 39" class="cls-4" d="M26.4,22.76h14V0h-14a5,5,0,0,0-5,5h0V24.78h1A5,5,0,0,1,26.4,22.76Z"/><g id="Group_69" data-name="Group 69"><path id="Path_40" data-name="Path 40" class="cls-1" d="M7.38,7.14,8.61,9.63l2.74.4L9.37,12l.47,2.73L7.38,13.4,4.93,14.69,5.4,12,3.42,10l2.74-.4Z"/><path id="Path_41" data-name="Path 41" class="cls-1" d="M16.71,7.14l1.23,2.49,2.74.4L18.7,12l.46,2.73L16.71,13.4l-2.45,1.29L14.73,12l-2-1.93,2.74-.4Z"/></g><g id="Group_70" data-name="Group 70"><path id="Path_42" data-name="Path 42" class="cls-2" d="M26,7.14l1.22,2.49L30,10,28,12l.47,2.73L26,13.4l-2.46,1.29L24.05,12l-2-1.93,2.74-.4Z"/><path id="Path_43" data-name="Path 43" class="cls-2" d="M35.37,7.14l1.22,2.49,2.75.4-2,1.93.47,2.73L35.37,13.4l-2.46,1.29L33.38,12,31.4,10l2.74-.4Z"/></g></g></g></svg>