<svg xmlns="http://www.w3.org/2000/svg" viewBox="0 0 29.44 29.44"><defs><style>.cls-1{fill:#fff;}</style></defs><title>Ativo 3</title><g id="Camada_2" data-name="Camada 2"><g id="Camada_1-2" data-name="Camada 1"><circle id="Ellipse_1" data-name="Ellipse 1" class="cls-1" cx="14.72" cy="21.77" r="1.44"/><g id="Component_1_1" data-name="Component 1 1"><path id="Path_32" data-name="Path 32" class="cls-1" d="M14.72,0A14.72,14.72,0,1,0,29.44,14.72h0A14.71,14.71,0,0,0,14.74,0Zm0,27.14A12.42,12.42,0,1,1,27.14,14.72h0a12.4,12.4,0,0,1-12.4,12.42Z"/><path id="Path_33" data-name="Path 33" class="cls-1" d="M14.72,7.39a4.6,4.6,0,0,0-4.6,4.6,1.15,1.15,0,1,0,2.3,0,2.3,2.3,0,1,1,2.3,2.3h0a1.16,1.16,0,0,0-1.15,1.15h0v2.88a1.15,1.15,0,1,0,2.3,0h0V16.45a4.6,4.6,0,0,0-1.15-9.06Z"/></g></g></g></svg>