<?xml version="1.0" encoding="utf-8"?>
<!-- Generator: Adobe Illustrator 24.1.2, SVG Export Plug-In . SVG Version: 6.00 Build 0)  -->
<svg version="1.1" id="Camada_1" xmlns="http://www.w3.org/2000/svg" xmlns:xlink="http://www.w3.org/1999/xlink" x="0px" y="0px"
	 viewBox="0 0 29.5 21.3" style="enable-background:new 0 0 29.5 21.3;" xml:space="preserve">
<style type="text/css">
	.st0{fill:#FFFFFF;}
</style>
<g id="Camada_2_1_">
	<g id="Camada_1-2">
		<path class="st0" d="M2.4,4.8h24.7c0.5,0,0.9-0.3,1-0.8l0,0V1.9c0-0.5-0.5-0.9-1-0.8H2.4C1.9,1,1.5,1.4,1.5,1.9l0,0V4
			C1.5,4.5,1.9,4.9,2.4,4.8z"/>
		<path class="st0" d="M2.4,12.5h24.7c0.5,0,0.9-0.3,1-0.8l0,0V9.6c0-0.5-0.5-0.9-1-0.8H2.4c-0.5,0-0.9,0.4-0.9,0.8h0v2.1
			C1.5,12.2,1.9,12.6,2.4,12.5z"/>
		<path class="st0" d="M2.4,20.2h24.7c0.5,0,0.9-0.3,1-0.8l0,0v-2.1c0-0.5-0.5-0.9-1-0.8H2.4c-0.5,0-0.9,0.3-0.9,0.8l0,0v2.1
			C1.5,19.9,1.9,20.2,2.4,20.2L2.4,20.2z"/>
	</g>
</g>
</svg>
