<svg xmlns="http://www.w3.org/2000/svg" viewBox="0 0 29.51 21.29"><defs><style>.cls-1{fill:#fff;}</style></defs><title>Ativo 1</title><g id="Camada_2" data-name="Camada 2"><g id="Camada_1-2" data-name="Camada 1"><path class="cls-1" d="M1.05,4.2h27.4a1,1,0,0,0,1.06-.93h0V.93A1,1,0,0,0,28.45,0H1.05A1,1,0,0,0,0,.93H0V3.27a1,1,0,0,0,1.05.93Z"/><path class="cls-1" d="M1.05,12.74h27.4a1,1,0,0,0,1.06-.93h0V9.48a1,1,0,0,0-1.06-.93H1.05a1,1,0,0,0-1,.93H0v2.33a1,1,0,0,0,1.05.93Z"/><path class="cls-1" d="M1.05,21.29h27.4a1,1,0,0,0,1.06-.93h0V18a1,1,0,0,0-1.06-.93H1.05A1,1,0,0,0,0,18H0v2.34a1,1,0,0,0,1.05.93Z"/></g></g></svg>