<svg xmlns="http://www.w3.org/2000/svg" viewBox="0 0 715.89 116.03"><defs><style>.cls-1,.cls-3{fill:#fff;}.cls-2{fill:#4d4b4d;}.cls-3{font-size:51.38px;font-family:Montserrat-ExtraBold, Montserrat;font-weight:800;letter-spacing:0.13em;}.cls-4{letter-spacing:0.12em;}.cls-5{letter-spacing:0.11em;}.cls-6{letter-spacing:0.13em;}.cls-7{letter-spacing:0.12em;}</style></defs><title>Ativo 1</title><g id="Camada_2" data-name="Camada 2"><g id="Camada_1-2" data-name="Camada 1"><rect class="cls-1" width="715.89" height="116.03" rx="5.4"/><rect class="cls-2" x="11.43" y="11.43" width="682.07" height="93.29" rx="5.39"/><text class="cls-3" transform="translate(66.09 78.67) scale(1.01 1)">I<tspan class="cls-4" x="23.89" y="0">N</tspan><tspan class="cls-5" x="71.68" y="0">V</tspan><tspan class="cls-6" x="116.74" y="0">EN</tspan><tspan class="cls-7" x="205.64" y="0">T</tspan><tspan class="cls-6" x="244.23" y="0">OR</tspan></text><path class="cls-1" d="M549.91,47.67a11.43,11.43,0,0,1-2.41,5c-2,2.58-6,3.76-6,3.76a42.72,42.72,0,0,0,4-7.64c1.29-3.6,1.13-9.94,1.13-9.94a22.5,22.5,0,0,1-6.35,2.3,20,20,0,0,1-6.46.06s1.74-.73,4.83-2a15.13,15.13,0,0,0,4.66-3.71,12.78,12.78,0,0,1-2.64.17c-3.09-.17-3.71-5.78-10.33-6.85-7.87-1.27-12.08,2.58-12.08,2.58s-1.57-5.95-9.21-8.09c-5.5-1.53-12.31,1.91-12.31,1.91a10.71,10.71,0,0,1,5.34,1.8,11.52,11.52,0,0,1,4.07,5.11s-9.05-7.64-17.55-5.9A14.57,14.57,0,0,0,478,35.42a28.53,28.53,0,0,1,6.57,1.07,25.83,25.83,0,0,1,7.53,3.59,28.74,28.74,0,0,0-8.43-.39c-3.36.39-5.34,1.18-9.27.67s-4.89-1.57-4.89-1.57-.28,1,.12,6.29,4.55,11.07,4.55,11.07-1.13.11-3.77-1.91-4.32-6.35-4.32-6.35-.51.17-1.63,5.67c-1.22,6,3,11.52,3,11.52s-.4,2.86,1.68,8.37,9.78,9.44,13,10.62a33,33,0,0,1,3.19,1.35A10,10,0,0,0,504.89,84a5.7,5.7,0,0,1,2.95-.82,5.76,5.76,0,0,1,3,.84,10,10,0,0,0,18.92,3.5,24.75,24.75,0,0,1,2-1.65c2.19-1.63,7.92-3.82,12.53-8s4.1-12.42,4.1-12.42a13.2,13.2,0,0,0,3.71-6.12C553.42,53.49,549.91,47.67,549.91,47.67ZM502.05,25.25s5.57-.78,9.5,1.86,5.56,10.67,5.56,10.67-3.94-8.13-7.7-9.38a15.61,15.61,0,0,1,2.8,5.87,22.18,22.18,0,0,1-1.73,16s1.74-8.59-.34-14.66C507.32,27.33,502.05,25.25,502.05,25.25ZM495,90.85a7.6,7.6,0,1,1,7.59-7.6A7.61,7.61,0,0,1,495,90.85Zm9.78-9.43A9.95,9.95,0,0,0,486.5,78c.08-2.6.26-5.23.33-6.55.45-7.86,1.95-11.21,5.79-12.69,4.94-1.91,15.22,1.85,15.22,1.85a47.57,47.57,0,0,1,7.81-2.13c4.89-.86,12.64-1.07,13.09,11.29.11,3.13.27,5.65.24,7.86a9.94,9.94,0,0,0-18,3.79,8.17,8.17,0,0,0-6.22,0Zm16,9.43a7.6,7.6,0,1,1,7.6-7.6A7.61,7.61,0,0,1,520.75,90.85Zm4-44.76c-3.89.74-7.3,4-7.3,4a9.54,9.54,0,0,1,9.46-7c2.82.05,7.24.6,10.72.45a38.75,38.75,0,0,0,5.63-.68,7.76,7.76,0,0,1-5.81,3.58C532.93,46.78,528.3,45.43,524.8,46.09Z"/><path class="cls-1" d="M495,80.17a3.65,3.65,0,0,0-3.57,3.73V84h2.13V83.9a1.45,1.45,0,1,1,2.89,0V84h2.13V83.9A3.66,3.66,0,0,0,495,80.17Z"/><path class="cls-1" d="M520.69,80.17a3.66,3.66,0,0,0-3.58,3.73V84h2.14s0,0,0-.08a1.45,1.45,0,1,1,2.9,0s0,0,0,.08h2.13s0,0,0-.08A3.66,3.66,0,0,0,520.69,80.17Z"/></g></g></svg>