<svg id="Layer_1" data-name="Layer 1" xmlns="http://www.w3.org/2000/svg" viewBox="0 0 276.45 44.81"><defs><style>.cls-1,.cls-9{fill:#4d4b4d;}.cls-2,.cls-9{font-size:19.84px;font-family:Montserrat-ExtraBold, Montserrat;font-weight:800;}.cls-2,.cls-8{fill:#fff;}.cls-3{letter-spacing:0.13em;}.cls-4{letter-spacing:0.12em;}.cls-5{letter-spacing:0.11em;}.cls-6{letter-spacing:0.12em;}.cls-7{letter-spacing:0.12em;}.cls-10{letter-spacing:0.14em;}.cls-11{letter-spacing:0.11em;}.cls-12{fill:#211915;}</style></defs><path class="cls-1" d="M273.61,44.81H2.83A2.84,2.84,0,0,1,0,42V2.84A2.84,2.84,0,0,1,2.83,0H273.61a2.84,2.84,0,0,1,2.84,2.84V42a2.84,2.84,0,0,1-2.84,2.84"/><text class="cls-2" transform="translate(22.06 30.52) scale(1.01 1)"><tspan class="cls-3">I</tspan><tspan class="cls-4" x="8.97" y="0">N</tspan><tspan class="cls-5" x="26.97" y="0">V</tspan><tspan class="cls-3" x="43.99" y="0">E</tspan><tspan class="cls-6" x="60.04" y="0">N</tspan><tspan class="cls-7" x="78.06" y="0">T</tspan><tspan class="cls-6" x="92.82" y="0">O</tspan><tspan x="111.22" y="0">R</tspan></text><path class="cls-8" d="M269.24,40.44H163a2.84,2.84,0,0,1-2.84-2.84V7.25A2.84,2.84,0,0,1,163,4.42H269.24a2.84,2.84,0,0,1,2.84,2.83V37.6a2.84,2.84,0,0,1-2.84,2.84"/><text class="cls-9" transform="translate(165.2 30.52) scale(1.01 1)"><tspan class="cls-10">B</tspan><tspan class="cls-11" x="17.04" y="0">O</tspan><tspan x="35.2" y="0">X</tspan></text><path class="cls-1" d="M260.31,18.51a4.38,4.38,0,0,1-.94,1.93,5.21,5.21,0,0,1-2.29,1.46A16.91,16.91,0,0,0,258.62,19a13.89,13.89,0,0,0,.43-3.84,8.66,8.66,0,0,1-2.45.89,7.69,7.69,0,0,1-2.5,0l1.87-.76a5.87,5.87,0,0,0,1.8-1.43,4.94,4.94,0,0,1-1,.06c-1.19-.06-1.43-2.23-4-2.64a5.73,5.73,0,0,0-4.66,1,4.91,4.91,0,0,0-3.56-3.12c-2.12-.59-4.75.74-4.75.74a4.14,4.14,0,0,1,2.06.69,4.51,4.51,0,0,1,1.57,2s-3.5-2.94-6.78-2.27a5.64,5.64,0,0,0-4.12,3.53,10.83,10.83,0,0,1,2.54.42,10,10,0,0,1,2.9,1.38,11.36,11.36,0,0,0-3.25-.15,11.82,11.82,0,0,1-3.58.26c-1.52-.19-1.89-.6-1.89-.6a10.8,10.8,0,0,0,0,2.42,10.1,10.1,0,0,0,1.76,4.28s-.44,0-1.46-.74a6.66,6.66,0,0,1-1.67-2.45s-.19.06-.63,2.19a6.27,6.27,0,0,0,1.15,4.45,7.46,7.46,0,0,0,.65,3.23c.81,2.12,3.78,3.64,5,4.1.51.19.93.37,1.24.52a3.84,3.84,0,0,0,7.58-.55,2.16,2.16,0,0,1,1.14-.32,2.26,2.26,0,0,1,1.16.33,3.84,3.84,0,0,0,7.3,1.35c.21-.19.47-.42.76-.64.85-.63,3.06-1.47,4.84-3.08s1.58-4.79,1.58-4.79A5.08,5.08,0,0,0,261.13,23a6.87,6.87,0,0,0-.82-4.51M241.83,9.86a5.93,5.93,0,0,1,3.66.71c1.52,1,2.15,4.13,2.15,4.13s-1.52-3.14-3-3.63a6.25,6.25,0,0,1,1.08,2.27,8.57,8.57,0,0,1-.67,6.17,13.09,13.09,0,0,0-.13-5.66c-1.09-3.19-3.12-4-3.12-4m-2.74,25.33A2.94,2.94,0,1,1,242,32.26a2.93,2.93,0,0,1-2.93,2.93m3.78-3.64a3.84,3.84,0,0,0-7.05-1.31c0-1,.1-2,.13-2.53.17-3,.75-4.33,2.23-4.9,1.91-.74,5.88.71,5.88.71a18.29,18.29,0,0,1,3-.82c1.88-.33,4.88-.41,5,4.36,0,1.21.1,2.18.09,3a3.84,3.84,0,0,0-6.95,1.47,3.12,3.12,0,0,0-1.21-.25,3,3,0,0,0-1.19.24m6.18,3.64A2.94,2.94,0,1,1,252,32.26a2.93,2.93,0,0,1-2.93,2.93m1.56-17.28a6.49,6.49,0,0,0-2.82,1.56,3.7,3.7,0,0,1,3.65-2.69c1.09,0,2.8.24,4.14.18a15.22,15.22,0,0,0,2.18-.26,3,3,0,0,1-2.25,1.38c-1.76.09-3.55-.43-4.9-.17"/><path class="cls-12" d="M239.08,31.06a1.42,1.42,0,0,0-1.38,1.45v0h.83v0a.56.56,0,1,1,1.11,0v0h.82s0,0,0,0a1.42,1.42,0,0,0-1.39-1.45"/><path class="cls-12" d="M249,31.06a1.42,1.42,0,0,0-1.38,1.45v0h.83s0,0,0,0a.56.56,0,1,1,1.12,0v0h.82v0A1.41,1.41,0,0,0,249,31.06"/></svg>