<?xml version="1.0" encoding="utf-8"?>
<!-- Generator: Adobe Illustrator 16.0.0, SVG Export Plug-In . SVG Version: 6.00 Build 0)  -->
<!DOCTYPE svg PUBLIC "-//W3C//DTD SVG 1.1//EN" "http://www.w3.org/Graphics/SVG/1.1/DTD/svg11.dtd">
<svg version="1.1" id="Layer_1" xmlns="http://www.w3.org/2000/svg" xmlns:xlink="http://www.w3.org/1999/xlink" x="0px" y="0px"
	 width="56px" height="42px" viewBox="0 0 56 42" enable-background="new 0 0 56 42" xml:space="preserve">
<g>
	<path d="M21.272,9.565c0,0,2.646-2.668,6.322-2.118c3.86,0.894,5.171,4.537,5.171,4.537s-1.768-2.724-5.417-3.162
		C23.91,8.411,21.272,9.565,21.272,9.565"/>
	<path d="M39.213,35.188c0.055-0.373-0.038-0.792-0.14-1.234c-0.106-0.478-0.221-0.973-0.161-1.447
		c0.151-1.222,0.094-2.54,0.021-4.211c-0.02-0.412-0.037-0.85-0.054-1.313c-0.153-4.215-1.94-6.354-5.31-6.354
		c-0.562,0-1.175,0.061-1.875,0.183c-1.824,0.321-3.441,0.882-3.926,1.058c-0.688-0.238-3.585-1.196-5.983-1.196
		c-0.774,0-1.431,0.102-1.955,0.304c-2.423,0.934-3.018,3.225-3.225,6.858l-0.025,0.428c-0.167,2.794-0.282,5.504-0.001,6.446
		c-0.439-0.222-1.063-0.507-1.859-0.801c-1.432-0.527-5.374-2.487-6.394-5.188c-1.003-2.657-0.84-4.069-0.838-4.082l0.021-0.168
		l-0.101-0.137c-0.021-0.027-2.025-2.737-1.449-5.56c0.188-0.92,0.339-1.531,0.454-1.938c0.397,0.773,1.065,1.864,1.934,2.529
		c1.254,0.96,1.928,1.064,2.162,1.064c0.038,0,0.058-0.003,0.058-0.003l0.688-0.093l-0.391-0.564
		c-0.021-0.028-2.062-2.878-2.25-5.45c-0.094-1.262-0.111-2.031-0.105-2.485c0.422,0.184,1.078,0.384,2.081,0.513
		c0.458,0.06,0.884,0.088,1.305,0.088c0.839,0,1.524-0.116,2.249-0.238c0.403-0.067,0.821-0.139,1.291-0.193
		c0.431-0.051,0.895-0.077,1.372-0.077c1.545,0,2.79,0.267,2.803,0.27l1.938,0.424l-1.605-1.165c-0.074-0.054-1.87-1.346-3.99-1.906
		c-1.283-0.339-2.275-0.471-2.863-0.526c0.486-1.032,1.885-3.311,4.934-3.895c0.406-0.083,0.829-0.124,1.262-0.124
		c3.708,0,7.333,3.019,7.371,3.049l1.225,1.03L27.31,7.588c-0.028-0.076-0.721-1.868-2.249-2.818
		c-0.55-0.343-1.061-0.566-1.499-0.711c0.863-0.3,2.064-0.619,3.266-0.619c0.53,0,1.023,0.062,1.467,0.186
		c3.614,1.01,4.391,3.731,4.423,3.847l0.179,0.658l0.505-0.459c0.016-0.013,1.524-1.345,4.307-1.345c0.497,0,1.01,0.042,1.526,0.126
		c1.823,0.293,2.662,1.29,3.403,2.169c0.561,0.666,1.091,1.297,1.93,1.342c0.101,0.006,0.197,0.009,0.293,0.009h0.005
		c-0.408,0.371-0.936,0.781-1.47,1.004c-1.561,0.625-2.465,1.002-2.475,1.006l-1.283,0.538l1.368,0.255
		c0.027,0.005,0.696,0.126,1.652,0.126c0.626,0,1.232-0.051,1.804-0.154c1.126-0.204,2.142-0.619,2.76-0.909
		c-0.014,1.029-0.101,3.015-0.551,4.268c-0.635,1.77-1.981,3.8-1.996,3.818l-0.639,0.957l1.104-0.328
		c0.087-0.025,2.159-0.655,3.257-2.069c0.489-0.632,0.8-1.217,0.995-1.685c0.451,1.068,1.029,2.925,0.599,4.756
		c-0.396,1.692-1.754,2.904-1.768,2.917l-0.152,0.134l0.014,0.202c0.003,0.042,0.219,4.054-1.959,6.019
		c-1.516,1.367-3.247,2.295-4.639,3.041c-0.717,0.383-1.335,0.715-1.743,1.02c-0.192,0.142-0.377,0.291-0.546,0.435
		C39.201,35.276,39.206,35.232,39.213,35.188"/>
	<path d="M26.827,3.855c0.493,0,0.948,0.058,1.355,0.172c3.368,0.941,4.105,3.449,4.134,3.55l0.345,1.333l1.016-0.927
		c0.058-0.05,1.426-1.238,4.03-1.238c0.472,0,0.964,0.04,1.461,0.12c1.671,0.269,2.422,1.163,3.149,2.027
		c0.45,0.535,0.913,1.084,1.556,1.341c-0.21,0.144-0.425,0.27-0.635,0.359c-1.564,0.626-2.47,1.005-2.479,1.008l-2.566,1.076
		l2.736,0.506c0.03,0.006,0.733,0.134,1.726,0.134c0.652,0,1.282-0.054,1.878-0.162c0.85-0.153,1.638-0.423,2.254-0.675
		c-0.045,1.109-0.178,2.556-0.511,3.486c-0.617,1.719-1.937,3.708-1.95,3.729l-1.275,1.914l2.205-0.656
		c0.092-0.027,2.286-0.696,3.465-2.213c0.243-0.313,0.443-0.616,0.612-0.899c0.317,1.006,0.555,2.324,0.251,3.62
		c-0.362,1.548-1.627,2.689-1.636,2.699l-0.304,0.269l0.021,0.404c0.004,0.039,0.201,3.856-1.823,5.686
		c-1.477,1.333-3.186,2.248-4.558,2.981c-0.669,0.358-1.256,0.672-1.681,0.971c-0.033-0.199-0.077-0.401-0.125-0.607
		c-0.101-0.445-0.204-0.905-0.153-1.308c0.153-1.256,0.096-2.59,0.023-4.28c-0.02-0.414-0.036-0.847-0.056-1.311
		c-0.203-5.584-3.225-6.754-5.724-6.754c-0.584,0-1.222,0.061-1.947,0.188c-1.71,0.3-3.238,0.807-3.859,1.029
		c-0.896-0.304-3.656-1.174-5.978-1.174c-0.825,0-1.533,0.111-2.104,0.333c-1.943,0.75-3.205,2.221-3.491,7.225
		c-0.006,0.122-0.015,0.264-0.024,0.427c-0.152,2.542-0.229,4.545-0.123,5.754c-0.34-0.149-0.733-0.314-1.178-0.477
		c-1.384-0.508-5.185-2.394-6.149-4.947c-0.929-2.459-0.825-3.795-0.817-3.881l0.051-0.324l-0.208-0.28
		C7.723,24.06,5.83,21.49,6.368,18.857c0.072-0.352,0.138-0.656,0.198-0.92c0.4,0.629,0.916,1.29,1.529,1.759
		c1.306,1,2.072,1.15,2.414,1.15c0.065,0,0.099-0.006,0.099-0.006l1.397-0.197L11.2,19.528c-0.021-0.028-1.993-2.787-2.173-5.237
		c-0.06-0.815-0.088-1.418-0.099-1.86c0.415,0.127,0.941,0.246,1.605,0.331c0.476,0.061,0.92,0.092,1.358,0.092
		c0.874,0,1.576-0.119,2.318-0.244c0.4-0.067,0.811-0.137,1.271-0.192c0.417-0.048,0.862-0.072,1.323-0.072
		c1.496,0,2.702,0.26,2.713,0.262l3.886,0.852l-3.218-2.336c-0.077-0.057-1.934-1.392-4.129-1.971
		c-0.932-0.246-1.716-0.386-2.312-0.466c0.627-1.068,1.948-2.682,4.355-3.145l0.007-0.001l0.005-0.001
		c0.373-0.076,0.768-0.114,1.172-0.114c3.551,0,7.068,2.922,7.103,2.952l2.451,2.068l-1.138-3.004c-0.03-0.081-0.772-2-2.418-3.023
		c-0.171-0.107-0.339-0.202-0.503-0.289C25.412,3.972,26.121,3.855,26.827,3.855 M26.827,3.024c-2.386,0-4.717,1.179-4.717,1.179
		h0.013c0.127,0,1.282,0.025,2.718,0.919c1.427,0.888,2.08,2.613,2.08,2.613s-3.729-3.147-7.638-3.147
		c-0.446,0-0.895,0.041-1.34,0.132c-4.197,0.805-5.462,4.686-5.462,4.686s1.294,0,3.363,0.546c2.07,0.545,3.852,1.839,3.852,1.839
		s-1.277-0.281-2.891-0.281c-0.455,0-0.935,0.023-1.421,0.08c-1.326,0.155-2.227,0.429-3.491,0.429
		c-0.379,0-0.787-0.025-1.251-0.085c-2.012-0.259-2.5-0.804-2.5-0.804s-0.144,0.488,0.057,3.218
		c0.202,2.724,2.328,5.664,2.328,5.664s-0.006,0.001-0.015,0.001c-0.107,0-0.694-0.047-1.91-0.979
		C7.251,18,6.388,15.786,6.388,15.786s-0.259,0.086-0.833,2.903c-0.623,3.05,1.524,5.895,1.524,5.895s-0.202,1.464,0.862,4.282
		c1.063,2.816,5,4.828,6.639,5.431c1.638,0.604,2.532,1.181,2.532,1.181s0.003,0,0.005,0c0.024,0,0.133-0.041-0.131-0.867
		c-0.338-1.062-0.042-5.359,0.038-6.751c0.229-4.024,0.999-5.738,2.96-6.498c0.512-0.197,1.136-0.276,1.804-0.276
		c2.639,0,5.986,1.226,5.986,1.226s1.869-0.72,3.998-1.092c0.545-0.098,1.166-0.177,1.8-0.177c2.259,0,4.714,1.018,4.896,5.954
		c0.085,2.319,0.217,3.975,0.034,5.458c-0.123,1.005,0.397,2.019,0.302,2.676c-0.149,1.017-0.38,1.482-0.38,1.482
		s0.7-0.747,1.567-1.394c1.119-0.833,4.053-1.956,6.409-4.081c2.357-2.127,2.099-6.353,2.099-6.353s1.465-1.294,1.898-3.134
		c0.702-2.996-1.094-5.979-1.094-5.979s-0.143,1.15-1.235,2.559c-1.027,1.324-3.046,1.925-3.046,1.925s1.381-2.07,2.038-3.909
		c0.663-1.84,0.576-5.088,0.576-5.088s-1.495,0.862-3.247,1.179c-0.623,0.112-1.22,0.148-1.731,0.148
		c-0.928,0-1.574-0.12-1.574-0.12s0.892-0.374,2.474-1.006c1.234-0.518,2.385-1.897,2.385-1.897s-0.498,0.094-1.08,0.094
		c-0.089,0-0.18-0.003-0.269-0.008c-1.583-0.086-1.896-2.961-5.289-3.507c-0.57-0.091-1.101-0.131-1.594-0.131
		c-2.999,0-4.586,1.454-4.586,1.454s-0.805-3.046-4.716-4.138C27.894,3.083,27.358,3.024,26.827,3.024"/>
	<path fill="#FFFFFF" d="M32.717,16.937c0,0,0.897-3.592,4.842-3.554c1.439,0.025,3.703,0.305,5.482,0.229
		c1.55-0.066,2.883-0.348,2.883-0.348s-1.021,1.729-2.973,1.833c-2.341,0.125-4.709-0.566-6.496-0.228
		C34.463,15.242,32.717,16.937,32.717,16.937"/>
	<path fill="#FFFFFF" d="M24.813,4.204c0,0,2.69,1.065,4.137,5.289c1.065,3.104,0.175,7.502,0.175,7.502s2.147-3.662,0.882-8.174
		c-0.574-1.926-0.951-2.298-1.429-3.007c1.92,0.644,3.937,4.8,3.937,4.8s-0.832-4.11-2.844-5.461
		C27.657,3.802,24.813,4.204,24.813,4.204"/>
	<path d="M20.439,34.253c0-0.014-0.001-0.025-0.001-0.038c0-0.426,0.331-0.773,0.74-0.773c0.409,0,0.74,0.346,0.74,0.773
		c0,0.013-0.001,0.024-0.002,0.038h1.092c0-0.014,0.001-0.025,0.001-0.038c0-1.057-0.82-1.909-1.832-1.909
		c-1.011,0-1.831,0.853-1.831,1.909c0,0.013,0.001,0.024,0.002,0.038H20.439z"/>
	<path d="M33.61,34.253c-0.001-0.014-0.003-0.025-0.003-0.038c0-0.426,0.334-0.773,0.742-0.773s0.741,0.346,0.741,0.773
		c0,0.013-0.002,0.024-0.002,0.038h1.091c0.001-0.014,0.001-0.025,0.001-0.038c0-1.057-0.822-1.909-1.831-1.909
		c-1.012,0-1.833,0.853-1.833,1.909c0,0.013,0.002,0.024,0.002,0.038H33.61z"/>
	<path d="M21.185,38.976c-2.808,0-5.093-2.286-5.093-5.094s2.284-5.094,5.093-5.094s5.093,2.285,5.093,5.094
		C26.277,36.689,23.992,38.976,21.185,38.976 M21.185,29.999c-2.142,0-3.885,1.741-3.885,3.883c0,2.143,1.743,3.887,3.885,3.887
		c2.143,0,3.886-1.744,3.886-3.887C25.07,31.74,23.327,29.999,21.185,29.999"/>
	<path d="M34.382,38.976c-2.808,0-5.093-2.286-5.093-5.094s2.283-5.094,5.093-5.094s5.094,2.285,5.094,5.094
		C39.476,36.689,37.189,38.976,34.382,38.976 M34.382,29.999c-2.142,0-3.886,1.741-3.886,3.883c0,2.143,1.744,3.887,3.886,3.887
		c2.144,0,3.884-1.744,3.884-3.887C38.266,31.74,36.525,29.999,34.382,29.999"/>
	<path d="M29.705,34.563c-0.53-0.463-1.217-0.72-1.933-0.72c-0.632,0-1.232,0.194-1.735,0.565l-0.714-0.978
		c0.712-0.52,1.558-0.796,2.449-0.796c1.008,0,1.976,0.363,2.728,1.021L29.705,34.563z"/>
</g>
</svg>
