<svg id="book" xmlns="http://www.w3.org/2000/svg" width="72.299" height="47.04" viewBox="0 0 72.299 47.04">
  <path id="Path_36" data-name="Path 36" d="M111.52,141.029a9.572,9.572,0,0,0-9.572,9.572,9.572,9.572,0,0,0-9.572-9.572H65.8v43.315H92.375a9.544,9.544,0,0,1,7.014,3.061h5.117a9.544,9.544,0,0,1,7.014-3.061H138.1V141.029Z" transform="translate(-65.798 -140.366)" fill="#42bcd6"/>
  <path id="Path_37" data-name="Path 37" d="M265.572,184.344H292.15V141.029H265.572A9.572,9.572,0,0,0,256,150.6v36.8h2.558A9.544,9.544,0,0,1,265.572,184.344Z" transform="translate(-219.85 -140.366)" fill="#2d8497"/>
  <path id="Path_38" data-name="Path 38" d="M127.625,137.538a8.505,8.505,0,0,0-8.505,8.505,8.505,8.505,0,0,0-8.505-8.505H87v38.487h23.615a8.492,8.492,0,0,1,6.819,3.421h3.373a8.492,8.492,0,0,1,6.819-3.421H151.24V137.538Z" transform="translate(-82.97 -137.538)" fill="#fff"/>
  <path id="Path_39" data-name="Path 39" d="M264.505,176.025H288.12V137.538H264.505A8.505,8.505,0,0,0,256,146.043v33.4h1.686A8.492,8.492,0,0,1,264.505,176.025Z" transform="translate(-219.85 -137.538)" fill="#f2f2f2"/>
  <g id="Group_69" data-name="Group 69" transform="translate(5.779 12.081)">
    <path id="Path_40" data-name="Path 40" d="M102.915,201.1l2.073,4.2,4.636.674-3.355,3.27.792,4.617-4.147-2.18-4.147,2.18.792-4.617-3.355-3.27,4.636-.674Z" transform="translate(-96.205 -201.101)" fill="#eb9b44"/>
    <path id="Path_41" data-name="Path 41" d="M185.91,201.1l2.073,4.2,4.636.674-3.355,3.27.792,4.617-4.147-2.18-4.147,2.18.792-4.617-3.355-3.27,4.636-.674Z" transform="translate(-163.426 -201.101)" fill="#eb9b44"/>
  </g>
  <g id="Group_70" data-name="Group 70" transform="translate(37.327 12.081)">
    <path id="Path_42" data-name="Path 42" d="M268.9,201.1l2.074,4.2,4.636.674-3.355,3.27.792,4.617-4.147-2.18-4.147,2.18.792-4.617-3.355-3.27,4.636-.674Z" transform="translate(-262.194 -201.101)" fill="#ef7d00"/>
    <path id="Path_43" data-name="Path 43" d="M351.9,201.1l2.073,4.2,4.636.674-3.355,3.27.792,4.617-4.147-2.18-4.147,2.18.792-4.617-3.355-3.27,4.636-.674Z" transform="translate(-329.415 -201.101)" fill="#ef7d00"/>
  </g>
</svg>
