<?xml version="1.0" encoding="utf-8"?>
<!-- Generator: Adobe Illustrator 16.0.0, SVG Export Plug-In . SVG Version: 6.00 Build 0)  -->
<!DOCTYPE svg PUBLIC "-//W3C//DTD SVG 1.1//EN" "http://www.w3.org/Graphics/SVG/1.1/DTD/svg11.dtd">
<svg version="1.1" id="Layer_1" xmlns="http://www.w3.org/2000/svg" xmlns:xlink="http://www.w3.org/1999/xlink" x="0px" y="0px"
	 width="1325.592px" height="862.461px" viewBox="0 0 1325.592 862.461" enable-background="new 0 0 1325.592 862.461"
	 xml:space="preserve">
<g id="Group_152" transform="translate(-249.171 -73.538)">
	<g id="book" transform="translate(183.373 -64)">
		<path id="Path_36" fill="#42BCD6" d="M904.1,147.002c-96.926,0-175.5,61.133-175.5,136.542c0-75.409-78.574-136.542-175.5-136.542
			H65.8v617.881h487.291c48.806,0.009,95.401,15.83,128.6,43.663h93.81c33.162-27.872,79.781-43.702,128.6-43.663h487.292V147.002
			H904.1z"/>
		<path id="Path_37" fill="#2D8497" d="M904.093,764.883h487.3V147.002h-487.3c-96.926,0-175.5,61.133-175.5,136.542
			c0,0.001,0,0.001,0,0.002V808.55H775.5C808.659,780.676,855.277,764.846,904.093,764.883z"/>
		<path id="Path_38" fill="#FFFFFF" d="M898.366,137.538c-93.715,0-169.686,59.106-169.687,132.018c0,0,0,0.001,0,0.001
			c0.001-72.912-75.97-132.019-169.684-132.019c-0.001,0-0.002,0-0.003,0H87.853v597.406h471.14
			c53.589-0.034,104.04,19.659,136.041,53.103h67.291c32.001-33.442,82.451-53.137,136.041-53.103h471.14V137.538H898.366z"/>
		<path id="Path_39" fill="#F2F2F2" d="M898.303,735.028h471.2v-597.49h-471.2c-93.728,0-169.709,59.113-169.71,132.035
			c0,0,0,0.001,0,0.002v518.56h33.65C794.249,754.688,844.707,734.993,898.303,735.028z"/>
	</g>
</g>
</svg>
