<svg xmlns="http://www.w3.org/2000/svg" width="1325.592" height="862.462" viewBox="0 0 1325.592 862.462">
  <g id="Group_152" data-name="Group 152" transform="translate(-249.171 -73.538)">
    <g id="book" transform="translate(183.373 -64)">
      <path id="Path_36" data-name="Path 36" d="M904.1,141.029a175.5,175.5,0,0,0-175.5,175.5,175.5,175.5,0,0,0-175.5-175.5H65.8V935.2H553.091a175.5,175.5,0,0,1,128.6,56.121H775.5A174.994,174.994,0,0,1,904.1,935.2h487.292V141.029Z" transform="translate(0 8.674)" fill="#42bcd6"/>
      <path id="Path_37" data-name="Path 37" d="M431.5,935.2H918.8V141.029H431.5A175.5,175.5,0,0,0,256,316.532V991.326h46.907A174.994,174.994,0,0,1,431.5,935.2Z" transform="translate(472.593 8.674)" fill="#2d8497"/>
      <path id="Path_38" data-name="Path 38" d="M897.513,137.538A169.685,169.685,0,0,0,727.827,307.224,169.685,169.685,0,0,0,558.14,137.538H87V905.393H558.14a169.426,169.426,0,0,1,136.041,68.253h67.291a169.427,169.427,0,0,1,136.041-68.253h471.14V137.538Z" transform="translate(0.853 0)" fill="#fff"/>
      <path id="Path_39" data-name="Path 39" d="M425.71,905.5h471.2V137.538H425.71A169.708,169.708,0,0,0,256,307.247V973.759h33.65A169.45,169.45,0,0,1,425.71,905.5Z" transform="translate(472.593 0)" fill="#f2f2f2"/>
    </g>
  </g>
</svg>
