<svg xmlns="http://www.w3.org/2000/svg" width="55.232" height="48.578" viewBox="0 0 55.232 48.578">
  <path id="Icon_awesome-bars" data-name="Icon awesome-bars" d="M1.9,12.774H51.33a1.9,1.9,0,0,0,1.9-1.9V6.12a1.9,1.9,0,0,0-1.9-1.9H1.9A1.9,1.9,0,0,0,0,6.12v4.753A1.9,1.9,0,0,0,1.9,12.774Zm0,19.011H51.33a1.9,1.9,0,0,0,1.9-1.9V25.131a1.9,1.9,0,0,0-1.9-1.9H1.9a1.9,1.9,0,0,0-1.9,1.9v4.753A1.9,1.9,0,0,0,1.9,31.785ZM1.9,50.8H51.33a1.9,1.9,0,0,0,1.9-1.9V44.142a1.9,1.9,0,0,0-1.9-1.9H1.9a1.9,1.9,0,0,0-1.9,1.9V48.9A1.9,1.9,0,0,0,1.9,50.8Z" transform="translate(1 -3.219)" fill="#fff" stroke="#42bcd6" stroke-width="2"/>
</svg>
