<svg id="Icon_ionic-ios-close-circle-outline" data-name="Icon ionic-ios-close-circle-outline" xmlns="http://www.w3.org/2000/svg" width="22.227" height="22.227" viewBox="0 0 22.227 22.227">
  <path id="Path_56" data-name="Path 56" d="M20.669,19.46l-2.816-2.816,2.816-2.816a.854.854,0,1,0-1.208-1.208l-2.816,2.816L13.83,12.621a.854.854,0,0,0-1.208,1.208l2.816,2.816L12.622,19.46a.826.826,0,0,0,0,1.208.848.848,0,0,0,1.208,0l2.816-2.816,2.816,2.816a.858.858,0,0,0,1.208,0A.848.848,0,0,0,20.669,19.46Z" transform="translate(-5.532 -5.531)" fill="#fff"/>
  <path id="Path_57" data-name="Path 57" d="M14.488,4.871a9.613,9.613,0,1,1-6.8,2.816,9.554,9.554,0,0,1,6.8-2.816m0-1.5A11.113,11.113,0,1,0,25.6,14.488,11.112,11.112,0,0,0,14.488,3.375Z" transform="translate(-3.375 -3.375)" fill="#fff"/>
</svg>
