<svg xmlns="http://www.w3.org/2000/svg" width="38.18" height="26.389" viewBox="0 0 38.18 26.389">
  <path id="Icon_awesome-terminal" data-name="Icon awesome-terminal" d="M15.39,16.686,3.8,28.28a1.432,1.432,0,0,1-2.025,0L.419,26.928a1.432,1.432,0,0,1,0-2.022l9.188-9.232L.417,6.442a1.432,1.432,0,0,1,0-2.022L1.772,3.067a1.432,1.432,0,0,1,2.025,0L15.39,14.661A1.432,1.432,0,0,1,15.39,16.686ZM38.18,27.6V25.7a1.432,1.432,0,0,0-1.432-1.432H18.613A1.432,1.432,0,0,0,17.181,25.7V27.6a1.432,1.432,0,0,0,1.432,1.432H36.749A1.432,1.432,0,0,0,38.18,27.6Z" transform="translate(0 -2.648)" fill="#ef7d00"/>
</svg>
