<svg xmlns="http://www.w3.org/2000/svg" width="26" height="29.714" viewBox="0 0 26 29.714">
  <path id="Icon_awesome-copy" data-name="Icon awesome-copy" d="M18.571,26v2.321a1.393,1.393,0,0,1-1.393,1.393H1.393A1.393,1.393,0,0,1,0,28.321V6.964A1.393,1.393,0,0,1,1.393,5.571H5.571V22.75A3.254,3.254,0,0,0,8.821,26Zm0-19.964V0H8.821A1.393,1.393,0,0,0,7.429,1.393V22.75a1.393,1.393,0,0,0,1.393,1.393H24.607A1.393,1.393,0,0,0,26,22.75V7.429H19.964A1.4,1.4,0,0,1,18.571,6.036Zm7.021-1.8L21.765.408A1.393,1.393,0,0,0,20.78,0h-.352V5.571H26V5.22a1.393,1.393,0,0,0-.408-.985Z" fill="#a1a1a1"/>
</svg>
