<svg id="Component_2_1" data-name="Component 2 – 1" xmlns="http://www.w3.org/2000/svg" width="46.578" height="46.578" viewBox="0 0 46.578 46.578">
  <circle id="Ellipse_1" data-name="Ellipse 1" cx="2.274" cy="2.274" r="2.274" transform="translate(21.015 32.159)" fill="#fff"/>
  <g id="Component_1_1" data-name="Component 1 – 1">
    <path id="Path_32" data-name="Path 32" d="M23.289,0A23.289,23.289,0,1,0,46.578,23.289,23.276,23.276,0,0,0,23.289,0Zm0,42.939a19.65,19.65,0,1,1,19.65-19.65A19.639,19.639,0,0,1,23.289,42.939Z" fill="#42bcd6"/>
    <path id="Path_33" data-name="Path 33" d="M183.278,128.5A7.286,7.286,0,0,0,176,135.778a1.819,1.819,0,0,0,3.639,0,3.639,3.639,0,1,1,3.639,3.639,1.819,1.819,0,0,0-1.819,1.819v4.549a1.819,1.819,0,0,0,3.639,0v-2.959a7.278,7.278,0,0,0-1.819-14.325Z" transform="translate(-159.989 -116.81)" fill="#fff"/>
  </g>
</svg>
