<svg id="Component_1_1" data-name="Component 1 – 1" xmlns="http://www.w3.org/2000/svg" width="58.454" height="46.578" viewBox="0 0 58.454 46.578">
  <path id="Path_17" data-name="Path 17" d="M93.48,66.319a7.549,7.549,0,0,1-1.6,3.315,8.869,8.869,0,0,1-3.949,2.495,28.666,28.666,0,0,0,2.65-5.069,23.133,23.133,0,0,0,.745-6.594,14.728,14.728,0,0,1-4.209,1.527,13.33,13.33,0,0,1-4.283.039s1.155-.485,3.2-1.305a9.991,9.991,0,0,0,3.091-2.458,8.245,8.245,0,0,1-1.749.112c-2.049-.112-2.458-3.837-6.853-4.543-5.218-.84-8.009,1.723-8.009,1.723s-1.043-3.949-6.107-5.362c-3.647-1.03-8.16,1.256-8.16,1.256a7.044,7.044,0,0,1,3.537,1.193,7.655,7.655,0,0,1,2.695,3.384s-6-5.062-11.633-3.906A9.656,9.656,0,0,0,45.773,58.2a18.974,18.974,0,0,1,4.358.707,17.083,17.083,0,0,1,4.989,2.385,19.085,19.085,0,0,0-5.586-.261c-2.232.261-3.539.782-6.146.446s-3.231-1.043-3.231-1.043a16.472,16.472,0,0,0,.065,4.166c.265,3.533,3.016,7.337,3.016,7.337s-.745.075-2.495-1.265a11.494,11.494,0,0,1-2.869-4.209s-.334.112-1.077,3.761c-.806,3.951,1.973,7.635,1.973,7.635s-.261,1.9,1.118,5.551,6.48,6.247,8.6,7.038a22.864,22.864,0,0,1,2.12.9,6.6,6.6,0,0,0,13.018-.952,3.768,3.768,0,0,1,1.956-.539,3.817,3.817,0,0,1,1.986.556,6.6,6.6,0,0,0,12.542,2.318,15.736,15.736,0,0,1,1.293-1.09c1.452-1.077,5.25-2.533,8.3-5.291s2.719-8.229,2.719-8.229a8.683,8.683,0,0,0,2.46-4.056C95.807,70.177,93.48,66.319,93.48,66.319ZM57.048,94.945a5.034,5.034,0,1,1,5.034-5.032,5.034,5.034,0,0,1-5.034,5.032ZM63.532,88.7a6.6,6.6,0,0,0-12.1-2.249c.056-1.723.17-3.47.215-4.343.3-5.213,1.293-7.434,3.837-8.417,3.279-1.267,10.095,1.23,10.095,1.23a31.178,31.178,0,0,1,5.17-1.415c3.242-.571,8.38-.709,8.677,7.486.075,2.079.181,3.746.162,5.211a6.6,6.6,0,0,0-11.93,2.523,5.386,5.386,0,0,0-4.127-.017Zm10.614,6.247a5.034,5.034,0,1,1,5.034-5.032A5.034,5.034,0,0,1,74.146,94.945Z" transform="translate(-36.65 -49.933)" fill="#fff"/>
  <path id="Path_18" data-name="Path 18" d="M122.137,226a1.88,1.88,0,0,0-1.839,1.919v.038h1.1v-.038a.746.746,0,1,1,1.489,0v.038h1.1v-.038A1.881,1.881,0,0,0,122.137,226Z" transform="translate(-101.921 -186.133)" fill="#fff"/>
  <path id="Path_19" data-name="Path 19" d="M201.347,226a1.88,1.88,0,0,0-1.839,1.919v.038h1.1v-.038a.746.746,0,1,1,1.489,0v.038h1.1v-.038A1.881,1.881,0,0,0,201.347,226Z" transform="translate(-163.73 -186.133)" fill="#fff"/>
</svg>
