<svg id="Layer_12" data-name="Layer 12" xmlns="http://www.w3.org/2000/svg" width="128.28" height="73.997" viewBox="0 0 128.28 73.997">
  <path id="Path_1" data-name="Path 1" d="M512.96,294.351l-3.89.424q.343-4.341.343-9.113l-.132-9.353,4.739-.293a13.238,13.238,0,0,1,2.542.106c.866.108,1.722.221,2.568.345L520.879,278q.266,1.537.556,3.046a12.823,12.823,0,0,1,.266,2.967v.137q-.77.873-1.537,1.775a4.323,4.323,0,0,1-1.719,1.377,73.812,73.812,0,0,0,5.612,7.758l-2.489.719q-.72-.691-4.077-4.369a51.619,51.619,0,0,1-3.6-4.106l-.424-1.218a19.982,19.982,0,0,0,2.568-.794,8.186,8.186,0,0,0,2.067-1.8l-.561-4.976-4.82.293q-.072,3.52-.072,6.194Q512.65,290.3,512.96,294.351Z" transform="translate(-395.776 -221.783)" fill="#42bcd6"/>
  <path id="Path_2" data-name="Path 2" d="M312.47,212.536q-1.657.06-2.158.094a4.327,4.327,0,0,0-1.919.391q-.345.393-.391,3.456l.3.377,3.815.2-.139,1.048-4.05.283v.326a6.978,6.978,0,0,0,.295,2.94q.252.3,4.24.266l-.221,1.173q-3.518.3-5.276.3c-.648,0-1-.041-1.065-.125q-.326-.405-.329-7.787,0-3.628.329-3.957t5.516-.312l1.345.014Z" transform="translate(-241.079 -172.53)" fill="#ef7d00"/>
  <path id="Path_3" data-name="Path 3" d="M344.259,216.952l-.266,1.94a11.694,11.694,0,0,0,2.314,1.11q2.125.892,2.422,1.532a1.347,1.347,0,0,1,.127.657,10.422,10.422,0,0,1-.221,1.58,6.335,6.335,0,0,1-.4,1.508c-.11.173-.278.429-.508.775a10.862,10.862,0,0,1-3.139.391,16.468,16.468,0,0,1-2.516-.173l-.125-1.612a6.5,6.5,0,0,0,2.142.329,6.211,6.211,0,0,0,1.266-.139,2.782,2.782,0,0,0,1.158-.456c.072-.062.108-.223.108-.48a7.946,7.946,0,0,0-.2-1.578,11.46,11.46,0,0,0-2.2-1.079,5.258,5.258,0,0,1-2.034-1.158,6.327,6.327,0,0,1-.24-2.3,6.44,6.44,0,0,1,.062-1.2,3.562,3.562,0,0,1,.609-1q.24-.314,1.875-.312a35.767,35.767,0,0,1,3.911.24l-.329,1.221h-.1c-.2,0-.5,0-.914-.031s-.72-.031-.931-.031A4.434,4.434,0,0,0,344.259,216.952Z" transform="translate(-268.724 -175.635)" fill="#ef7d00"/>
  <path id="Path_4" data-name="Path 4" d="M382.822,217.332a11.553,11.553,0,0,0-1.957-.187,4.2,4.2,0,0,0-1.8.312,1.748,1.748,0,0,0-1.125,1.393c-.031.448-.048.926-.048,1.439a14.659,14.659,0,0,0,.453,4.19,1.439,1.439,0,0,0,.878.8,3.055,3.055,0,0,0,1.187.24,8.982,8.982,0,0,0,1.235-.108l1.237-.173-.345,1.252-2.66.374a7.713,7.713,0,0,1-1.547-.24,3.476,3.476,0,0,1-1.391-.532,6.732,6.732,0,0,1-1.029-2.909,17.461,17.461,0,0,1-.343-3.118,6.475,6.475,0,0,1,.266-1.456,9.611,9.611,0,0,1,.468-1.439,2.574,2.574,0,0,1,.736-.7,3.694,3.694,0,0,1,.906-.54,7.155,7.155,0,0,1,1.986-.2,11.421,11.421,0,0,1,3.357.357Z" transform="translate(-294.291 -175.967)" fill="#ef7d00"/>
  <path id="Path_5" data-name="Path 5" d="M414.506,226.051a4.957,4.957,0,0,1-2.47-.36,5.6,5.6,0,0,1-1.945-3.463,22.22,22.22,0,0,1-.281-4.077,1.574,1.574,0,0,1,.014-.312,3.618,3.618,0,0,1,1.679-2.461,6,6,0,0,1,2.971-.609,5.5,5.5,0,0,1,3.252.751,2.458,2.458,0,0,1,.959,1.41,6.346,6.346,0,0,1,.187,1.739q0,.873-.093,2.13a8.713,8.713,0,0,1-.7,2.4,2.882,2.882,0,0,1-2.393,2.544A5.671,5.671,0,0,1,414.506,226.051Zm-1.031-9.593a1.425,1.425,0,0,0-.823.518,1.664,1.664,0,0,0-.554.844q-.113,1.2-.11,3.158a4.3,4.3,0,0,0,.959,3q.24.266,1.609.266a3.314,3.314,0,0,0,1.144-.142q.264-.108.623-1.719.24-1.173.345-1.94a11.851,11.851,0,0,0,.11-1.516q0-1.844-.705-2.175a5.517,5.517,0,0,0-1.252-.2c-.655-.048-1.11-.089-1.348-.089Z" transform="translate(-320.316 -175.239)" fill="#ef7d00"/>
  <path id="Path_6" data-name="Path 6" d="M455.408,226.471q.094-.959.094-4.206,0-1.281-.062-3.425c-.043-1.7-.067-2.847-.079-3.441l2.815-.218q-.439,2.676-.782,9.336l3.94.266-.218,1.266Z" transform="translate(-354.946 -175.551)" fill="#ef7d00"/>
  <path id="Path_7" data-name="Path 7" d="M483.684,225.887l-1.784.2q.595-3.885,1.017-5.655a22.708,22.708,0,0,1,1.919-5.386l3.753-.24q1.221,4.242,1.679,6.66c.074.345.163.856.266,1.537l.283,3.079-2.175-.223-.218-3.218-2.878.36-1.156-.3Zm4.487-5.192a11.345,11.345,0,0,0-.453-2.12,10.175,10.175,0,0,0-.688-2.038l-1.235.108a23.173,23.173,0,0,0-.844,3.144q-.034.266-.094.813c-.043.218-.094.542-.158.959l3.427-.312c.034,0,.046-.187.046-.564Z" transform="translate(-375.122 -175.27)" fill="#ef7d00"/>
  <path id="Path_8" data-name="Path 8" d="M528.889,243.626q-.424,0-1.6-.031-.048-1.082-.12-3.262c0-.506-.024-1.259-.055-2.264l2.041-.12a4.2,4.2,0,0,1,.906.168,2.082,2.082,0,0,1,.8.3l.11.158a2.015,2.015,0,0,1,.36,1.125q0,2.705-.909,3.525a1.647,1.647,0,0,1-.72.3A3.577,3.577,0,0,1,528.889,243.626Zm1.259-4.425-.719-.422h-1.036q-.072,1.6-.072,2.6V243a2.874,2.874,0,0,0,.326.017,3.043,3.043,0,0,0,1.2-.367,10.447,10.447,0,0,0,.391-2.895A5.013,5.013,0,0,0,530.148,239.2Z" transform="translate(-409.49 -192.86)" fill="#ef7d00"/>
  <path id="Path_9" data-name="Path 9" d="M552.287,241.478l-1.825.13v.213a3.006,3.006,0,0,0,.127,1.245,5.217,5.217,0,0,0,1.938.127l-.113.566q-1.516.137-2.367.137c-.345,0-.535-.024-.566-.072a17.246,17.246,0,0,1-.161-3.6,4.982,4.982,0,0,1,.156-1.818A8.692,8.692,0,0,1,552,238.25h.662l-.151.686a4.063,4.063,0,0,0-1.849.206,3.9,3.9,0,0,0-.168,1.54l.12.151,1.753.089Z" transform="translate(-426.373 -193.088)" fill="#ef7d00"/>
  <path id="Path_10" data-name="Path 10" d="M66.5,297.039l-2.684.187-.681-13.583q-.026-1.369-.132-4.377l4.47-.376q-.3,4.54-.612,9.087Q66.523,293.272,66.5,297.039Z" transform="translate(-56.681 -223.982)" fill="#42bcd6"/>
  <path id="Path_11" data-name="Path 11" d="M117.4,294.165l-2.806.719a57.65,57.65,0,0,0-6.329-14.192l-.875.422q-.448,5.669-.554,13.586l-2.782.29q0-2.144-.132-7.334-.108-4.847-.106-7.362l.372-3.523,5.036-.53q2.676,4.609,3.338,5.8a36.553,36.553,0,0,1,2.621,6.171l-.158-10.329.264-1.748,3.837-.106Q117.616,288.014,117.4,294.165Z" transform="translate(-87.711 -221.808)" fill="#42bcd6"/>
  <path id="Path_12" data-name="Path 12" d="M184.718,293.779l-5.137.636q-1.348-4.712-4.211-18.4l3.47-.451q.451.959,1.218,2.94.079,1.086.24,2.808.369,3.631.5,4.59a27.016,27.016,0,0,0,.926,4.475l1.273-.719q.657-2.964,1.986-8.873a38.38,38.38,0,0,1,1-3.76q.369-.5,1.034-1.564l3.415-.317q-1.482,4.633-2.993,9.3Q185.646,289.989,184.718,293.779Z" transform="translate(-142.103 -221.132)" fill="#42bcd6"/>
  <path id="Path_13" data-name="Path 13" d="M255.342,287.412l-6.065.422v.719q-.029,3.6.424,4.132t6.434.422l-.372,1.883q-5.036.451-7.864.449-1.722,0-1.88-.24-.532-.691-.53-11.943,0-5.516.516-6.039t8.382-.528q1.271,0,2.2.024l-.5,2.278q-5.516,0-6.144.688-.5.559-.556,5.111l.4.5,5.825.29Z" transform="translate(-195.407 -222.31)" fill="#42bcd6"/>
  <path id="Path_14" data-name="Path 14" d="M318.036,294.15l-2.808.719a57.52,57.52,0,0,0-6.329-14.2l-.873.422q-.448,5.669-.556,13.586l-2.782.29q0-2.144-.132-7.334-.1-4.847-.105-7.362l.372-3.523,5.036-.53q2.672,4.609,3.336,5.8a36.352,36.352,0,0,1,2.621,6.17l-.158-10.329.264-1.748,3.837-.106Q318.251,288,318.036,294.15Z" transform="translate(-240.227 -221.793)" fill="#42bcd6"/>
  <path id="Path_15" data-name="Path 15" d="M387.085,278.626l-4.369.847-.48.688q-.158,4.873-.556,14.629l-2.967.607c.053-.719.079-1.508.079-2.355q0-1.482-.105-4.5t-.106-4.516a33.435,33.435,0,0,0-.319-4.012l-.719-.424-4.1-.48.343-2.252q6.461-.24,13-.556Z" transform="translate(-292.672 -222.013)" fill="#42bcd6"/>
  <path id="Path_16" data-name="Path 16" d="M441.013,294.028q-3.415,0-4.185-.609a9.589,9.589,0,0,1-3.283-5.861,37.319,37.319,0,0,1-.48-6.921,2.4,2.4,0,0,1,.026-.53,6.132,6.132,0,0,1,2.832-4.163,10.054,10.054,0,0,1,5.036-1.034q3.758,0,5.516,1.271a4.2,4.2,0,0,1,1.616,2.4,10.745,10.745,0,0,1,.3,2.933q0,1.484-.158,3.6a15.011,15.011,0,0,1-1.2,4.077,9.049,9.049,0,0,1-2.146,3.552,8.948,8.948,0,0,1-1.907.755A8.505,8.505,0,0,1,441.013,294.028Zm-1.748-16.233c-.333,0-.8.293-1.389.875a2.724,2.724,0,0,0-.94,1.439q-.187,2.01-.187,5.348a7.227,7.227,0,0,0,1.616,5.084q.424.453,2.727.451a5.559,5.559,0,0,0,1.935-.24c.3-.125.652-1.094,1.058-2.914q.424-1.986.583-3.283a19.519,19.519,0,0,0,.185-2.568q0-3.118-1.2-3.681a9.3,9.3,0,0,0-2.12-.345C440.431,277.848,439.673,277.795,439.265,277.795Z" transform="translate(-337.995 -220.957)" fill="#42bcd6"/>
  <g id="Group_1" data-name="Group 1">
    <path id="Path_17" data-name="Path 17" d="M99.916,68.175a8.4,8.4,0,0,1-1.782,3.691,9.874,9.874,0,0,1-4.4,2.777A31.914,31.914,0,0,0,96.688,69c.959-2.652.83-7.341.83-7.341a16.4,16.4,0,0,1-4.686,1.7,14.84,14.84,0,0,1-4.768.043s1.285-.54,3.564-1.453a11.123,11.123,0,0,0,3.441-2.736,9.177,9.177,0,0,1-1.947.125c-2.281-.125-2.736-4.271-7.629-5.058-5.808-.935-8.916,1.919-8.916,1.919s-1.161-4.4-6.8-5.969c-4.06-1.146-9.084,1.4-9.084,1.4a7.842,7.842,0,0,1,3.938,1.329,8.521,8.521,0,0,1,3,3.768s-6.676-5.636-12.95-4.348a10.75,10.75,0,0,0-7.876,6.756,21.122,21.122,0,0,1,4.851.787,19.016,19.016,0,0,1,5.554,2.655,21.245,21.245,0,0,0-6.218-.29c-2.484.29-3.94.871-6.842.5s-3.6-1.161-3.6-1.161-.223.705.072,4.638,3.357,8.168,3.357,8.168-.83.084-2.777-1.408a12.8,12.8,0,0,1-3.194-4.686s-.372.125-1.2,4.187c-.9,4.4,2.2,8.5,2.2,8.5s-.29,2.115,1.245,6.18,7.214,6.955,9.578,7.835a25.453,25.453,0,0,1,2.36,1,7.343,7.343,0,0,0,14.492-1.06,4.194,4.194,0,0,1,2.178-.6,4.25,4.25,0,0,1,2.211.619,7.343,7.343,0,0,0,13.962,2.58,17.525,17.525,0,0,1,1.439-1.213c1.616-1.2,5.844-2.82,9.245-5.89s3.026-9.161,3.026-9.161a9.666,9.666,0,0,0,2.739-4.516C102.506,72.47,99.916,68.175,99.916,68.175ZM59.358,100.042a5.6,5.6,0,1,1,5.6-5.6,5.6,5.6,0,0,1-5.6,5.6Zm7.218-6.955a7.343,7.343,0,0,0-13.468-2.5c.062-1.919.189-3.863.24-4.835.333-5.8,1.439-8.276,4.271-9.37,3.65-1.41,11.238,1.369,11.238,1.369a34.709,34.709,0,0,1,5.756-1.576c3.609-.636,9.329-.789,9.66,8.334.084,2.314.2,4.17.18,5.8a7.343,7.343,0,0,0-13.281,2.808,6,6,0,0,0-4.595-.019Zm11.816,6.955a5.6,5.6,0,1,1,5.6-5.6A5.6,5.6,0,0,1,78.392,100.042Z" transform="translate(-36.65 -49.933)"/>
    <path id="Path_18" data-name="Path 18" d="M122.936,226a2.7,2.7,0,0,0-2.638,2.753v.055h1.573v-.055a1.07,1.07,0,1,1,2.137,0v.055h1.573v-.055A2.7,2.7,0,0,0,122.936,226Z" transform="translate(-100.237 -183.776)"/>
    <path id="Path_19" data-name="Path 19" d="M202.146,226a2.7,2.7,0,0,0-2.638,2.753v.055h1.573v-.055a1.07,1.07,0,1,1,2.137,0v.055h1.573v-.055A2.7,2.7,0,0,0,202.146,226Z" transform="translate(-160.452 -183.776)"/>
  </g>
</svg>
