<?xml version="1.0" encoding="utf-8"?>
<!-- Generator: Adobe Illustrator 24.1.2, SVG Export Plug-In . SVG Version: 6.00 Build 0)  -->
<!DOCTYPE svg PUBLIC "-//W3C//DTD SVG 1.1//EN" "http://www.w3.org/Graphics/SVG/1.1/DTD/svg11.dtd" [
	<!ENTITY ns_extend "http://ns.adobe.com/Extensibility/1.0/">
	<!ENTITY ns_ai "http://ns.adobe.com/AdobeIllustrator/10.0/">
	<!ENTITY ns_graphs "http://ns.adobe.com/Graphs/1.0/">
	<!ENTITY ns_vars "http://ns.adobe.com/Variables/1.0/">
	<!ENTITY ns_imrep "http://ns.adobe.com/ImageReplacement/1.0/">
	<!ENTITY ns_sfw "http://ns.adobe.com/SaveForWeb/1.0/">
	<!ENTITY ns_custom "http://ns.adobe.com/GenericCustomNamespace/1.0/">
	<!ENTITY ns_adobe_xpath "http://ns.adobe.com/XPath/1.0/">
]>
<svg version="1.1" xmlns:x="&ns_extend;" xmlns:i="&ns_ai;" xmlns:graph="&ns_graphs;"
	 xmlns="http://www.w3.org/2000/svg" xmlns:xlink="http://www.w3.org/1999/xlink" x="0px" y="0px" viewBox="0 0 109 109"
	 style="enable-background:new 0 0 109 109;" xml:space="preserve">
<style type="text/css">
	.Blue_x0020_Neon{fill:none;stroke:#8AACDA;stroke-width:7;stroke-linecap:round;stroke-linejoin:round;}
	.Chrome_x0020_Highlight{fill:url(#SVGID_1_);stroke:#FFFFFF;stroke-width:0.3629;stroke-miterlimit:1;}
	.Jive_GS{fill:#FFDD00;}
	.Alyssa_GS{fill:#A6D0E4;}
</style>
<metadata>
	<sfw  xmlns="&ns_sfw;">
		<slices></slices>
		<sliceSourceBounds  bottomLeftOrigin="true" height="94" width="77.2" x="-6107.3" y="6382.3"></sliceSourceBounds>
	</sfw>
</metadata>
<linearGradient id="SVGID_1_" gradientUnits="userSpaceOnUse" x1="6123.1782" y1="6483.7915" x2="6123.1782" y2="6482.7915">
	<stop  offset="0" style="stop-color:#656565"/>
	<stop  offset="0.618" style="stop-color:#1B1B1B"/>
	<stop  offset="0.6292" style="stop-color:#545454"/>
	<stop  offset="0.9831" style="stop-color:#3E3E3E"/>
</linearGradient>
<g id="bg">
</g>
<g id="note">
	<g>
		<path d="M89.2,8.1L89.2,8.1L40.1,18.1c-0.4,0.1-0.7,0.4-0.7,0.8v6.5V32v48.9c-3.6-1.8-9.1-1.5-14.2,1.2c-7.2,3.7-11,10.6-8.5,15.3
			c2.5,4.7,10.3,5.5,17.4,1.8c6-3.1,9.9-8.4,9.9-12.8V31.6c0-0.3,0.2-0.6,0.6-0.7L88.3,22c0.4-0.1,0.9,0.3,0.9,0.7v45.6
			c-3.6-1.8-9.1-1.5-14.2,1.2c-7.2,3.7-11,10.6-8.5,15.3c2.5,4.7,10.3,5.5,17.4,1.8c6-3.1,9.6-8.4,9.2-12.8h0V8.3
			c0-0.5-0.5-0.9-1-0.8L89.2,8.1z"/>
	</g>
</g>
</svg>
