<svg id="pencil" xmlns="http://www.w3.org/2000/svg" width="33.038" height="38.021" viewBox="0 0 33.038 38.021">
  <path id="Path_25" data-name="Path 25" d="M88.944,70.139,74.23,84.853a1.471,1.471,0,1,0,2.08,2.08L91.025,72.219Z" transform="translate(-70.81 -64.931)" fill="#fff"/>
  <path id="Path_26" data-name="Path 26" d="M37.973,312.57a3.674,3.674,0,0,1-2.575-1.082,3.741,3.741,0,0,1-.407-.484l-1.437,5.983,5.984-1.438a3.683,3.683,0,0,1-1.565-2.98Z" transform="translate(-33.554 -287.909)" fill="#fff"/>
  <path id="Path_27" data-name="Path 27" d="M308.33,5.736V3.743L304.587,0h-1.993l-3.633,3.633L304.7,9.369Z" transform="translate(-279.252)" fill="#fff"/>
  <path id="Path_28" data-name="Path 28" d="M125.539,136.162l14.714-14.714-2.08-2.08-14.714,14.714h0a1.471,1.471,0,0,0,2.081,2.08Z" transform="translate(-116.384 -110.503)" fill="#fff"/>
  <path id="Path_29" data-name="Path 29" d="M160.9,363.6H141.226L139,365.832h21.9a1.082,1.082,0,0,1,0,2.165h-8.778a3.314,3.314,0,0,0,0,6.627H157.4V372.4h-5.282a1.086,1.086,0,0,1,0-2.172H160.9a3.31,3.31,0,0,0,0-6.62Z" transform="translate(-131.168 -336.603)" fill="#fff"/>
</svg>
