<svg xmlns="http://www.w3.org/2000/svg" width="85.379" height="108.217" viewBox="0 0 85.379 108.217">
  <g id="rocket" transform="translate(-11.419 54.109) rotate(-45)">
    <path id="Path_45" data-name="Path 45" d="M20.474,14.316c-1.815,2.95-5.411,7.383-11.415,8.8l1.379-4.538S5.114,22.118,0,23.113c.995-5.132,4.538-10.438,4.538-10.438L0,14.054c1.414-6,5.847-9.6,8.8-11.415L21.366,0Z" transform="translate(8.353 45.055)" fill="#fcc400"/>
    <path id="Path_46" data-name="Path 46" d="M48.684,48.682a17.34,17.34,0,0,1-23.865.626,6.818,6.818,0,0,0,5.989-6.183,11.153,11.153,0,0,0-.98-5.513L16.15,23.934a11.153,11.153,0,0,0-5.513-.98,6.818,6.818,0,0,0-6.183,5.989,17.343,17.343,0,0,1,21.5-26.657L51.476,27.809a17.353,17.353,0,0,1-2.792,20.874Z" transform="translate(0 22.759)" fill="#b108e3"/>
    <path id="Path_47" data-name="Path 47" d="M43.017,34.378a55.755,55.755,0,0,1-22.846,8.639,11.153,11.153,0,0,0-.98-5.513L5.513,23.826A11.152,11.152,0,0,0,0,22.846,55.757,55.757,0,0,1,8.639,0a17.266,17.266,0,0,1,6.677,2.178L40.839,27.7A17.25,17.25,0,0,1,43.017,34.378Z" transform="translate(10.637 22.867)" fill="#9306c4"/>
    <path id="Path_48" data-name="Path 48" d="M13.678,60.372A59.95,59.95,0,0,0,42.73,44.265,60.069,60.069,0,0,0,60.349.022,60.251,60.251,0,0,0,0,46.694Z" transform="translate(16.149 0)" fill="#e3e8ec"/>
    <path id="Path_49" data-name="Path 49" d="M23.025,24.559A112.173,112.173,0,0,0,3.554,50.247L0,46.692A60.25,60.25,0,0,1,60.349.022C48.648,3.848,35.206,12.378,23.025,24.559Z" transform="translate(16.15 0.001)" fill="#d5d8db"/>
    <g id="Group_94" data-name="Group 94" transform="translate(54.347 0)">
      <path id="Path_50" data-name="Path 50" d="M18.592,22.17a54.556,54.556,0,0,1-10.4-8.187A57.1,57.1,0,0,1,3.808,9.067,52.3,52.3,0,0,1,0,3.583,60.365,60.365,0,0,1,22.047.02c.035,0,.071,0,.1,0h0A60.378,60.378,0,0,1,18.592,22.17Z" transform="translate(0 0)" fill="#b108e3"/>
      <path id="Path_51" data-name="Path 51" d="M0,0S0,0,0,0" transform="translate(19.812 51.404)" fill="#e30e08"/>
    </g>
    <path id="Path_52" data-name="Path 52" d="M22.152.023h0A79.886,79.886,0,0,0,3.808,9.067,52.3,52.3,0,0,1,0,3.583,60.364,60.364,0,0,1,22.047.02C22.082.022,22.117.022,22.152.023Z" transform="translate(54.347 0)" fill="#9306c4"/>
    <circle id="Ellipse_2" data-name="Ellipse 2" cx="11.248" cy="11.248" r="11.248" transform="translate(38.499 15.527)" fill="#9306c4"/>
    <circle id="Ellipse_3" data-name="Ellipse 3" cx="7.575" cy="7.575" r="7.575" transform="translate(42.172 19.2)" fill="#a0d9f2"/>
  </g>
</svg>
