<svg id="screw" xmlns="http://www.w3.org/2000/svg" width="15.025" height="15.025" viewBox="0 0 15.025 15.025">
  <circle id="Ellipse_4" data-name="Ellipse 4" cx="7.513" cy="7.513" r="7.513" transform="translate(0 0)" fill="#efe2dd"/>
  <path id="Path_53" data-name="Path 53" d="M8.354,7.513A7.516,7.516,0,0,1,0,14.978,7.513,7.513,0,0,0,6.671,7.513,7.513,7.513,0,0,0,0,.047,7.516,7.516,0,0,1,8.354,7.513Z" transform="translate(6.671 0)" fill="#cdbfbb"/>
  <path id="Path_54" data-name="Path 54" d="M9.227,4.13l-1.271-.3A2.593,2.593,0,0,1,6.031,1.9L5.73.632a.822.822,0,0,0-1.6,0L3.828,1.9A2.593,2.593,0,0,1,1.9,3.828l-1.272.3a.822.822,0,0,0-.632.8H0a.822.822,0,0,0,.632.8l1.271.3A2.593,2.593,0,0,1,3.828,7.955l.3,1.272a.822.822,0,0,0,.8.632h0a.822.822,0,0,0,.8-.632l.3-1.271A2.593,2.593,0,0,1,7.956,6.031l1.271-.3a.822.822,0,0,0,0-1.6Z" transform="translate(2.583 2.583)" fill="#9e9797"/>
  <path id="Path_55" data-name="Path 55" d="M5.7,4.929a.822.822,0,0,1-.632.8l-1.271.3A2.593,2.593,0,0,0,1.871,7.956l-.3,1.271a.823.823,0,0,1-1.57.1H0a.914.914,0,0,0,.031-.1l.3-1.271A2.6,2.6,0,0,1,2.257,6.031l1.271-.3a.822.822,0,0,0,0-1.6l-1.271-.3A2.594,2.594,0,0,1,.333,1.9L.031.632A.914.914,0,0,0,0,.531.831.831,0,0,1,.259.177.823.823,0,0,1,1.57.632l.3,1.271A2.593,2.593,0,0,0,3.8,3.828l1.271.3a.821.821,0,0,1,.632.8Z" transform="translate(6.743 2.583)" fill="#756f6f"/>
</svg>
