<svg xmlns="http://www.w3.org/2000/svg" width="30.378" height="31.733" viewBox="0 0 30.378 31.733">
  <path id="Icon_awesome-cog" data-name="Icon awesome-cog" d="M31.3,20.249l-2.725-1.574a12.324,12.324,0,0,0,0-4.491L31.3,12.61a.773.773,0,0,0,.352-.9,15.934,15.934,0,0,0-3.5-6.052.77.77,0,0,0-.947-.147L24.481,7.089a12.074,12.074,0,0,0-3.89-2.246V1.7a.767.767,0,0,0-.6-.749A16.084,16.084,0,0,0,13,.953a.767.767,0,0,0-.6.749V4.85A12.455,12.455,0,0,0,8.512,7.1L5.793,5.521a.76.76,0,0,0-.947.147,15.838,15.838,0,0,0-3.5,6.052.765.765,0,0,0,.352.9L4.424,14.19a12.324,12.324,0,0,0,0,4.491L1.7,20.256a.773.773,0,0,0-.352.9,15.934,15.934,0,0,0,3.5,6.052.77.77,0,0,0,.947.147l2.725-1.574a12.074,12.074,0,0,0,3.89,2.246V31.17a.766.766,0,0,0,.6.749,16.084,16.084,0,0,0,6.986,0,.766.766,0,0,0,.6-.749V28.022a12.455,12.455,0,0,0,3.89-2.246l2.725,1.574a.76.76,0,0,0,.947-.147,15.838,15.838,0,0,0,3.5-6.052A.79.79,0,0,0,31.3,20.249Zm-14.8,1.3a5.118,5.118,0,1,1,5.118-5.118A5.125,5.125,0,0,1,16.5,21.548Z" transform="translate(-1.311 -0.569)" fill="#fff"/>
</svg>
