<?xml version="1.0" encoding="utf-8"?>
<!-- Generator: Adobe Illustrator 16.0.0, SVG Export Plug-In . SVG Version: 6.00 Build 0)  -->
<!DOCTYPE svg PUBLIC "-//W3C//DTD SVG 1.1//EN" "http://www.w3.org/Graphics/SVG/1.1/DTD/svg11.dtd">
<svg version="1.1" id="Layer_1" xmlns="http://www.w3.org/2000/svg" xmlns:xlink="http://www.w3.org/1999/xlink" x="0px" y="0px"
	 width="42.754px" height="48.578px" viewBox="0 0 42.754 48.578" enable-background="new 0 0 42.754 48.578" xml:space="preserve">
<path id="Icon_awesome-share-alt" fill="#FFFFFF" stroke="#42BCD6" stroke-width="1.8" d="M31.858,29.531
	c-1.779-0.003-3.505,0.6-4.895,1.709l-8.391-5.242c0.249-1.125,0.249-2.29,0-3.414l8.391-5.245
	c3.391,2.699,8.326,2.138,11.024-1.253c2.699-3.391,2.138-8.327-1.253-11.025s-8.326-2.137-11.025,1.253
	c-1.473,1.852-2.032,4.271-1.521,6.582l-8.392,5.245c-3.396-2.704-8.341-2.142-11.044,1.254c-2.703,3.396-2.142,8.341,1.254,11.044
	c2.865,2.281,6.925,2.281,9.79,0l8.392,5.244c-0.944,4.238,1.728,8.438,5.965,9.381c4.237,0.942,8.438-1.729,9.381-5.966
	c0.942-4.238-1.728-8.438-5.966-9.381c-0.561-0.124-1.133-0.187-1.707-0.187H31.858z"/>
</svg>
