<svg id="Component_1_1" data-name="Component 1 – 1" xmlns="http://www.w3.org/2000/svg" width="109" height="109" viewBox="0 0 109 109">
  <rect id="Rectangle_53" data-name="Rectangle 53" width="109" height="109" rx="54.5" fill="#ef7d00"/>
  <path id="Icon_awesome-volume-up" data-name="Icon awesome-volume-up" d="M22.96,7l-9.5,9.5H2.563A2.562,2.562,0,0,0,0,19.064V34.44A2.563,2.563,0,0,0,2.563,37h10.9l9.5,9.5a2.564,2.564,0,0,0,4.375-1.812V8.815A2.564,2.564,0,0,0,22.96,7ZM47.874,1.549a2.584,2.584,0,1,0-2.836,4.32,24.948,24.948,0,0,1,0,41.767,2.583,2.583,0,1,0,2.836,4.319,30.116,30.116,0,0,0,0-50.406Zm3.38,25.2a19.715,19.715,0,0,0-9.158-16.683,2.552,2.552,0,0,0-3.536.8,2.593,2.593,0,0,0,.791,3.562,14.593,14.593,0,0,1,0,24.648,2.593,2.593,0,0,0-.791,3.562,2.557,2.557,0,0,0,3.536.8A19.714,19.714,0,0,0,51.253,26.752ZM36.115,18.544a2.563,2.563,0,0,0-2.473,4.491,4.209,4.209,0,0,1,0,7.434,2.563,2.563,0,1,0,2.473,4.491,9.336,9.336,0,0,0,0-16.416Z" transform="translate(23.34 27.62)" fill="#fff"/>
</svg>
