<svg xmlns="http://www.w3.org/2000/svg" width="24" height="24" viewBox="0 0 24 24">
  <path id="Icon_material-color-lens" data-name="Icon material-color-lens" d="M16.5,4.5a12,12,0,0,0,0,24,2,2,0,0,0,1.48-3.347,1.992,1.992,0,0,1,1.493-3.32h2.36A6.669,6.669,0,0,0,28.5,15.167C28.5,9.273,23.127,4.5,16.5,4.5Zm-7.333,12a2,2,0,1,1,2-2A2,2,0,0,1,9.167,16.5Zm4-5.333a2,2,0,1,1,2-2A2,2,0,0,1,13.167,11.167Zm6.667,0a2,2,0,1,1,2-2A2,2,0,0,1,19.833,11.167Zm4,5.333a2,2,0,1,1,2-2A2,2,0,0,1,23.833,16.5Z" transform="translate(-4.5 -4.5)" fill="#42bcd6"/>
</svg>
