<svg xmlns="http://www.w3.org/2000/svg" width="30.005" height="24" viewBox="0 0 30.005 24">
  <path id="Icon_awesome-code" data-name="Icon awesome-code" d="M13.074,23.979l-2.86-.83a.563.563,0,0,1-.384-.7L16.229.409a.563.563,0,0,1,.7-.384l2.86.83a.563.563,0,0,1,.384.7l-6.4,22.042a.562.562,0,0,1-.7.384ZM7.73,18.719l2.039-2.175a.563.563,0,0,0-.038-.806L5.484,12,9.731,8.266a.559.559,0,0,0,.038-.806L7.73,5.284a.563.563,0,0,0-.8-.023L.178,11.589a.559.559,0,0,0,0,.82l6.755,6.333a.559.559,0,0,0,.8-.023Zm15.339.028,6.755-6.333a.559.559,0,0,0,0-.82L23.068,5.256a.568.568,0,0,0-.8.023L20.232,7.455a.563.563,0,0,0,.038.806L24.517,12,20.27,15.738a.559.559,0,0,0-.038.806l2.039,2.175a.563.563,0,0,0,.8.028Z" transform="translate(0.002 -0.003)" fill="#42bcd6"/>
</svg>
