<svg xmlns="http://www.w3.org/2000/svg" width="30.119" height="24" viewBox="0 0 30.119 24">
  <path id="Path_17" data-name="Path 17" d="M65.933,58.376a3.89,3.89,0,0,1-.825,1.708,4.57,4.57,0,0,1-2.035,1.285,14.771,14.771,0,0,0,1.365-2.612,11.92,11.92,0,0,0,.384-3.4,7.589,7.589,0,0,1-2.169.787,6.869,6.869,0,0,1-2.207.02s.595-.25,1.649-.673a5.148,5.148,0,0,0,1.593-1.267,4.248,4.248,0,0,1-.9.058c-1.056-.058-1.267-1.977-3.531-2.341a5.063,5.063,0,0,0-4.127.888,4.343,4.343,0,0,0-3.147-2.763,6.9,6.9,0,0,0-4.2.647,3.63,3.63,0,0,1,1.823.615,3.944,3.944,0,0,1,1.389,1.744S47.9,50.467,45,51.063a4.976,4.976,0,0,0-3.645,3.127,9.777,9.777,0,0,1,2.246.364,8.8,8.8,0,0,1,2.571,1.229,9.834,9.834,0,0,0-2.878-.134,10.524,10.524,0,0,1-3.167.23c-1.343-.173-1.665-.537-1.665-.537a8.488,8.488,0,0,0,.033,2.147,8.975,8.975,0,0,0,1.554,3.781s-.384.039-1.285-.652a5.922,5.922,0,0,1-1.479-2.169s-.172.058-.555,1.938a5.536,5.536,0,0,0,1.017,3.934,6.564,6.564,0,0,0,.576,2.86c.71,1.881,3.339,3.219,4.433,3.626a11.778,11.778,0,0,1,1.092.464,3.4,3.4,0,0,0,6.708-.491,1.941,1.941,0,0,1,1.008-.277,1.967,1.967,0,0,1,1.023.286,3.4,3.4,0,0,0,6.462,1.194,8.108,8.108,0,0,1,.666-.562A29.129,29.129,0,0,0,63.99,68.7c1.574-1.421,1.4-4.24,1.4-4.24a4.474,4.474,0,0,0,1.268-2.09A6.043,6.043,0,0,0,65.933,58.376ZM47.16,73.126a2.594,2.594,0,1,1,2.594-2.593,2.594,2.594,0,0,1-2.594,2.593ZM50.5,69.907a3.4,3.4,0,0,0-6.234-1.159c.029-.888.088-1.788.111-2.238.154-2.686.666-3.831,1.977-4.337,1.689-.653,5.2.634,5.2.634a16.065,16.065,0,0,1,2.664-.729c1.671-.294,4.318-.365,4.471,3.857.039,1.071.093,1.93.083,2.685a3.4,3.4,0,0,0-6.147,1.3,2.775,2.775,0,0,0-2.127-.009Zm5.469,3.219a2.594,2.594,0,1,1,2.594-2.593A2.594,2.594,0,0,1,55.97,73.126Z" transform="translate(-36.65 -49.933)" fill="#42bcd6"/>
</svg>
